<svg width="90" height="77" viewBox="0 0 90 77" fill="none" xmlns="http://www.w3.org/2000/svg">
<g opacity="0.5">
<path opacity="0.5" d="M82.5008 24.4291C85.4202 24.4291 87.7868 22.0675 87.7868 19.1543C87.7868 16.2411 85.4202 13.8795 82.5008 13.8795C79.5815 13.8795 77.2148 16.2411 77.2148 19.1543C77.2148 22.0675 79.5815 24.4291 82.5008 24.4291Z" fill="#E9EEF8"/>
<path opacity="0.5" d="M82.5008 23.262C84.7742 23.262 86.6171 21.423 86.6171 19.1544C86.6171 16.8858 84.7742 15.0467 82.5008 15.0467C80.2274 15.0467 78.3845 16.8858 78.3845 19.1544C78.3845 21.423 80.2274 23.262 82.5008 23.262Z" fill="#92B2DD"/>
<g opacity="0.5">
<path opacity="0.5" d="M82.1862 21.1629C81.9681 21.133 81.7644 21.0742 81.5733 20.9846C81.3822 20.8949 81.2201 20.7851 81.0859 20.653L81.2983 20.3379C81.3166 20.3099 81.3417 20.2868 81.3726 20.2694C81.4035 20.2521 81.4353 20.2424 81.4691 20.2424C81.5096 20.2424 81.554 20.2569 81.6004 20.2858C81.6467 20.3147 81.6998 20.3485 81.7596 20.388C81.8194 20.4265 81.887 20.466 81.9632 20.5046C82.0395 20.5432 82.1302 20.5721 82.2344 20.5913L82.3406 19.3432C82.2084 19.3056 82.0781 19.2623 81.9488 19.2122C81.8194 19.162 81.7027 19.0955 81.5994 19.0127C81.4961 18.9298 81.4131 18.8247 81.3494 18.6985C81.2857 18.5722 81.2548 18.4132 81.2548 18.2233C81.2548 18.0816 81.2828 17.9428 81.3398 17.8079C81.3967 17.673 81.4787 17.5515 81.5868 17.4455C81.6949 17.3395 81.8281 17.2518 81.9864 17.1824C82.1447 17.113 82.3261 17.0793 82.5307 17.0793L82.5616 16.7246C82.5655 16.6793 82.5838 16.6388 82.6176 16.6032C82.6514 16.5675 82.6948 16.5502 82.7489 16.5502H83.0027L82.9554 17.0976C83.1523 17.1294 83.3231 17.1853 83.4659 17.2653C83.6088 17.3453 83.7342 17.4349 83.8404 17.5352L83.6725 17.7886C83.6464 17.8262 83.6204 17.8532 83.5943 17.8725C83.5682 17.8908 83.5364 17.9004 83.4997 17.9004C83.4717 17.9004 83.4389 17.8918 83.4003 17.8744C83.3617 17.8571 83.3183 17.8359 83.2691 17.8098C83.2198 17.7848 83.1648 17.7597 83.106 17.7337C83.0461 17.7077 82.9805 17.6865 82.9081 17.6701L82.8106 18.8247C82.9448 18.8652 83.077 18.9105 83.2083 18.9596C83.3395 19.0088 83.4573 19.0724 83.5625 19.1505C83.6677 19.2285 83.7526 19.3259 83.8182 19.4415C83.8829 19.5572 83.9157 19.7027 83.9157 19.8781C83.9157 20.0507 83.8867 20.2126 83.8288 20.3648C83.7709 20.5162 83.687 20.6501 83.576 20.7658C83.465 20.8814 83.3289 20.9759 83.1667 21.0491C83.0046 21.1214 82.8193 21.1648 82.6108 21.1802L82.5771 21.5898C82.5732 21.6322 82.5549 21.6717 82.5211 21.7084C82.4873 21.745 82.4439 21.7623 82.3898 21.7623H82.136L82.1862 21.1629ZM81.9044 18.1587C81.9044 18.2291 81.9169 18.2917 81.941 18.3457C81.9652 18.3997 81.999 18.4479 82.0433 18.4893C82.0868 18.5308 82.1389 18.5683 82.1987 18.6011C82.2586 18.6339 82.3232 18.6628 82.3937 18.6888L82.4805 17.6576C82.3782 17.6711 82.2904 17.6923 82.218 17.7231C82.1456 17.7539 82.0858 17.7915 82.0395 17.8359C81.9932 17.8802 81.9594 17.9303 81.9372 17.9853C81.915 18.0392 81.9044 18.0971 81.9044 18.1587ZM83.2613 19.9822C83.2613 19.9119 83.2488 19.8502 83.2237 19.7972C83.1986 19.7442 83.1629 19.6969 83.1175 19.6565C83.0722 19.616 83.0181 19.5803 82.9573 19.5504C82.8956 19.5206 82.829 19.4936 82.7566 19.4695L82.662 20.601C82.8589 20.575 83.0085 20.5085 83.1098 20.4015C83.2111 20.2945 83.2613 20.1547 83.2613 19.9822Z" fill="#E9EEF8"/>
</g>
</g>
<path d="M89.5174 74.6435H0.482563C0.216188 74.6435 0 74.4276 0 74.1616V74.124C0 73.858 0.216188 73.6422 0.482563 73.6422H89.5174C89.7838 73.6422 90 73.858 90 74.124V74.1616C90 74.4276 89.7838 74.6435 89.5174 74.6435Z" fill="#CDDDF1"/>
<path d="M49.9742 77H7.62734C7.36096 77 7.14478 76.7841 7.14478 76.5181V76.4805C7.14478 76.2145 7.36096 75.9986 7.62734 75.9986H49.9742C50.2406 75.9986 50.4568 76.2145 50.4568 76.4805V76.5181C50.4568 76.7841 50.2406 77 49.9742 77Z" fill="#CDDDF1"/>
<path d="M79.0816 77H53.3195C53.0531 77 52.8369 76.7841 52.8369 76.5181V76.4805C52.8369 76.2145 53.0531 75.9986 53.3195 75.9986H79.0826C79.3489 75.9986 79.5651 76.2145 79.5651 76.4805V76.5181C79.5642 76.7841 79.3489 77 79.0816 77Z" fill="#CDDDF1"/>
<path d="M33.9666 24.9091C33.9666 24.911 33.9666 24.911 33.9666 24.912C33.9685 24.912 33.9685 24.912 33.9695 24.912L33.9666 24.9091ZM33.9666 29.7242V29.7261C33.9685 29.7261 33.9685 29.7261 33.9695 29.7261L33.9666 29.7242ZM32.7621 21.2987C32.7621 21.3007 32.7621 21.3007 32.7621 21.3016L32.765 21.2987C32.7631 21.2987 32.7631 21.2987 32.7621 21.2987ZM32.7621 22.5025C32.7621 22.5044 32.7621 22.5044 32.7621 22.5054C32.764 22.5054 32.764 22.5054 32.765 22.5054L32.7621 22.5025ZM30.3522 23.7053C30.3522 23.7072 30.3522 23.7072 30.3522 23.7082C30.3541 23.7082 30.3541 23.7082 30.3551 23.7082C30.3551 23.7063 30.3551 23.7063 30.3551 23.7053C30.3532 23.7053 30.3532 23.7053 30.3522 23.7053ZM29.1468 33.3326L29.1497 33.3355C29.1497 33.3336 29.1497 33.3336 29.1497 33.3326C29.1487 33.3326 29.1487 33.3326 29.1468 33.3326ZM26.7368 23.7092C26.7388 23.7092 26.7388 23.7092 26.7397 23.7092C26.7397 23.7072 26.7397 23.7072 26.7397 23.7063L26.7368 23.7092ZM25.5324 17.6893C25.5324 17.6913 25.5324 17.6913 25.5324 17.6922C25.5343 17.6922 25.5343 17.6922 25.5353 17.6922L25.5324 17.6893ZM21.917 30.926L21.9199 30.9289C21.9199 30.927 21.9199 30.927 21.9199 30.926C21.9189 30.926 21.9189 30.926 21.917 30.926ZM21.917 28.5223C21.9189 28.5223 21.9189 28.5223 21.9199 28.5223C21.9199 28.5204 21.9199 28.5204 21.9199 28.5194L21.917 28.5223ZM21.917 26.1119C21.917 26.1138 21.917 26.1138 21.917 26.1148C21.9189 26.1148 21.9189 26.1148 21.9199 26.1148C21.9199 26.1129 21.9199 26.1129 21.9199 26.1119C21.9189 26.1119 21.9189 26.1119 21.917 26.1119ZM21.917 27.3157L21.9199 27.3186C21.9199 27.3166 21.9199 27.3166 21.9199 27.3157C21.9189 27.3157 21.9189 27.3157 21.917 27.3157ZM21.917 14.079C21.917 14.0809 21.917 14.0809 21.917 14.0819C21.9189 14.0819 21.9189 14.0819 21.9199 14.0819L21.917 14.079Z" fill="#E9EEF8"/>
<path d="M11.0776 9.27258V17.6845H19.5013V9.27258H11.0776ZM18.2987 16.4798H12.286V10.4764H18.2997V16.4798H18.2987Z" fill="#E9EEF8"/>
<path d="M27.95 9.27649V17.6865H36.3716V9.27649H27.95ZM35.1701 16.4827H29.1564V10.4774H35.1701V16.4827Z" fill="#E9EEF8"/>
<path d="M11.0806 26.1187V34.5287H19.5042V26.1187H11.0806ZM18.2988 33.3288H12.287V27.3253H18.2988V33.3288Z" fill="#E9EEF8"/>
<path d="M25.542 12.8762V11.6715H26.732V9.27454H20.7183V11.6763H21.9198V14.08H23.1282V12.883H24.3317V14.0829H25.5352V15.2761H26.7339V12.8762H25.542ZM24.3201 11.6667H23.1282V10.4764H24.3201V11.6667ZM21.9198 14.0829C21.9198 14.081 21.9198 14.081 21.9198 14.08C21.9179 14.08 21.9179 14.08 21.9169 14.08L21.9198 14.0829Z" fill="#E9EEF8"/>
<path d="M17.0972 20.0959C17.0972 20.493 17.0972 20.8901 17.0972 21.2988C17.9031 21.2988 18.7003 21.2988 19.5032 21.2988C19.5032 21.7026 19.5032 22.0958 19.5032 22.4996C18.3055 22.4996 17.1059 22.4996 15.8956 22.4996C15.8956 23.3073 15.8956 24.1034 15.8956 24.9053C14.2858 24.9053 12.6875 24.9053 11.0815 24.9053C11.0815 24.1101 11.0815 23.314 11.0815 22.5112C11.4753 22.5112 11.871 22.5112 12.2744 22.5112C12.2744 22.9054 12.2744 23.2986 12.2744 23.6996C13.0794 23.6996 13.8766 23.6996 14.6902 23.6996C14.6902 22.4996 14.6902 21.2978 14.6902 20.0959L14.6873 20.0988C15.4912 20.0988 16.2952 20.0988 17.1001 20.0988L17.0972 20.0959Z" fill="#E9EEF8"/>
<path d="M21.917 30.9261C21.917 31.3232 21.917 31.7202 21.917 32.1289C22.3204 32.1289 22.7161 32.1289 23.1195 32.1289C23.1195 32.5327 23.1195 32.9259 23.1195 33.3298C23.5229 33.3298 23.9186 33.3298 24.3211 33.3298C24.3211 33.7365 24.3211 34.1316 24.3211 34.5326C23.1215 34.5326 21.9247 34.5326 20.7202 34.5326C20.7202 33.3365 20.7202 32.1385 20.7202 30.929C21.1188 30.929 21.5193 30.929 21.9189 30.929L21.917 30.9261Z" fill="#E9EEF8"/>
<path d="M14.6901 20.0959C13.891 20.0959 13.0919 20.0959 12.2812 20.0959C12.2812 20.4978 12.2812 20.893 12.2812 21.2949C11.8768 21.2949 11.483 21.2949 11.0815 21.2949C11.0815 20.5017 11.0815 19.7056 11.0815 18.9018C12.2773 18.9018 13.476 18.9018 14.6873 18.9018C14.6873 19.3008 14.6873 19.6998 14.6873 20.0998C14.6873 20.0988 14.6901 20.0959 14.6901 20.0959Z" fill="#E9EEF8"/>
<path d="M36.3718 22.4997C35.9712 22.4997 35.5775 22.4997 35.1769 22.4997C35.1769 21.7007 35.1769 20.9065 35.1769 20.1017C34.7735 20.1017 34.3778 20.1017 33.9753 20.1017C33.9753 19.695 33.9753 19.2999 33.9753 18.8999C34.7745 18.8999 35.5697 18.8999 36.3718 18.8999C36.3718 20.0969 36.3718 21.294 36.3718 22.4997Z" fill="#E9EEF8"/>
<path d="M17.1001 20.0988C17.1001 19.7017 17.1001 19.3046 17.1001 18.9008C17.9011 18.9008 18.6983 18.9008 19.5023 18.9008C19.5023 19.295 19.5023 19.6902 19.5023 20.0959C18.7002 20.0959 17.8982 20.0959 17.0972 20.0959L17.1001 20.0988Z" fill="#E9EEF8"/>
<path d="M33.9704 24.913C33.9704 24.5159 33.9704 24.1198 33.9704 23.715C34.37 23.715 34.7647 23.715 35.1672 23.715C35.1672 24.1092 35.1672 24.5033 35.1672 24.9101C34.7666 24.9101 34.3671 24.9101 33.9675 24.9101L33.9704 24.913Z" fill="#E9EEF8"/>
<path d="M35.1787 26.1187C35.5773 26.1187 35.9701 26.1187 36.3706 26.1187C36.3706 26.5148 36.3706 26.9099 36.3706 27.3109C35.9749 27.3109 35.5792 27.3109 35.1787 27.3109C35.1787 26.9157 35.1787 26.5234 35.1787 26.1187Z" fill="#E9EEF8"/>
<path d="M25.5351 17.6923C25.5351 17.2952 25.5351 16.8991 25.5351 16.4943C25.9347 16.4943 26.3294 16.4943 26.7319 16.4943C26.7319 16.8885 26.7319 17.2826 26.7319 17.6894C26.3314 17.6894 25.9318 17.6894 25.5322 17.6894L25.5351 17.6923Z" fill="#E9EEF8"/>
<path d="M21.9199 28.5194C21.5222 28.5194 21.1246 28.5194 20.7202 28.5194C20.7202 28.1204 20.7202 27.7253 20.7202 27.3186C21.1198 27.3186 21.5193 27.3186 21.9199 27.3186L21.917 27.3157C21.917 27.7176 21.917 28.1195 21.917 28.5214L21.9199 28.5194Z" fill="#E9EEF8"/>
<path d="M33.9704 29.7261C33.9704 29.329 33.9704 28.9329 33.9704 28.5281C34.37 28.5281 34.7647 28.5281 35.1672 28.5281C35.1672 28.9223 35.1672 29.3165 35.1672 29.7232C34.7666 29.7232 34.3671 29.7232 33.9675 29.7232L33.9704 29.7261Z" fill="#E9EEF8"/>
<path d="M32.7622 21.3026C33.1598 21.3026 33.5575 21.3026 33.9619 21.3026C33.9619 21.7016 33.9619 22.0968 33.9619 22.5035C33.5623 22.5035 33.1627 22.5035 32.7622 22.5035L32.7651 22.5064C32.7651 22.1045 32.7651 21.7026 32.7651 21.3007L32.7622 21.3026Z" fill="#E9EEF8"/>
<path d="M26.732 33.3297C26.3314 33.3297 25.9377 33.3297 25.5391 33.3297C25.5391 32.9326 25.5391 32.5394 25.5391 32.1394C25.9328 32.1394 26.3285 32.1394 26.732 32.1394C26.732 32.5317 26.732 32.9268 26.732 33.3297Z" fill="#E9EEF8"/>
<path d="M29.1477 33.3326C29.1477 33.7297 29.1477 34.1258 29.1477 34.5306C28.7481 34.5306 28.3534 34.5306 27.9509 34.5306C27.9509 34.1364 27.9509 33.7423 27.9509 33.3355C28.3515 33.3355 28.751 33.3355 29.1506 33.3355L29.1477 33.3326Z" fill="#E9EEF8"/>
<path d="M36.3716 34.5335C35.9711 34.5335 35.5783 34.5335 35.1797 34.5335C35.1797 34.1364 35.1797 33.7441 35.1797 33.3422C35.5735 33.3422 35.9692 33.3422 36.3716 33.3422C36.3716 33.7345 36.3716 34.1296 36.3716 34.5335Z" fill="#E9EEF8"/>
<path d="M33.9667 30.926V29.7261H32.7699V27.3137H33.9667V24.912H32.7613V22.5054H31.5664V21.2987H32.7613V20.092H31.5548V18.8902H25.5315V17.6922H24.3231V15.2885H23.1216V17.6835H21.918V17.5544C21.918 16.3969 21.9161 15.2394 21.9161 14.0818H20.7097V23.7111H17.103V24.9091H20.7145V26.1138H21.9161C21.9161 26.1119 21.9161 26.1119 21.9161 26.1109C21.918 26.1109 21.918 26.1109 21.919 26.1109C21.919 26.1128 21.919 26.1128 21.919 26.1138C21.9171 26.1138 21.9171 26.1138 21.9161 26.1138C21.918 26.5147 21.918 26.9137 21.919 27.3137H23.1158V28.5204H21.919V30.9241H24.3318V29.729H30.3455V30.9308H27.9472V32.1327H29.1488V33.3307H31.5616V34.5306H32.7651V32.124H36.3718V30.9241H33.9667V30.926ZM29.1536 20.1026H30.3455V21.2948H29.1536V20.1026ZM23.276 23.7053V20.6983H26.2872V23.7053H23.276ZM26.734 28.5156H25.5421V27.3253H26.734V28.5156ZM26.7398 23.7091C26.7379 23.7091 26.7379 23.7091 26.7369 23.7091C26.7369 23.7072 26.7369 23.7072 26.7369 23.7063C26.7389 23.7063 26.7389 23.7063 26.7398 23.7063C26.7398 23.7072 26.7398 23.7072 26.7398 23.7091ZM31.5519 28.5136H29.1497V27.3185C29.1478 27.3185 29.1478 27.3185 29.1468 27.3185C29.1468 27.3166 29.1468 27.3166 29.1468 27.3156H27.952V26.1205H29.1468V27.3156C29.1488 27.3156 29.1488 27.3156 29.1497 27.3156C29.1497 27.3176 29.1497 27.3176 29.1497 27.3185H31.5519V28.5136ZM31.5519 24.9042H30.3552V23.7091C30.3533 23.7091 30.3533 23.7091 30.3523 23.7091C30.3523 23.7072 30.3523 23.7072 30.3523 23.7063C30.3542 23.7063 30.3542 23.7063 30.3552 23.7063C30.3552 23.7082 30.3552 23.7082 30.3552 23.7091H31.5519V24.9042Z" fill="#E9EEF8"/>
<path d="M26.7402 23.7053L26.7368 23.7087C26.7368 23.7064 26.7368 23.7064 26.7368 23.7053C26.739 23.7053 26.739 23.7053 26.7402 23.7053Z" fill="#E9EEF8"/>
<path d="M17.0913 15.2799C15.8869 15.2799 14.6901 15.2799 13.4885 15.2799C13.4885 14.08 13.4885 12.8858 13.4885 11.6821C14.6862 11.6821 15.8849 11.6821 17.0913 11.6821C17.0913 12.8772 17.0913 14.0742 17.0913 15.2799Z" fill="#E9EEF8"/>
<path d="M30.3579 15.277C30.3579 14.0751 30.3579 12.88 30.3579 11.6791C31.5595 11.6791 32.7553 11.6791 33.9607 11.6791C33.9607 12.8742 33.9607 14.0722 33.9607 15.277C32.764 15.277 31.5653 15.277 30.3579 15.277Z" fill="#E9EEF8"/>
<path d="M13.4885 32.124C13.4885 30.9222 13.4885 29.7271 13.4885 28.5262C14.6901 28.5262 15.8859 28.5262 17.0913 28.5262C17.0913 29.7222 17.0913 30.9193 17.0913 32.124C15.8936 32.124 14.6949 32.124 13.4885 32.124Z" fill="#E9EEF8"/>
<path d="M65.3613 41.6906H81.9741C82.5551 41.6906 83.026 42.0896 83.026 42.5812V73.6422H65.3613V41.6906Z" fill="#45BC9A"/>
<path d="M80.5139 48.6752C78.3664 48.6752 76.6254 46.9365 76.6254 44.7921C76.6254 44.2235 76.7489 43.6847 76.968 43.198H66.7241V73.6422H81.5137V48.5451C81.1943 48.6299 80.8594 48.6752 80.5139 48.6752Z" fill="#B0D9AC"/>
<path d="M77.5831 57.5325C78.0505 55.5557 76.8248 53.5748 74.8452 53.108C72.8657 52.6412 70.8821 53.8654 70.4147 55.8421C69.9473 57.8189 71.1731 59.7998 73.1526 60.2666C75.1321 60.7333 77.1157 59.5092 77.5831 57.5325Z" fill="white"/>
<path d="M61.9835 73.6422H30.2954C28.4298 73.6422 26.9175 72.1319 26.9175 70.2689V3.37326C26.9175 1.51026 28.4298 0 30.2954 0H61.9835C63.849 0 65.3614 1.51026 65.3614 3.37326V70.2689C65.3614 72.1319 63.849 73.6422 61.9835 73.6422Z" fill="#2D4D9D"/>
<path d="M60.2751 72.0558H32.0027C30.1371 72.0558 28.6248 70.5455 28.6248 68.6825V7.36722C28.6248 5.50422 30.1371 3.99396 32.0027 3.99396H60.2751C62.1407 3.99396 63.653 5.50422 63.653 7.36722V68.6825C63.653 70.5455 62.1407 72.0558 60.2751 72.0558Z" fill="#F3FAFE"/>
<path d="M49.7418 2.59356H42.3615C42.1984 2.59356 42.0662 2.46152 42.0662 2.29864C42.0662 2.13576 42.1984 2.00372 42.3615 2.00372H49.7418C49.9049 2.00372 50.0371 2.13576 50.0371 2.29864C50.0371 2.46152 49.9049 2.59356 49.7418 2.59356Z" fill="#CDDDF1"/>
<path d="M36.4878 10.6451H34.4909C34.1715 10.6451 33.9119 10.3858 33.9119 10.0668V8.07272C33.9119 7.7537 34.1715 7.49445 34.4909 7.49445H36.4878C36.8072 7.49445 37.0669 7.7537 37.0669 8.07272V10.0668C37.0669 10.3858 36.8072 10.6451 36.4878 10.6451Z" fill="#92B2DD"/>
<path d="M49.3451 9.57622H39.6031C39.3232 9.57622 39.0955 9.34973 39.0955 9.06927C39.0955 8.78977 39.3223 8.56232 39.6031 8.56232H49.3451C49.625 8.56232 49.8527 8.78881 49.8527 9.06927C49.8527 9.34973 49.6259 9.57622 49.3451 9.57622Z" fill="#92B2DD"/>
<path d="M52.8485 14.0781C52.8485 14.0781 53.5666 5.82514 55.7758 6.98555C57.9849 8.14595 59.811 9.22443 60.1439 21.7431C60.476 34.2617 55.3752 45.3434 53.3591 42.7874C51.3439 40.2315 52.1787 32.5635 52.1787 32.5635L52.8485 14.0781Z" fill="#E9EEF8"/>
<path d="M53.6911 14.0906C53.6911 14.0906 54.5762 11.5848 55.1668 12.616C55.7575 13.6482 56.9378 14.1639 56.4582 15.4168C55.9785 16.6697 55.7961 18.0335 56.5701 18.8074C57.3442 19.5813 57.7495 22.2982 56.9378 23.1319C56.1262 23.9666 55.2045 25.551 55.7025 25.9558C56.2005 26.3616 56.1262 25.4894 56.3482 25.3727C56.5692 25.2561 57.1232 26.0667 56.6435 26.5823C56.1638 27.0979 55.5741 27.282 55.7034 27.8718C55.8328 28.4617 56.1667 29.8621 55.5384 30.636C54.9101 31.4099 55.3898 31.8147 55.2421 32.6262C55.0944 33.4368 54.8734 34.5037 54.6515 34.228C54.4304 33.9524 54.0251 34.7995 53.6921 35.7209C53.3601 36.6423 53.3601 32.3679 53.3601 32.3679L53.6911 14.0906Z" fill="#92B2DD"/>
<path d="M33.8473 14.5783L32.8735 31.2133C32.8465 31.6807 33.2122 32.0788 33.6813 32.0903L54.6313 32.6262C54.6313 32.6262 53.4693 31.3 54.6313 30.1387C55.7933 28.9783 55.0743 27.8795 54.6313 26.8261C54.1883 25.7727 54.6728 24.939 55.2606 24.0562C55.8483 23.1743 56.4573 20.7417 55.6823 19.7471C54.9073 18.7525 54.6303 17.7569 55.4613 16.928C56.2923 16.0991 54.8523 14.1089 54.8523 14.1089L34.6889 13.7976C34.2449 13.7899 33.8734 14.1349 33.8473 14.5783Z" fill="#2D4D9D"/>
<path d="M38.8486 19.2786C38.5572 19.5022 38.1933 19.6343 37.7966 19.6343C36.8421 19.6343 36.0671 18.8613 36.0671 17.9081C36.0671 16.954 36.8412 16.181 37.7966 16.181C38.1933 16.181 38.5572 16.314 38.8486 16.5376C38.4365 16.8528 38.1711 17.3491 38.1711 17.9081C38.1711 18.4671 38.4365 18.9635 38.8486 19.2786Z" fill="#FFD38E"/>
<g opacity="0.6">
<path opacity="0.6" d="M39.5252 17.9082C39.5252 18.4662 39.2598 18.9625 38.8487 19.2787C38.4366 18.9635 38.1711 18.4672 38.1711 17.9082C38.1711 17.3492 38.4366 16.8528 38.8487 16.5377C39.2598 16.8538 39.5252 17.3501 39.5252 17.9082Z" fill="#6FC390"/>
</g>
<path d="M41.6282 17.9081C41.6282 18.8613 40.8542 19.6343 39.8996 19.6343C39.5039 19.6343 39.1401 19.5013 38.8477 19.2786C39.2598 18.9635 39.5242 18.4671 39.5242 17.9081C39.5242 17.3501 39.2588 16.8538 38.8477 16.5376C39.1391 16.314 39.5039 16.181 39.8996 16.181C40.8551 16.182 41.6282 16.955 41.6282 17.9081Z" fill="#45BC9A"/>
<path d="M36.2804 22.2876L44.7474 22.5575C44.8391 22.5604 44.9115 22.6365 44.9076 22.7281L44.8893 23.314C44.8864 23.4056 44.8102 23.4779 44.7185 23.474L36.2514 23.2042C36.1597 23.2013 36.0874 23.1251 36.0912 23.0336L36.1095 22.4476C36.1124 22.357 36.1887 22.2847 36.2804 22.2876Z" fill="#92B2DD"/>
<path d="M46.3378 22.6076L50.4396 22.7377C50.484 22.7387 50.5178 22.8148 50.5149 22.9064L50.4965 23.4924C50.4937 23.5839 50.455 23.6572 50.4107 23.6552L46.3089 23.5251C46.2645 23.5242 46.2307 23.448 46.2336 23.3565L46.2519 22.7705C46.2548 22.6799 46.2934 22.6067 46.3378 22.6076Z" fill="#92B2DD"/>
<path d="M36.2409 24.1073L47.1497 24.4542C47.2675 24.4581 47.3611 24.5352 47.3582 24.6267L47.3398 25.2127C47.337 25.3043 47.2385 25.3756 47.1208 25.3718L36.212 25.0248C36.0942 25.0209 36.0006 24.9438 36.0035 24.8523L36.0218 24.2663C36.0247 24.1747 36.1232 24.1044 36.2409 24.1073Z" fill="#92B2DD"/>
<path d="M36.59 28.6207L52.5407 29.1441C52.7134 29.1498 52.8505 29.2289 52.8476 29.3204L52.8283 29.9064C52.8254 29.998 52.6825 30.0674 52.5098 30.0616L36.5592 29.5382C36.3864 29.5325 36.2493 29.4534 36.2522 29.3619L36.2715 28.7759C36.2754 28.6853 36.4173 28.6159 36.59 28.6207Z" fill="#92B2DD"/>
<path d="M57.3828 24.2422C57.3171 24.2942 56.8462 24.7029 56.9755 24.9419C57.1048 25.1809 57.6578 25.126 57.8055 24.9419C57.9522 24.7588 57.9377 23.8008 57.3828 24.2422Z" fill="#92B2DD"/>
<path d="M55.2401 11.4006C55.2401 11.4006 55.2054 11.9539 55.3704 12.1929C55.5354 12.4329 55.7757 12.4695 55.7757 11.9905C55.7757 11.5115 55.4428 10.7742 55.2401 11.4006Z" fill="#92B2DD"/>
<path d="M54.5395 34.7263C54.5395 34.7263 54.2809 35.6496 54.5395 35.851C54.7982 36.0525 55.2778 35.9975 55.0192 35.2882C54.7605 34.5788 54.5936 34.494 54.5395 34.7263Z" fill="#92B2DD"/>
<path d="M56.9522 27.946C56.9522 27.946 56.2738 28.2641 56.4214 28.6207C56.5681 28.9773 57.705 28.425 56.9522 27.946Z" fill="#92B2DD"/>
<path d="M57.8846 23.53C57.871 23.53 57.8566 23.5251 57.8459 23.5145C57.8238 23.4933 57.8238 23.4586 57.845 23.4365C57.8479 23.4336 58.176 23.0615 58.2108 21.4964C58.2368 20.3707 57.8865 19.6083 57.5468 18.871C57.4001 18.552 57.262 18.2513 57.1549 17.9255C57.0005 17.4571 57.0729 16.8287 57.1491 16.1628C57.2505 15.2799 57.3557 14.3682 56.9098 13.8323C56.5411 13.3899 56.515 13.0353 56.4842 12.6237C56.4484 12.137 56.4031 11.5317 55.7294 10.5468C55.4833 10.1873 55.2449 10.0292 55.0191 10.0784C54.3667 10.2191 53.9179 12.0233 53.8561 12.3751C53.8523 12.402 53.8291 12.4223 53.8011 12.4223C53.7702 12.4223 53.7461 12.3972 53.7461 12.3674C53.7461 12.3471 54.1785 10.221 54.9525 9.98197C55.2401 9.89331 55.5325 10.062 55.8221 10.4851C56.5131 11.4942 56.5585 12.1158 56.5961 12.616C56.626 13.0247 56.6502 13.3466 56.9957 13.762C57.4715 14.3335 57.3644 15.2703 57.2601 16.1753C57.1848 16.8287 57.1144 17.4456 57.2611 17.8908C57.3663 18.2108 57.5033 18.5086 57.6491 18.8247C57.9927 19.5736 58.3488 20.3475 58.3227 21.4983C58.286 23.1223 57.9405 23.4981 57.9251 23.5136C57.9135 23.5242 57.899 23.53 57.8846 23.53Z" fill="#92B2DD"/>
<path d="M53.1805 37.7314C53.1062 37.7314 53.0377 37.7102 52.9769 37.6687C52.5773 37.395 52.5937 36.2471 52.6082 35.2342C52.614 34.8583 52.6188 34.5027 52.6014 34.2318C52.5995 34.201 52.6227 34.175 52.6535 34.173C52.6835 34.1711 52.7105 34.1942 52.7124 34.2251C52.7298 34.5007 52.725 34.8583 52.7192 35.2361C52.7057 36.1729 52.6893 37.3381 53.0396 37.5771C53.1197 37.6321 53.2172 37.634 53.3378 37.5858C53.5337 37.5068 53.6997 37.369 53.86 37.236C54.1505 36.995 54.4255 36.7666 54.7884 37.0008C54.8038 37.0114 54.8463 37.0384 54.9274 36.968C55.3955 36.5613 56.0479 33.8367 55.6512 32.9808C55.3617 32.3553 55.6618 31.8725 55.9533 31.405C56.1444 31.0986 56.3239 30.8094 56.3442 30.4856C56.3751 29.9825 56.598 29.8398 56.8345 29.6895C57.0198 29.571 57.2128 29.4485 57.3682 29.1382C57.733 28.4115 57.6172 28.1407 57.1587 27.3099C57.0371 27.0902 57.0178 26.8829 57.1008 26.696C57.2987 26.2526 58.0013 26.0849 58.0312 26.0782C58.0611 26.0714 58.0911 26.0897 58.0978 26.1196C58.1046 26.1495 58.0862 26.1794 58.0563 26.1861C58.0496 26.1881 57.3769 26.349 57.2022 26.7422C57.1337 26.8964 57.152 27.0699 57.2553 27.2579C57.7147 28.0906 57.8536 28.4173 57.4666 29.1883C57.2968 29.5257 57.0825 29.6625 56.8933 29.7839C56.6636 29.9304 56.4822 30.0471 56.4542 30.4943C56.432 30.846 56.2361 31.1612 56.0469 31.4658C55.7593 31.9284 55.4871 32.3659 55.7516 32.9365C55.9369 33.3374 55.9292 34.1682 55.7284 35.158C55.575 35.9204 55.2893 36.8023 54.9988 37.0538C54.8801 37.1569 54.7855 37.1338 54.7276 37.0962C54.4323 36.9064 54.2103 37.0904 53.9294 37.3237C53.7702 37.4557 53.5897 37.6051 53.3784 37.6909C53.3089 37.7169 53.2423 37.7314 53.1805 37.7314Z" fill="#92B2DD"/>
<path d="M24.8473 32.0682V73.6431H6.12482C5.51293 73.6431 5.01782 73.1477 5.01782 72.5376V34.8313C5.01782 33.3047 6.25704 32.0672 7.7858 32.0672H24.8473V32.0682Z" fill="#E9EEF8"/>
<path d="M24.8473 32.0695V41.3257H5.01782V35.1324C5.01782 33.44 6.25704 32.0695 7.7858 32.0695H24.8473Z" fill="#92B2DD"/>
<path d="M24.8473 32.0672V40.4194H9.39754C9.23733 40.4194 9.1688 40.2141 9.29909 40.1206C10.0258 39.5934 11.2911 38.2904 11.2911 35.611C11.2911 32.4238 8.77021 32.0942 8.00293 32.0682H24.8473V32.0672Z" fill="white"/>
<path d="M12.1724 45.2287H8.07445C7.91424 45.2287 7.78491 45.0995 7.78491 44.9395V44.4297C7.78491 44.2697 7.91424 44.1406 8.07445 44.1406H12.1724C12.3326 44.1406 12.4619 44.2697 12.4619 44.4297V44.9395C12.4619 45.0986 12.3326 45.2287 12.1724 45.2287Z" fill="#92B2DD"/>
<path d="M17.832 45.2287H13.7341C13.5739 45.2287 13.4446 45.0995 13.4446 44.9395V44.4297C13.4446 44.2697 13.5739 44.1406 13.7341 44.1406H17.832C17.9923 44.1406 18.1216 44.2697 18.1216 44.4297V44.9395C18.1216 45.0986 17.9923 45.2287 17.832 45.2287Z" fill="#92B2DD"/>
<path d="M14.9945 47.9283H8.10253C7.94232 47.9283 7.81299 47.7991 7.81299 47.6391V47.1293C7.81299 46.9693 7.94232 46.8401 8.10253 46.8401H14.9945C15.1547 46.8401 15.284 46.9693 15.284 47.1293V47.6391C15.284 47.7991 15.1547 47.9283 14.9945 47.9283Z" fill="#92B2DD"/>
<path d="M14.9945 70.5436H8.10253C7.94232 70.5436 7.81299 70.4144 7.81299 70.2544V69.7446C7.81299 69.5846 7.94232 69.4554 8.10253 69.4554H14.9945C15.1547 69.4554 15.284 69.5846 15.284 69.7446V70.2544C15.284 70.4144 15.1547 70.5436 14.9945 70.5436Z" fill="#92B2DD"/>
<path d="M12.1725 51.2553H8.10253C7.94232 51.2553 7.81299 51.1261 7.81299 50.9661V50.4785C7.81299 50.3185 7.94232 50.1893 8.10253 50.1893H12.1725C12.3327 50.1893 12.462 50.3185 12.462 50.4785V50.9661C12.462 51.1252 12.3327 51.2553 12.1725 51.2553Z" fill="#92B2DD"/>
<path d="M12.1725 67.4286H8.10253C7.94232 67.4286 7.81299 67.2995 7.81299 67.1395V66.6518C7.81299 66.4918 7.94232 66.3627 8.10253 66.3627H12.1725C12.3327 66.3627 12.462 66.4918 12.462 66.6518V67.1395C12.462 67.2995 12.3327 67.4286 12.1725 67.4286Z" fill="#92B2DD"/>
<path d="M36.448 24.832C36.448 24.832 37.8146 23.7266 37.7953 24.1959C37.776 24.6653 37.25 24.859 37.776 24.6653C38.302 24.4716 38.606 23.6977 39.132 24.2509C39.658 24.8041 39.298 25.4672 39.132 25.633C38.966 25.7987 37.167 26.1303 37.167 26.1303L36.448 24.832Z" fill="#F79E86"/>
<path d="M30.831 44.1406L35.5389 27.1037C35.6161 26.8232 35.4375 26.536 35.1509 26.482L34.9453 26.4435C34.6944 26.3963 34.4473 26.5476 34.3759 26.7924L29.3003 44.0461L30.831 44.1406Z" fill="#92B2DD"/>
<path d="M28.2859 29.7146L33.1859 30.8345L32.823 32.0682L28.0225 30.8914L28.2859 29.7146Z" fill="#92B2DD"/>
<path d="M26.981 34.1114L31.881 35.2313L31.5181 36.465L26.7175 35.2882L26.981 34.1114Z" fill="#92B2DD"/>
<path d="M19.542 34.548C19.542 34.548 18.241 39.0749 18.6782 40.6227C19.1144 42.1706 18.9668 43.4148 18.9668 43.4148L23.8011 43.7107V42.4279L19.542 34.548Z" fill="#23375C"/>
<path d="M19.4086 34.5056C19.4086 34.5056 18.1182 35.6476 18.9666 38.301C19.8149 40.9543 22.9883 41.8756 23.8009 42.4279C24.6126 42.9811 24.6869 44.8229 24.6869 44.8229L30.9969 45.6701C30.9969 45.6701 31.1446 41.5065 30.6282 40.9533C30.1119 40.4001 26.8642 36.8755 26.8642 36.8755L19.4086 34.5056Z" fill="#2E738F"/>
<path d="M30.084 17.0822C30.084 17.0822 30.8445 16.2032 30.6554 15.7724C30.4662 15.3426 30.3108 15.2732 30.3108 15.2732C30.3108 15.2732 30.4488 14.6024 30.2075 14.2583C29.9663 13.9142 29.088 13.6222 28.7608 13.8458C28.4336 14.0694 28.4336 14.0694 28.4336 14.0694C28.4336 14.0694 28.2956 13.4497 27.6239 13.2608C26.9522 13.0719 26.0729 14.2246 26.0729 14.2246C26.0729 14.2246 25.4186 13.8632 25.1078 14.3624C24.798 14.8616 24.9872 15.3946 24.9872 15.3946C24.9872 15.3946 23.9883 15.0852 23.6775 15.8939C23.3677 16.7025 23.4015 16.8914 23.4015 16.8914C23.4015 16.8914 22.1786 17.5275 22.3331 18.3708C22.4875 19.2141 22.7124 19.4551 22.7124 19.4551C22.7124 19.4551 22.5058 20.281 22.8677 20.6598C23.2297 21.0386 23.7296 21.3132 23.7296 21.3132C23.7296 21.3132 23.747 22.1903 24.384 22.3975C25.0209 22.6038 25.214 22.4659 25.214 22.4659C25.214 22.4659 25.8133 23.3603 26.5024 22.9131C27.1915 22.4659 26.9058 21.4472 28.0215 20.9325C29.1391 20.4179 30.084 17.0822 30.084 17.0822Z" fill="#C43F52"/>
<path d="M30.4595 44.0278L39.3126 34.4998C39.6041 34.1866 40.076 34.1384 40.4215 34.3861L55.6377 45.2904C56.0286 45.5699 56.1183 46.1231 55.8365 46.5163L49.7746 54.9986C49.5236 55.3494 49.0575 55.4583 48.682 55.2531L30.6747 45.3945C30.1796 45.1236 30.0725 44.4442 30.4595 44.0278Z" fill="#35A090"/>
<path d="M30.1604 43.8244L39.0135 34.2964C39.3049 33.9832 39.7769 33.935 40.1224 34.1827L55.3386 45.087C55.7295 45.3665 55.8192 45.9197 55.5374 46.3129L49.4754 54.7952C49.2245 55.146 48.7583 55.255 48.3829 55.0497L30.3765 45.192C29.8805 44.9203 29.7733 44.2418 30.1604 43.8244Z" fill="#45BC9A"/>
<path d="M40.0907 37.6176L41.9215 39.0392C42.2699 39.31 42.294 39.8266 41.9736 40.1283L39.3639 42.5908C39.1043 42.8356 38.7038 42.8529 38.4239 42.6322L36.6567 41.2386C36.3161 40.9697 36.289 40.4647 36.5988 40.1611L39.1448 37.6706C39.4025 37.4201 39.8069 37.3969 40.0907 37.6176Z" fill="#FFD38E"/>
<path d="M41.6425 38.807L41.0788 39.339C40.8897 39.5173 40.602 39.5317 40.3965 39.3727L39.9178 39.0026C39.8049 38.9159 39.7334 38.7896 39.717 38.6479C39.7006 38.5063 39.7412 38.3675 39.8309 38.2566L40.2488 37.742L40.1195 37.6379L39.7016 38.1525C39.5829 38.2981 39.5298 38.4812 39.552 38.6672C39.5732 38.8532 39.6678 39.019 39.8164 39.1337L39.9506 39.2378L38.4932 40.6044L38.1304 40.3336C37.8852 40.1514 37.5445 40.1678 37.3197 40.3741L36.5225 41.1037L36.6344 41.2261L37.4316 40.4965C37.5986 40.3442 37.8505 40.3317 38.0309 40.4666L38.7297 40.988C38.8388 41.0699 38.9073 41.1943 38.9179 41.3302C38.9276 41.466 38.8783 41.6 38.7818 41.6964L38.1082 42.3691L38.2259 42.4867L38.8996 41.814C39.0299 41.6839 39.0974 41.5027 39.0839 41.3186C39.0704 41.1345 38.9777 40.9658 38.8301 40.855L38.6284 40.7047L40.0838 39.3399L40.2951 39.5038C40.4216 39.6011 40.5702 39.6493 40.7188 39.6493C40.8897 39.6493 41.0605 39.5857 41.1937 39.4594L41.7573 38.9274L41.6425 38.807Z" fill="#45BC9A"/>
<path d="M30.8311 44.1406C30.8311 44.1406 51.3294 44.1753 52.1777 44.7921C53.0261 45.4089 52.1961 50.7088 52.1961 50.7088C52.1961 50.7088 48.5305 53.1105 42.1993 51.6639C35.8671 50.2182 30.8311 44.1406 30.8311 44.1406Z" fill="#35A090"/>
<path d="M51.8409 49.8202V72.2601C51.8409 73.0234 51.2213 73.6422 50.4569 73.6422H17.2758C16.5115 73.6422 15.8918 73.0234 15.8918 72.2601V49.8202C15.8918 49.0578 16.5115 48.4381 17.2758 48.4381H50.4569C51.2213 48.4381 51.8409 49.0578 51.8409 49.8202Z" fill="#D65F48"/>
<path d="M52.1778 49.8202V72.2601C52.1778 73.0234 51.5582 73.6422 50.7939 73.6422H50.457C51.2214 73.6422 51.841 73.0234 51.841 72.2601V49.8202C51.841 49.0578 51.2214 48.4381 50.457 48.4381H50.7939C51.5573 48.4381 52.1778 49.0578 52.1778 49.8202Z" fill="#F69782"/>
<path d="M51.5138 46.8073L50.5246 58.0519L50.2051 58.0317L16.2134 55.8959L16.6496 48.4381L17.1486 44.5752C17.2316 43.9314 17.747 43.4447 18.3733 43.3782C18.4496 43.3695 18.5268 43.3676 18.6059 43.3724L50.2206 45.3067C50.9975 45.3549 51.5824 46.0334 51.5138 46.8073Z" fill="#23375C"/>
<path d="M51.1935 46.8088L50.2052 58.0331L16.2134 55.8973L16.6496 48.4395L17.1486 44.5767C17.2316 43.9329 17.747 43.4461 18.3733 43.3796L49.8992 45.3091C50.6761 45.3564 51.261 46.0349 51.1935 46.8088Z" fill="#2D4D9D"/>
<path d="M21.4394 48.4391C21.4394 48.8795 21.6026 49.2805 21.8709 49.5879C21.563 49.8559 21.1605 50.0187 20.7195 50.0187C19.7514 50.0187 18.9668 49.2352 18.9668 48.2685C18.9668 47.3018 19.7514 46.5182 20.7195 46.5182C21.2474 46.5182 21.7193 46.7505 22.0417 47.1187C21.672 47.4396 21.4394 47.9119 21.4394 48.4391Z" fill="white"/>
<path opacity="0.47" d="M22.4721 48.2685C22.4721 48.7956 22.2395 49.2669 21.8709 49.5879C21.6016 49.2804 21.4395 48.8785 21.4395 48.439C21.4395 47.9118 21.672 47.4396 22.0417 47.1187C22.31 47.4261 22.4721 47.828 22.4721 48.2685Z" fill="#92B2DD"/>
<path d="M24.945 48.4391C24.945 49.4058 24.1604 50.1893 23.1924 50.1893C22.6644 50.1893 22.1915 49.9571 21.8711 49.5889C22.2398 49.2679 22.4724 48.7967 22.4724 48.2695C22.4724 47.829 22.3093 47.4271 22.041 47.1197C22.3488 46.8508 22.7513 46.6888 23.1914 46.6888C24.1604 46.6879 24.945 47.4724 24.945 48.4391Z" fill="#92B2DD"/>
<path d="M48.8529 48.3504L29.033 47.4878C28.7136 47.4743 28.4433 47.7211 28.4288 48.0401L28.4163 48.3205C28.4028 48.6395 28.6499 48.9094 28.9693 48.9239L48.7892 49.7864C49.1086 49.7999 49.3789 49.5532 49.3933 49.2342L49.4059 48.9537C49.4204 48.6338 49.1723 48.3639 48.8529 48.3504Z" fill="#92B2DD"/>
<path d="M51.4491 50.7049L52.4741 50.7088C52.7636 50.7097 52.9904 50.9555 52.9692 51.2437L52.4557 58.0519H50.8025L51.4491 50.7049Z" fill="#2D4D9D"/>
<path d="M51.1713 50.7049L52.1963 50.7088C52.4858 50.7097 52.7126 50.9555 52.6914 51.2437L52.1779 58.0519H50.5247L51.1713 50.7049Z" fill="#23375C"/>
<path d="M48.7689 49.8202V72.2601C48.7689 73.0234 48.1493 73.6422 47.3849 73.6422H19.3914C19.3914 73.6422 19.3904 73.6422 19.1115 73.6422H15.7934C15.5135 73.6422 15.5135 73.6422 15.5135 73.6422H14.6604C13.896 73.6422 13.2764 73.0234 13.2764 72.2601V49.8202C13.2764 49.0578 13.896 48.4381 14.6604 48.4381H47.3849C48.1367 48.4381 48.7496 49.0386 48.7679 49.7845C48.7689 49.7971 48.7689 49.8086 48.7689 49.8202Z" fill="#FFD38E"/>
<path d="M20.0891 49.5947H18.4426C18.3809 49.5947 18.3316 49.6438 18.3316 49.7055C18.3316 49.7662 18.3809 49.8163 18.4426 49.8163H20.0891C20.1499 49.8163 20.2001 49.7662 20.2001 49.7055C20.2001 49.6438 20.1509 49.5947 20.0891 49.5947ZM23.3831 49.5947H21.7366C21.6748 49.5947 21.6256 49.6438 21.6256 49.7055C21.6256 49.7248 21.6305 49.7421 21.6391 49.7575C21.6575 49.7922 21.6942 49.8154 21.7366 49.8154H23.3831C23.4439 49.8154 23.4941 49.7653 23.4941 49.7045C23.4941 49.6438 23.4439 49.5947 23.3831 49.5947ZM26.6761 49.5947H25.0296C24.9688 49.5947 24.9186 49.6438 24.9186 49.7055C24.9186 49.7662 24.9688 49.8163 25.0296 49.8163H26.6761C26.7379 49.8163 26.7871 49.7662 26.7871 49.7055C26.7871 49.6438 26.7379 49.5947 26.6761 49.5947ZM29.9701 49.5947H28.3226C28.2618 49.5947 28.2117 49.6438 28.2117 49.7055C28.2117 49.7662 28.2618 49.8163 28.3226 49.8163H29.9701C30.0309 49.8163 30.0811 49.7662 30.0811 49.7055C30.0811 49.6438 30.0309 49.5947 29.9701 49.5947ZM33.2631 49.5947H31.6166C31.5549 49.5947 31.5056 49.6438 31.5056 49.7055C31.5056 49.7662 31.5549 49.8163 31.6166 49.8163H33.2631C33.3239 49.8163 33.3741 49.7662 33.3741 49.7055C33.3741 49.6438 33.3249 49.5947 33.2631 49.5947ZM36.5571 49.5947H34.9106C34.8498 49.5947 34.7996 49.6438 34.7996 49.7055C34.7996 49.7662 34.8498 49.8163 34.9106 49.8163H36.5571C36.6189 49.8163 36.6681 49.7662 36.6681 49.7055C36.6681 49.6438 36.6189 49.5947 36.5571 49.5947ZM39.8501 49.5947H38.2036C38.1428 49.5947 38.0926 49.6438 38.0926 49.7055C38.0926 49.7662 38.1428 49.8163 38.2036 49.8163H39.8501C39.9119 49.8163 39.9611 49.7662 39.9611 49.7055C39.9611 49.6438 39.9119 49.5947 39.8501 49.5947ZM43.1441 49.5947H41.4976C41.4358 49.5947 41.3866 49.6438 41.3866 49.7055C41.3866 49.7662 41.4358 49.8163 41.4976 49.8163H43.1441C43.2049 49.8163 43.2551 49.7662 43.2551 49.7055C43.2551 49.6438 43.2049 49.5947 43.1441 49.5947ZM46.5269 49.6872C46.5124 49.6641 46.4892 49.6467 46.4612 49.639C46.3473 49.6101 46.2286 49.5947 46.109 49.5947H44.7906C44.7703 49.5947 44.751 49.5995 44.7356 49.6091C44.7028 49.6284 44.6806 49.6641 44.6806 49.7055C44.6806 49.7662 44.7298 49.8163 44.7916 49.8163H46.1099C46.2103 49.8163 46.3107 49.8289 46.4072 49.853C46.4168 49.8549 46.4255 49.8558 46.4352 49.8558C46.4844 49.8558 46.5298 49.8231 46.5423 49.773C46.5491 49.7431 46.5433 49.7122 46.5269 49.6872ZM16.7961 49.5947H15.9372C15.9285 49.5947 15.9198 49.5947 15.9121 49.5956C15.6312 49.6004 15.3629 49.6862 15.1342 49.8452C15.084 49.8809 15.0715 49.9493 15.1062 49.9995C15.1274 50.0303 15.1622 50.0467 15.1969 50.0467C15.2191 50.0467 15.2403 50.0399 15.2596 50.0264C15.4459 49.8973 15.664 49.825 15.8928 49.8173C15.9072 49.8163 15.9217 49.8163 15.9372 49.8163H16.7961C16.8579 49.8163 16.9071 49.7662 16.9071 49.7055C16.9062 49.6438 16.8569 49.5947 16.7961 49.5947ZM47.4958 50.943C47.4958 50.8813 47.4457 50.8351 47.3849 50.8351C47.3231 50.8351 47.2739 50.8871 47.2739 50.9478V52.592C47.2739 52.6537 47.3241 52.7029 47.3849 52.7029C47.4457 52.7029 47.4958 52.6537 47.4958 52.592V50.944L47.3849 50.942H47.4958V50.943ZM14.6603 51.2909C14.5995 51.2909 14.5493 51.3411 14.5493 51.4018V53.046C14.5493 53.1077 14.5995 53.1568 14.6603 53.1568C14.7211 53.1568 14.7713 53.1077 14.7713 53.046V51.4018C14.7713 51.3411 14.7221 51.2909 14.6603 51.2909ZM47.3849 54.1274C47.3241 54.1274 47.2739 54.1765 47.2739 54.2382V55.8824C47.2739 55.9431 47.3241 55.9933 47.3849 55.9933C47.4457 55.9933 47.4958 55.9431 47.4958 55.8824V54.2382C47.4958 54.1765 47.4457 54.1274 47.3849 54.1274ZM14.6603 54.5803C14.5995 54.5803 14.5493 54.6295 14.5493 54.6912V56.3354C14.5493 56.3961 14.5995 56.4462 14.6603 56.4462C14.7211 56.4462 14.7713 56.3961 14.7713 56.3354V54.6912C14.7713 54.6295 14.7221 54.5803 14.6603 54.5803ZM47.3849 57.4158C47.3241 57.4158 47.2739 57.465 47.2739 57.5266V59.1709C47.2739 59.2316 47.3241 59.2817 47.3849 59.2817C47.4457 59.2817 47.4958 59.2316 47.4958 59.1709V57.5266C47.4958 57.465 47.4457 57.4158 47.3849 57.4158ZM14.6603 57.8688C14.5995 57.8688 14.5493 57.9179 14.5493 57.9796V59.6239C14.5493 59.6846 14.5995 59.7347 14.6603 59.7347C14.7211 59.7347 14.7713 59.6846 14.7713 59.6239V57.9796C14.7713 57.9179 14.7221 57.8688 14.6603 57.8688ZM47.3849 60.7043C47.3241 60.7043 47.2739 60.7544 47.2739 60.8151V62.4593C47.2739 62.521 47.3241 62.5702 47.3849 62.5702C47.4457 62.5702 47.4958 62.521 47.4958 62.4593V60.8151C47.4958 60.7544 47.4457 60.7043 47.3849 60.7043ZM14.6603 61.1582C14.5995 61.1582 14.5493 61.2083 14.5493 61.269V62.9133C14.5493 62.9749 14.5995 63.0241 14.6603 63.0241C14.7211 63.0241 14.7713 62.9749 14.7713 62.9133V61.2681C14.7713 61.2074 14.7221 61.1582 14.6603 61.1582ZM47.3849 63.9937C47.3241 63.9937 47.2739 64.0428 47.2739 64.1045V65.7487C47.2739 65.8095 47.3241 65.8596 47.3849 65.8596C47.4457 65.8596 47.4958 65.8095 47.4958 65.7487V64.1045C47.4958 64.0428 47.4457 63.9937 47.3849 63.9937ZM14.6603 64.4467C14.5995 64.4467 14.5493 64.4968 14.5493 64.5575V66.2027C14.5493 66.2634 14.5995 66.3135 14.6603 66.3135C14.7211 66.3135 14.7713 66.2634 14.7713 66.2027V64.5575C14.7713 64.4968 14.7221 64.4467 14.6603 64.4467ZM47.3849 67.2831C47.3241 67.2831 47.2739 67.3322 47.2739 67.3939V69.0381C47.2739 69.0989 47.3241 69.149 47.3849 69.149C47.4457 69.149 47.4958 69.0989 47.4958 69.0381V67.3939C47.4958 67.3322 47.4457 67.2831 47.3849 67.2831ZM14.6603 67.7361C14.5995 67.7361 14.5493 67.7852 14.5493 67.8469V69.4911C14.5493 69.5518 14.5995 69.602 14.6603 69.602C14.7211 69.602 14.7713 69.5518 14.7713 69.4911V67.8469C14.7713 67.7852 14.7221 67.7361 14.6603 67.7361ZM47.3849 70.5715C47.3241 70.5715 47.2739 70.6217 47.2739 70.6824V71.1325C47.2739 71.4987 47.0905 71.8437 46.7836 72.0558C46.7334 72.0905 46.7209 72.1599 46.7556 72.21C46.7768 72.2408 46.8116 72.2572 46.8463 72.2572C46.8676 72.2572 46.8898 72.2505 46.9091 72.237C47.2758 71.9835 47.4949 71.57 47.4949 71.1325V70.6824C47.4958 70.6217 47.4457 70.5715 47.3849 70.5715ZM15.637 72.2273C15.1284 72.0962 14.7723 71.6471 14.7713 71.1354C14.7713 71.1045 14.7587 71.0775 14.7385 71.0573C14.7182 71.037 14.6912 71.0255 14.6603 71.0255C14.5985 71.0255 14.5493 71.0756 14.5493 71.1363C14.5503 71.7493 14.9749 72.2861 15.581 72.4422C15.5897 72.4442 15.5994 72.4451 15.609 72.4451C15.6582 72.4451 15.7026 72.4124 15.7162 72.3623C15.7316 72.3025 15.6959 72.2427 15.637 72.2273ZM18.8991 72.2649H17.2526C17.1918 72.2649 17.1416 72.3141 17.1416 72.3757C17.1416 72.4365 17.1918 72.4866 17.2526 72.4866H18.8991C18.9609 72.4866 19.0101 72.4365 19.0101 72.3757C19.0101 72.3141 18.9609 72.2649 18.8991 72.2649ZM22.1931 72.2649H20.5457C20.4848 72.2649 20.4347 72.3141 20.4347 72.3757C20.4347 72.4365 20.4848 72.4866 20.5457 72.4866H22.1931C22.2539 72.4866 22.3041 72.4365 22.3041 72.3757C22.3031 72.3141 22.2539 72.2649 22.1931 72.2649ZM25.4861 72.2649H23.8396C23.7779 72.2649 23.7286 72.3141 23.7286 72.3757C23.7286 72.4365 23.7779 72.4866 23.8396 72.4866H25.4861C25.5469 72.4866 25.5971 72.4365 25.5971 72.3757C25.5971 72.3141 25.5469 72.2649 25.4861 72.2649ZM28.7801 72.2649H27.1336C27.0728 72.2649 27.0226 72.3141 27.0226 72.3757C27.0226 72.4365 27.0728 72.4866 27.1336 72.4866H28.7801C28.8419 72.4866 28.8911 72.4365 28.8911 72.3757C28.8901 72.3141 28.8409 72.2649 28.7801 72.2649ZM32.0731 72.2649H30.4257C30.3649 72.2649 30.3147 72.3141 30.3147 72.3757C30.3147 72.4365 30.3649 72.4866 30.4257 72.4866H32.0731C32.1339 72.4866 32.1841 72.4365 32.1841 72.3757C32.1841 72.3141 32.1349 72.2649 32.0731 72.2649ZM35.3671 72.2649H33.7206C33.6588 72.2649 33.6096 72.3141 33.6096 72.3757C33.6096 72.4365 33.6588 72.4866 33.7206 72.4866H35.3671C35.4279 72.4866 35.4781 72.4365 35.4781 72.3757C35.4781 72.3141 35.4279 72.2649 35.3671 72.2649ZM38.6601 72.2649H37.0136C36.9518 72.2649 36.9026 72.3141 36.9026 72.3757C36.9026 72.4365 36.9518 72.4866 37.0136 72.4866H38.6601C38.7219 72.4866 38.7711 72.4365 38.7711 72.3757C38.7711 72.3141 38.7219 72.2649 38.6601 72.2649ZM41.9541 72.2649H40.3076C40.2468 72.2649 40.1966 72.3141 40.1966 72.3757C40.1966 72.4365 40.2468 72.4866 40.3076 72.4866H41.9541C42.0159 72.4866 42.0651 72.4365 42.0651 72.3757C42.0641 72.3141 42.0149 72.2649 41.9541 72.2649ZM45.2481 72.2649H43.6006C43.5398 72.2649 43.4896 72.3141 43.4896 72.3757C43.4896 72.4365 43.5398 72.4866 43.6006 72.4866H45.2481C45.3089 72.4866 45.3591 72.4365 45.3591 72.3757C45.3581 72.3141 45.3089 72.2649 45.2481 72.2649Z" fill="#F69782"/>
<path d="M49.2255 49.8202V72.2601C49.2255 73.0234 48.6059 73.6422 47.8415 73.6422H47.385C48.1484 73.6422 48.769 73.0234 48.769 72.2601V49.8202C48.769 49.0578 48.1494 48.4381 47.385 48.4381H47.8415C48.6059 48.4381 49.2255 49.0578 49.2255 49.8202Z" fill="#F69782"/>
<path d="M52.3622 64.5189H39.9912C38.2028 64.5189 36.7532 63.0713 36.7532 61.2854C36.7532 59.4995 38.2028 58.0519 39.9912 58.0519H52.3622C52.698 58.0519 52.9712 58.3237 52.9712 58.66V63.9108C52.9712 64.2471 52.698 64.5189 52.3622 64.5189Z" fill="#D65F48"/>
<path d="M39.963 61.4512C39.963 61.8174 39.6658 62.1143 39.299 62.1143C38.9323 62.1143 38.635 61.8174 38.635 61.4512C38.635 61.0849 38.9323 60.7881 39.299 60.7881C39.6658 60.7881 39.963 61.0849 39.963 61.4512Z" fill="#FFD38E"/>
<path d="M51.2976 63.2072H50.4831C50.2167 63.2072 50.0005 62.9913 50.0005 62.7253V59.4966C50.0005 59.2306 50.2167 59.0147 50.4831 59.0147H51.2976C51.564 59.0147 51.7802 59.2306 51.7802 59.4966V62.7253C51.7802 62.9913 51.564 63.2072 51.2976 63.2072Z" fill="#F69782"/>
<path d="M29.9268 29.9729C29.9268 29.9729 27.4918 36.6789 27.0855 36.8264C26.6801 36.9738 26.0895 36.8264 24.2818 36.4216C22.4731 36.0158 20.2225 35.4636 19.7428 35.0212C19.2631 34.5788 19.4108 34.4323 19.5218 33.6584C19.6328 32.8845 22.1788 26.2151 23.2115 24.9612C24.2451 23.7083 26.3269 23.4288 26.3269 23.4288C26.3269 23.4288 26.8288 24.2615 27.3451 24.4456C27.8614 24.6296 28.9684 25.072 29.3381 24.7039C29.7077 24.3347 29.7077 23.5242 29.7077 23.5242L33.4061 22.1614L33.2681 25.0672L33.2478 25.5019C33.2478 25.5019 33.2748 25.4903 33.3241 25.4691C33.7699 25.2812 36.0322 24.3386 36.4974 24.3713C37.0147 24.408 37.4567 25.0344 37.7897 26.2141C38.1188 27.3928 29.9268 29.9729 29.9268 29.9729Z" fill="#6FC390"/>
<path d="M33.321 25.4691V25.5134C33.321 25.5134 29.1883 27.0247 28.0813 26.8039C26.9917 26.5861 25.9735 25.5472 25.9417 25.5144C25.9812 25.5395 27.8323 26.7268 29.6304 26.4348C31.2643 26.1698 32.9408 25.2513 33.265 25.0672L33.2448 25.5019C33.2448 25.5019 33.2718 25.4903 33.321 25.4691Z" fill="#45BC9A"/>
<path d="M29.9267 29.9729C29.9267 29.9729 27.5283 30.3044 26.3104 29.9729C25.0924 29.6413 23.801 27.3562 23.801 27.3562C23.801 27.3562 24.7604 30.157 25.9417 31.9255C27.122 33.6941 28.0794 34.7986 28.0794 34.7986L29.9267 29.9729Z" fill="#45BC9A"/>
<path d="M30.5511 21.7942C30.1892 22.224 29.5348 22.2414 29.5348 22.2414C29.5348 22.2414 29.5348 22.2414 29.4827 22.517C29.4306 22.7917 29.6555 23.4287 29.6555 23.4287C29.6555 23.4287 30.1545 24.4272 29.6555 24.9949C29.1555 25.5626 29.1903 25.0286 28.2425 24.8397C27.2948 24.6499 25.9513 24.1169 26.2264 23.6697C26.5024 23.2225 26.2785 22.4659 26.2785 22.2761C26.2785 22.0862 26.072 21.9493 26.2611 21.7084C26.4513 21.4674 26.3991 21.1234 26.347 20.8998C26.2949 20.6762 26.209 20.7446 25.7612 20.4873C25.3134 20.229 24.9167 19.4724 25.5199 18.9047C26.1221 18.337 26.6742 19.1794 26.6742 19.1794C26.6742 19.1794 26.9155 19.3857 27.122 19.7124C27.3286 20.0401 27.2938 19.6439 27.2938 19.4888C27.2938 19.3336 27.621 19.3336 27.3112 18.8006C27.0014 18.2667 27.8459 17.3039 28.3275 17.3559C28.81 17.408 29.7578 16.6157 29.7578 16.6157C29.7578 16.6157 30.4643 17.5795 30.5328 17.9062C30.6013 18.2339 30.4121 18.3708 30.6534 18.87C30.8966 19.3683 30.913 21.3643 30.5511 21.7942Z" fill="#F79E86"/>
<path d="M29.6553 23.4287C29.6553 23.4287 28.6902 23.2572 28.1217 22.7232C27.5619 22.198 26.9356 20.8564 26.9163 20.8149C26.9385 20.8487 27.644 21.9522 27.9316 22.1209C28.225 22.2924 29.5337 22.2413 29.5337 22.2413C29.5337 22.2413 29.5337 22.2413 29.4816 22.517C29.4314 22.7926 29.6553 23.4287 29.6553 23.4287Z" fill="#C43F52"/>
<path d="M28.9364 18.8064C28.9721 18.949 28.9325 19.082 28.8476 19.1032C28.7636 19.1245 28.6661 19.0252 28.6304 18.8816C28.5947 18.7389 28.6353 18.6059 28.7192 18.5847C28.8032 18.5645 28.9007 18.6628 28.9364 18.8064Z" fill="#C43F52"/>
<path d="M30.3813 18.4113C30.4112 18.5337 30.3784 18.6484 30.307 18.6657C30.2356 18.6831 30.1525 18.5983 30.1226 18.4749C30.0927 18.3525 30.1255 18.2378 30.1969 18.2205C30.2684 18.2031 30.3514 18.2879 30.3813 18.4113Z" fill="#C43F52"/>
<path d="M30.1978 20.0911C30.1862 20.0911 30.1736 20.0873 30.164 20.0786C30.1418 20.0603 30.1399 20.0275 30.1582 20.0063C30.2518 19.8965 30.3763 19.7085 30.3618 19.6372C30.3541 19.5967 30.2422 19.5582 30.1514 19.5273C30.0424 19.4897 29.9188 19.4473 29.8349 19.3731C29.6447 19.2035 29.8156 18.8373 29.8223 18.8218C29.8349 18.7958 29.8658 18.7852 29.8908 18.7977C29.9169 18.8103 29.9275 18.8411 29.915 18.8662C29.8744 18.9519 29.7924 19.1977 29.9024 19.296C29.971 19.3567 30.0839 19.3953 30.1833 19.43C30.3223 19.4772 30.4419 19.5186 30.4612 19.617C30.4902 19.7634 30.2779 20.0227 30.2344 20.0738C30.2277 20.0854 30.2132 20.0911 30.1978 20.0911Z" fill="#C43F52"/>
<path d="M30.0087 21.0462C29.7162 21.0462 29.4547 20.9258 29.4441 20.921C29.418 20.9094 29.4074 20.8786 29.419 20.8525C29.4305 20.8265 29.4614 20.8159 29.4875 20.8275C29.4904 20.8284 29.7394 20.9431 30.0087 20.9431C30.2644 20.9431 30.4565 20.6993 30.4584 20.6964C30.4758 20.6742 30.5086 20.6694 30.5308 20.6868C30.553 20.7041 30.5578 20.7369 30.5404 20.759C30.5318 20.7706 30.3146 21.0462 30.0087 21.0462Z" fill="#C43F52"/>
<path d="M28.3814 18.4778C28.4248 18.3187 28.5503 18.2021 28.7115 18.1674C28.8089 18.1462 28.7674 17.9968 28.67 18.018C28.4576 18.0643 28.2887 18.2281 28.2318 18.4363C28.2057 18.5337 28.3553 18.5741 28.3814 18.4778Z" fill="#C43F52"/>
<path d="M30.0723 17.859C30.1283 17.8426 30.1775 17.8638 30.2132 17.9091C30.2393 17.9419 30.2962 17.9361 30.3233 17.9091C30.3561 17.8764 30.3493 17.833 30.3233 17.7993C30.2557 17.7125 30.136 17.6788 30.0318 17.7096C29.9353 17.7376 29.9758 17.887 30.0723 17.859Z" fill="#C43F52"/>
<path d="M68.6564 52.591H59.2763C58.6364 52.591 58.1182 52.0735 58.1182 51.4345V44.7352C58.1182 44.0962 58.6364 43.5787 59.2763 43.5787H68.6564C69.2963 43.5787 69.8145 44.0962 69.8145 44.7352V51.4345C69.8145 52.0735 69.2963 52.591 68.6564 52.591Z" fill="#E9EEF8"/>
<path d="M66.3332 48.7803C66.3332 48.7812 66.3332 48.7812 66.3332 48.7803V48.7803ZM66.3332 49.8925C66.3332 49.8934 66.3332 49.8934 66.3332 49.8925V49.8925ZM66.0553 47.9456C66.0553 47.9466 66.0553 47.9466 66.0553 47.9456V47.9456ZM66.0553 48.2241C66.0553 48.2251 66.0553 48.2251 66.0553 48.2241V48.2241ZM65.4974 48.5017C65.4974 48.5027 65.4974 48.5027 65.4974 48.5017C65.4984 48.5027 65.4984 48.5027 65.4974 48.5017C65.4984 48.5027 65.4984 48.5027 65.4974 48.5017C65.4984 48.5017 65.4984 48.5017 65.4974 48.5017ZM65.2195 50.7271C65.2204 50.7271 65.2204 50.7271 65.2195 50.7271V50.7271ZM64.6626 48.5027C64.6635 48.5027 64.6635 48.5027 64.6626 48.5027V48.5027ZM64.3837 47.1119C64.3846 47.1119 64.3846 47.1119 64.3837 47.1119V47.1119ZM63.5488 50.17C63.5488 50.171 63.5488 50.171 63.5488 50.17V50.17ZM63.5488 49.0578C63.5488 49.0588 63.5488 49.0588 63.5488 49.0578C63.5488 49.0588 63.5488 49.0588 63.5488 49.0578C63.5488 49.0588 63.5488 49.0588 63.5488 49.0578ZM63.5488 46.2773C63.5488 46.2782 63.5488 46.2782 63.5488 46.2773V46.2773Z" fill="#2D4D9D"/>
<path d="M61.0435 45.1661V47.11H62.9901V45.1661H61.0435ZM62.7122 46.8315H61.3224V45.4436H62.7122V46.8315Z" fill="#2D4D9D"/>
<path d="M64.9426 45.1671V47.111H66.8893V45.1671H64.9426ZM66.6113 46.8325H65.2215V45.4446H66.6113V46.8325Z" fill="#2D4D9D"/>
<path d="M61.0444 49.0598V51.0038H62.9911V49.0598H61.0444ZM62.7122 50.7262H61.3224V49.3383H62.7122V50.7262Z" fill="#2D4D9D"/>
<path d="M64.3867 45.9988V45.7203H64.6618V45.1661H63.272V45.7212H63.5499V46.2764H63.8288V45.9998H64.1068V46.2773H64.3848V46.553H64.6618V45.9978H64.3867V45.9988ZM64.1039 45.7193H63.8288V45.4446H64.1039V45.7193ZM63.549 46.2783C63.549 46.2773 63.549 46.2773 63.549 46.2783C63.549 46.2773 63.549 46.2773 63.549 46.2783Z" fill="#2D4D9D"/>
<path d="M62.4342 47.6681C62.4342 47.7597 62.4342 47.8512 62.4342 47.9457C62.6205 47.9457 62.8048 47.9457 62.9901 47.9457C62.9901 48.0392 62.9901 48.1298 62.9901 48.2232C62.7131 48.2232 62.4361 48.2232 62.1562 48.2232C62.1562 48.4102 62.1562 48.5943 62.1562 48.7794C61.7847 48.7794 61.415 48.7794 61.0435 48.7794C61.0435 48.5953 61.0435 48.4112 61.0435 48.2261C61.1342 48.2261 61.2259 48.2261 61.3195 48.2261C61.3195 48.3177 61.3195 48.4083 61.3195 48.5008C61.5058 48.5008 61.6901 48.5008 61.8773 48.5008C61.8773 48.2232 61.8773 47.9457 61.8773 47.6681L61.8764 47.6691C62.0636 47.6681 62.2499 47.6681 62.4342 47.6681Z" fill="#2D4D9D"/>
<path d="M63.549 50.171C63.549 50.2626 63.549 50.3541 63.549 50.4486C63.6426 50.4486 63.7333 50.4486 63.8269 50.4486C63.8269 50.5421 63.8269 50.6327 63.8269 50.7262C63.9205 50.7262 64.0113 50.7262 64.1049 50.7262C64.1049 50.8196 64.1049 50.9112 64.1049 51.0037C63.8279 51.0037 63.5509 51.0037 63.2729 51.0037C63.2729 50.7271 63.2729 50.4505 63.2729 50.171C63.3646 50.171 63.4573 50.171 63.549 50.171Z" fill="#2D4D9D"/>
<path d="M61.8783 47.6681C61.694 47.6681 61.5087 47.6681 61.3214 47.6681C61.3214 47.7606 61.3214 47.8522 61.3214 47.9447C61.2278 47.9447 61.1371 47.9447 61.0444 47.9447C61.0444 47.7616 61.0444 47.5775 61.0444 47.3915C61.3205 47.3915 61.5975 47.3915 61.8773 47.3915C61.8773 47.484 61.8773 47.5765 61.8783 47.6681Z" fill="#2D4D9D"/>
<path d="M66.8892 48.2232C66.7965 48.2232 66.7058 48.2232 66.6132 48.2232C66.6132 48.0382 66.6132 47.8551 66.6132 47.6691C66.5195 47.6691 66.4288 47.6691 66.3352 47.6691C66.3352 47.5756 66.3352 47.484 66.3352 47.3915C66.5195 47.3915 66.7039 47.3915 66.8892 47.3915C66.8892 47.6681 66.8892 47.9447 66.8892 48.2232Z" fill="#2D4D9D"/>
<path d="M62.4353 47.6681C62.4353 47.5765 62.4353 47.485 62.4353 47.3915C62.6206 47.3915 62.8049 47.3915 62.9902 47.3915C62.9902 47.483 62.9902 47.5736 62.9902 47.6681C62.8049 47.6681 62.6196 47.6681 62.4353 47.6681Z" fill="#2D4D9D"/>
<path d="M66.3342 48.7812C66.3342 48.6897 66.3342 48.5981 66.3342 48.5046C66.4269 48.5046 66.5176 48.5046 66.6112 48.5046C66.6112 48.5952 66.6112 48.6868 66.6112 48.7812C66.5186 48.7803 66.4259 48.7803 66.3342 48.7812Z" fill="#2D4D9D"/>
<path d="M66.6133 49.0598C66.705 49.0598 66.7967 49.0598 66.8893 49.0598C66.8893 49.1513 66.8893 49.2429 66.8893 49.3354C66.7976 49.3354 66.7069 49.3354 66.6133 49.3354C66.6133 49.2438 66.6133 49.1532 66.6133 49.0598Z" fill="#2D4D9D"/>
<path d="M64.3848 47.112C64.3848 47.0204 64.3848 46.9289 64.3848 46.8354C64.4774 46.8354 64.5681 46.8354 64.6618 46.8354C64.6618 46.926 64.6618 47.0175 64.6618 47.112C64.5691 47.112 64.4765 47.112 64.3848 47.112Z" fill="#2D4D9D"/>
<path d="M63.549 49.6149C63.4573 49.6149 63.3656 49.6149 63.272 49.6149C63.272 49.5224 63.272 49.4318 63.272 49.3374C63.3646 49.3374 63.4563 49.3374 63.549 49.3374L63.548 49.3364C63.549 49.4289 63.549 49.5224 63.549 49.6149Z" fill="#2D4D9D"/>
<path d="M66.3342 49.8934C66.3342 49.8019 66.3342 49.7103 66.3342 49.6168C66.4269 49.6168 66.5176 49.6168 66.6112 49.6168C66.6112 49.7074 66.6112 49.799 66.6112 49.8934C66.5186 49.8925 66.4259 49.8925 66.3342 49.8934Z" fill="#2D4D9D"/>
<path d="M66.0554 47.9466C66.1471 47.9466 66.2388 47.9466 66.3324 47.9466C66.3324 48.0391 66.3324 48.1297 66.3324 48.2242C66.2398 48.2242 66.1481 48.2242 66.0554 48.2242L66.0564 48.2251C66.0554 48.1316 66.0554 48.0391 66.0554 47.9466Z" fill="#2D4D9D"/>
<path d="M64.6618 50.7262C64.5691 50.7262 64.4784 50.7262 64.3857 50.7262C64.3857 50.6346 64.3857 50.544 64.3857 50.4506C64.4765 50.4506 64.5681 50.4506 64.6618 50.4506C64.6618 50.5421 64.6618 50.6327 64.6618 50.7262Z" fill="#2D4D9D"/>
<path d="M65.2196 50.7272C65.2196 50.8187 65.2196 50.9103 65.2196 51.0038C65.127 51.0038 65.0362 51.0038 64.9426 51.0038C64.9426 50.9132 64.9426 50.8216 64.9426 50.7272C65.0353 50.7272 65.1279 50.7272 65.2196 50.7272Z" fill="#2D4D9D"/>
<path d="M66.8893 51.0047C66.7967 51.0047 66.7059 51.0047 66.6143 51.0047C66.6143 50.9132 66.6143 50.8226 66.6143 50.7291C66.705 50.7291 66.7967 50.7291 66.8893 50.7291C66.8893 50.8197 66.8893 50.9112 66.8893 51.0047Z" fill="#2D4D9D"/>
<path d="M66.3335 50.17V49.8924H66.0565V49.3354H66.3335V48.7802H66.0545V48.2241H65.7785V47.9456H66.0545V47.6671H65.7756V47.3895H64.3839V47.1129H64.105V46.5578H63.827V47.111H63.5491V47.0811C63.5491 46.8132 63.5491 46.5462 63.5491 46.2783H63.2701V48.5036H62.4363V48.7802H63.2711V49.0588H63.5491C63.5491 49.0588 63.5491 49.0588 63.5491 49.0578C63.5491 49.0578 63.5491 49.0578 63.55 49.0578C63.55 49.0578 63.55 49.0578 63.55 49.0588C63.55 49.0588 63.55 49.0588 63.5491 49.0588C63.5491 49.1513 63.5491 49.2438 63.55 49.3363H63.827V49.6149H63.55V50.17H64.1079V49.8934H65.4977V50.171H64.9437V50.4486H65.2216V50.7252H65.7795V51.0027H66.0574V50.4466H66.8913V50.1691H66.3335V50.17ZM65.2207 47.669H65.4957V47.9446H65.2207V47.669ZM63.8627 48.5017V47.8068H64.5586V48.5017H63.8627ZM64.6619 49.6139H64.3868V49.3392H64.6619V49.6139ZM64.6638 48.5027C64.6628 48.5027 64.6628 48.5027 64.6638 48.5027C64.6628 48.5027 64.6628 48.5027 64.6638 48.5027C64.6628 48.5017 64.6628 48.5017 64.6638 48.5027ZM65.7756 49.613H65.2207V49.3363C65.2207 49.3363 65.2207 49.3363 65.2197 49.3363C65.2197 49.3363 65.2197 49.3363 65.2197 49.3354H64.9437V49.0588H65.2197V49.3354C65.2197 49.3354 65.2197 49.3354 65.2207 49.3354C65.2207 49.3354 65.2207 49.3354 65.2207 49.3363H65.7756V49.613ZM65.7756 48.7793H65.4986V48.5027C65.4986 48.5027 65.4986 48.5027 65.4977 48.5027C65.4977 48.5027 65.4977 48.5027 65.4977 48.5017C65.4977 48.5017 65.4977 48.5017 65.4986 48.5017C65.4986 48.5017 65.4986 48.5017 65.4986 48.5027H65.7756V48.7793Z" fill="#2D4D9D"/>
<path d="M64.6642 48.5018C64.6624 48.5036 64.6624 48.5036 64.6642 48.5018C64.6624 48.5018 64.6624 48.5018 64.6642 48.5018Z" fill="#2D4D9D"/>
<path d="M62.4332 46.5549C62.1553 46.5549 61.8783 46.5549 61.6003 46.5549C61.6003 46.2773 61.6003 46.0017 61.6003 45.7231C61.8773 45.7231 62.1543 45.7231 62.4332 45.7231C62.4332 45.9997 62.4332 46.2763 62.4332 46.5549Z" fill="#2D4D9D"/>
<path d="M65.4995 46.5539C65.4995 46.2763 65.4995 45.9997 65.4995 45.7222C65.7775 45.7222 66.0535 45.7222 66.3324 45.7222C66.3324 45.9988 66.3324 46.2754 66.3324 46.5539C66.0554 46.5539 65.7784 46.5539 65.4995 46.5539Z" fill="#2D4D9D"/>
<path d="M61.6003 50.4476C61.6003 50.1701 61.6003 49.8935 61.6003 49.6159C61.8783 49.6159 62.1543 49.6159 62.4332 49.6159C62.4332 49.8925 62.4332 50.1691 62.4332 50.4476C62.1563 50.4476 61.8793 50.4476 61.6003 50.4476Z" fill="#2D4D9D"/>
<path d="M82.2645 36.1672H63.1762C62.5363 36.1672 62.0181 35.6496 62.0181 35.0106V20.8304C62.0181 20.1914 62.5363 19.6738 63.1762 19.6738H82.2655C82.9053 19.6738 83.4236 20.1914 83.4236 20.8304V35.0106C83.4227 35.6496 82.9044 36.1672 82.2645 36.1672Z" fill="#E9EEF8"/>
<path d="M78.7957 33.7143H67.5916C67.0588 33.7143 66.6265 33.2825 66.6265 32.7505V26.4386C66.6265 25.9066 67.0588 25.4749 67.5916 25.4749H78.7948C79.3275 25.4749 79.7599 25.9066 79.7599 26.4386V32.7505C79.7609 33.2825 79.3285 33.7143 78.7957 33.7143Z" fill="#92B2DD"/>
<path d="M81.0871 25.9799H65.343L66.0466 24.6923L67.502 22.0284H78.9281L80.3836 24.6923L81.0871 25.9799Z" fill="white"/>
<path d="M68.4922 25.9799C68.4922 26.8329 67.7867 27.5249 66.9171 27.5249C66.0476 27.5249 65.343 26.8329 65.343 25.9799H68.4922Z" fill="#E9EEF8"/>
<path d="M71.6404 25.9799C71.6404 26.8329 70.9359 27.5249 70.0663 27.5249C69.1967 27.5249 68.4922 26.8329 68.4922 25.9799H71.6404Z" fill="#2D4D9D"/>
<path d="M74.7896 25.9799C74.7896 26.8329 74.0851 27.5249 73.2145 27.5249C72.3449 27.5249 71.6404 26.8329 71.6404 25.9799H74.7896Z" fill="#E9EEF8"/>
<path d="M77.9378 25.9799C77.9378 26.8329 77.2333 27.5249 76.3637 27.5249C75.4941 27.5249 74.7896 26.8329 74.7896 25.9799H77.9378Z" fill="#2D4D9D"/>
<path d="M81.087 25.9799C81.087 26.8329 80.3824 27.5249 79.5128 27.5249C78.6433 27.5249 77.9377 26.8329 77.9377 25.9799H81.087Z" fill="#E9EEF8"/>
<path d="M68.4922 25.9799L69.8472 22.0284H71.8885L71.6404 25.9799H68.4922Z" fill="#92B2DD"/>
<path d="M77.9378 25.9799L76.5827 22.0284H74.5405L74.7895 25.9799H77.9378Z" fill="#92B2DD"/>
<path d="M70.9648 29.2269H69.576C69.2025 29.2269 68.9004 29.5286 68.9004 29.9016V33.7143H71.6404V29.9016C71.6404 29.5296 71.3383 29.2269 70.9648 29.2269Z" fill="#2D4D9D"/>
<path d="M77.9378 31.8754H73.1373C72.924 31.8754 72.7512 31.7029 72.7512 31.4899V28.8404C72.7512 28.6274 72.924 28.4549 73.1373 28.4549H77.9378C78.1511 28.4549 78.3239 28.6274 78.3239 28.8404V31.4899C78.3239 31.7029 78.1511 31.8754 77.9378 31.8754Z" fill="#2D4D9D"/>
<path d="M77.6857 31.5602H73.3909C73.1776 31.5602 73.0049 31.3877 73.0049 31.1747V29.1556C73.0049 28.9426 73.1776 28.7701 73.3909 28.7701H77.6857C77.899 28.7701 78.0718 28.9426 78.0718 29.1556V31.1747C78.0718 31.3877 77.8981 31.5602 77.6857 31.5602Z" fill="#92B2DD"/>
<path d="M71.7149 16.3632C73.5346 16.3632 75.0098 14.8909 75.0098 13.0748C75.0098 11.2586 73.5346 9.78632 71.7149 9.78632C69.8951 9.78632 68.4199 11.2586 68.4199 13.0748C68.4199 14.8909 69.8951 16.3632 71.7149 16.3632Z" fill="#FFD38E"/>
<path d="M71.7147 15.6356C73.1315 15.6356 74.28 14.489 74.28 13.0748C74.28 11.6605 73.1315 10.514 71.7147 10.514C70.2979 10.514 69.1494 11.6605 69.1494 13.0748C69.1494 14.489 70.2979 15.6356 71.7147 15.6356Z" fill="#F69782"/>
<path d="M71.519 14.3267C71.3829 14.3084 71.2555 14.2708 71.1368 14.2159C71.0181 14.16 70.9167 14.0916 70.8328 14.0096L70.965 13.813C70.9766 13.7957 70.992 13.7812 71.0113 13.7706C71.0306 13.76 71.0509 13.7542 71.0712 13.7542C71.0962 13.7542 71.1242 13.7629 71.1532 13.7812C71.1821 13.7995 71.215 13.8207 71.2526 13.8448C71.2893 13.8689 71.3317 13.893 71.38 13.9181C71.4273 13.9422 71.4842 13.9605 71.5489 13.9721L71.6155 13.1943C71.5334 13.1711 71.4514 13.1442 71.3713 13.1124C71.2902 13.0805 71.2179 13.0391 71.1542 12.988C71.0895 12.936 71.0374 12.8714 70.9988 12.7924C70.9592 12.7133 70.9399 12.615 70.9399 12.4965C70.9399 12.4078 70.9573 12.322 70.993 12.2372C71.0287 12.1534 71.0798 12.0772 71.1474 12.0117C71.215 11.9452 71.298 11.8912 71.3964 11.8479C71.4948 11.8045 71.6078 11.7833 71.7361 11.7833L71.7554 11.5626C71.7574 11.5346 71.7689 11.5096 71.7902 11.4874C71.8114 11.4652 71.8384 11.4537 71.8722 11.4537H72.0305L72.0006 11.7949C72.1231 11.8141 72.2293 11.8488 72.3191 11.8989C72.4088 11.9491 72.486 12.005 72.5526 12.0676L72.4484 12.2257C72.432 12.2488 72.4156 12.2661 72.4001 12.2777C72.3837 12.2893 72.3644 12.2951 72.3413 12.2951C72.3239 12.2951 72.3036 12.2893 72.2795 12.2787C72.2554 12.2681 72.2283 12.2546 72.1975 12.2392C72.1666 12.2237 72.1328 12.2074 72.0951 12.191C72.0585 12.1746 72.017 12.1611 71.9716 12.1515L71.9108 12.8704C71.9948 12.8955 72.0768 12.9244 72.1588 12.9543C72.2409 12.9851 72.3142 13.0246 72.3799 13.0728C72.4455 13.121 72.4986 13.1817 72.5391 13.254C72.5796 13.3263 72.5999 13.4169 72.5999 13.5258C72.5999 13.6338 72.5816 13.735 72.5459 13.8284C72.5102 13.9229 72.4571 14.0058 72.3885 14.079C72.3191 14.1513 72.2341 14.2101 72.1338 14.2554C72.0324 14.3007 71.9176 14.3277 71.7873 14.3373L71.766 14.5927C71.7641 14.6197 71.7525 14.6438 71.7313 14.6669C71.7101 14.6891 71.683 14.7007 71.6493 14.7007H71.491L71.519 14.3267ZM71.3433 12.4541C71.3433 12.4984 71.351 12.537 71.3655 12.5707C71.381 12.6044 71.4022 12.6343 71.4292 12.6603C71.4562 12.6864 71.489 12.7095 71.5257 12.7297C71.5624 12.75 71.6039 12.7683 71.6473 12.7847L71.7014 12.1418C71.6377 12.1495 71.5827 12.164 71.5383 12.1823C71.4929 12.2016 71.4562 12.2247 71.4273 12.2527C71.3983 12.2806 71.3771 12.3114 71.3636 12.3452C71.3501 12.3799 71.3433 12.4155 71.3433 12.4541ZM72.1888 13.5904C72.1888 13.5461 72.181 13.5075 72.1656 13.4747C72.1502 13.442 72.128 13.4121 72.1 13.387C72.072 13.362 72.0382 13.3398 71.9996 13.3215C71.961 13.3032 71.9195 13.2858 71.8741 13.2714L71.8153 13.9769C71.9378 13.9605 72.0314 13.919 72.0942 13.8525C72.1569 13.7851 72.1888 13.6983 72.1888 13.5904Z" fill="#FFD38E"/>
<path d="M59.0706 62.3032C60.8903 62.3032 62.3655 60.8309 62.3655 59.0147C62.3655 57.1985 60.8903 55.7263 59.0706 55.7263C57.2508 55.7263 55.7756 57.1985 55.7756 59.0147C55.7756 60.8309 57.2508 62.3032 59.0706 62.3032Z" fill="#FFD38E"/>
<path d="M59.0704 61.5755C60.4872 61.5755 61.6357 60.429 61.6357 59.0147C61.6357 57.6004 60.4872 56.4539 59.0704 56.4539C57.6537 56.4539 56.5051 57.6004 56.5051 59.0147C56.5051 60.429 57.6537 61.5755 59.0704 61.5755Z" fill="#F69782"/>
<path d="M58.8747 60.2667C58.7386 60.2484 58.6112 60.2108 58.4925 60.1558C58.3738 60.0999 58.2724 60.0315 58.1885 59.9496L58.3207 59.753C58.3323 59.7356 58.3477 59.7212 58.367 59.7106C58.3863 59.7 58.4066 59.6942 58.4269 59.6942C58.452 59.6942 58.4799 59.7029 58.5089 59.7212C58.5379 59.7395 58.5707 59.7607 58.6083 59.7848C58.645 59.8089 58.6875 59.833 58.7357 59.858C58.783 59.8821 58.8399 59.9004 58.9046 59.912L58.9712 59.1342C58.8892 59.1111 58.8071 59.0841 58.727 59.0523C58.6459 59.0205 58.5736 58.979 58.5099 58.928C58.4452 58.8759 58.3931 58.8113 58.3545 58.7323C58.3149 58.6533 58.2956 58.555 58.2956 58.4364C58.2956 58.3478 58.313 58.262 58.3487 58.1772C58.3844 58.0933 58.4355 58.0172 58.5031 57.9516C58.5707 57.8851 58.6537 57.8312 58.7521 57.7878C58.8506 57.7444 58.9635 57.7232 59.0918 57.7232L59.1111 57.5025C59.1131 57.4746 59.1247 57.4495 59.1459 57.4273C59.1671 57.4052 59.1941 57.3936 59.2279 57.3936H59.3862L59.3563 57.7348C59.4789 57.7541 59.585 57.7897 59.6748 57.8389C59.7645 57.889 59.8417 57.9449 59.9083 58.0075L59.8041 58.1656C59.7877 58.1887 59.7713 58.2061 59.7558 58.2177C59.7394 58.2292 59.7201 58.235 59.697 58.235C59.6796 58.235 59.6593 58.2292 59.6352 58.2186C59.6111 58.208 59.5841 58.1945 59.5532 58.1791C59.5223 58.1637 59.4885 58.1473 59.4518 58.1309C59.4152 58.1145 59.3737 58.101 59.3283 58.0914L59.2675 58.8104C59.3515 58.8354 59.4335 58.8644 59.5155 58.8942C59.5976 58.9251 59.6709 58.9646 59.7365 59.0128C59.8022 59.061 59.8553 59.1217 59.8958 59.194C59.9363 59.2663 59.9566 59.3569 59.9566 59.4658C59.9566 59.5737 59.9383 59.6749 59.9025 59.7684C59.8668 59.8628 59.8137 59.9457 59.7452 60.019C59.6757 60.0913 59.5908 60.15 59.4904 60.1953C59.3891 60.2406 59.2742 60.2676 59.144 60.2773L59.1227 60.5327C59.1208 60.5597 59.1092 60.5838 59.088 60.6069C59.0667 60.6291 59.0397 60.6406 59.0059 60.6406H58.8477L58.8747 60.2667ZM58.699 58.394C58.699 58.4384 58.7068 58.4769 58.7212 58.5106C58.7367 58.5444 58.7579 58.5743 58.7849 58.6003C58.812 58.6263 58.8448 58.6494 58.8814 58.6697C58.9181 58.6899 58.9596 58.7082 59.003 58.7246L59.0571 58.0818C58.9934 58.0895 58.9384 58.1039 58.894 58.1222C58.8486 58.1415 58.812 58.1646 58.783 58.1926C58.754 58.2205 58.7328 58.2514 58.7193 58.2851C58.7048 58.3198 58.699 58.3555 58.699 58.394ZM59.5445 59.5303C59.5445 59.486 59.5368 59.4474 59.5213 59.4147C59.5059 59.3819 59.4837 59.352 59.4557 59.327C59.4277 59.3019 59.3939 59.2797 59.3553 59.2614C59.3167 59.2431 59.2752 59.2258 59.2299 59.2113L59.171 59.9168C59.2936 59.9004 59.3872 59.859 59.4499 59.7925C59.5126 59.725 59.5445 59.6383 59.5445 59.5303Z" fill="#FFD38E"/>
<path d="M20.3516 9.6466C22.1713 9.6466 23.6465 8.17431 23.6465 6.35815C23.6465 4.54199 22.1713 3.0697 20.3516 3.0697C18.5318 3.0697 17.0566 4.54199 17.0566 6.35815C17.0566 8.17431 18.5318 9.6466 20.3516 9.6466Z" fill="#FFD38E"/>
<path d="M20.3514 8.91888C21.7682 8.91888 22.9167 7.77237 22.9167 6.35809C22.9167 4.94381 21.7682 3.7973 20.3514 3.7973C18.9347 3.7973 17.7861 4.94381 17.7861 6.35809C17.7861 7.77237 18.9347 8.91888 20.3514 8.91888Z" fill="#F69782"/>
<path d="M20.1557 7.61012C20.0196 7.5918 19.8922 7.55422 19.7735 7.49928C19.6548 7.44338 19.5534 7.37495 19.4695 7.29303L19.6017 7.09642C19.6133 7.07907 19.6287 7.06461 19.648 7.05401C19.6673 7.04341 19.6876 7.03762 19.7079 7.03762C19.733 7.03762 19.761 7.0463 19.7899 7.06461C19.8189 7.08292 19.8517 7.10413 19.8893 7.12822C19.926 7.15232 19.9685 7.17641 20.0167 7.20147C20.064 7.22556 20.1209 7.24388 20.1856 7.25544L20.2522 6.47766C20.1702 6.45453 20.0881 6.42755 20.008 6.39574C19.927 6.36394 19.8546 6.32249 19.7909 6.27141C19.7262 6.21937 19.6741 6.15479 19.6355 6.07576C19.5959 5.99673 19.5766 5.89843 19.5766 5.77988C19.5766 5.69121 19.594 5.60543 19.6297 5.52062C19.6654 5.43677 19.7166 5.36063 19.7841 5.29509C19.8517 5.22859 19.9347 5.17462 20.0331 5.13125C20.1316 5.08788 20.2445 5.06668 20.3728 5.06668L20.3921 4.84597C20.3941 4.81802 20.4057 4.79296 20.4269 4.77079C20.4481 4.74863 20.4751 4.73706 20.5089 4.73706H20.6672L20.6373 5.07824C20.7599 5.09752 20.866 5.13221 20.9558 5.18233C21.0455 5.23245 21.1227 5.28835 21.1893 5.35099L21.0851 5.50906C21.0687 5.53219 21.0523 5.54953 21.0369 5.5611C21.0204 5.57267 21.0011 5.57845 20.978 5.57845C20.9606 5.57845 20.9403 5.57267 20.9162 5.56206C20.8921 5.55146 20.8651 5.53797 20.8342 5.52255C20.8033 5.50713 20.7695 5.49074 20.7319 5.47436C20.6952 5.45797 20.6537 5.44448 20.6083 5.43484L20.5475 6.15383C20.6315 6.17889 20.7135 6.2078 20.7956 6.23768C20.8776 6.26852 20.951 6.30804 21.0166 6.35623C21.0822 6.40442 21.1353 6.46513 21.1758 6.53742C21.2164 6.6097 21.2366 6.7003 21.2366 6.80921C21.2366 6.91715 21.2183 7.01835 21.1826 7.11184C21.1469 7.20629 21.0938 7.28917 21.0253 7.36242C20.9558 7.43471 20.8708 7.4935 20.7705 7.5388C20.6691 7.58409 20.5543 7.61108 20.424 7.62072L20.4028 7.87612C20.4008 7.90311 20.3892 7.9272 20.368 7.95033C20.3468 7.97346 20.3198 7.98407 20.286 7.98407H20.1277L20.1557 7.61012ZM19.98 5.73747C19.98 5.78181 19.9878 5.82036 20.0022 5.85409C20.0177 5.88782 20.0389 5.9177 20.0659 5.94372C20.093 5.96975 20.1258 5.99288 20.1624 6.01312C20.1991 6.03336 20.2406 6.05167 20.2841 6.06805L20.3381 5.42521C20.2744 5.43292 20.2194 5.44737 20.174 5.46568C20.1287 5.48496 20.092 5.50809 20.063 5.53604C20.0341 5.56399 20.0128 5.59483 19.9993 5.62857C19.9868 5.66326 19.98 5.69892 19.98 5.73747ZM20.8255 6.87378C20.8255 6.82945 20.8178 6.7909 20.8023 6.75813C20.7869 6.72536 20.7647 6.69548 20.7357 6.67042C20.7077 6.64536 20.674 6.6232 20.6354 6.60488C20.5968 6.58657 20.5553 6.56922 20.5099 6.55477L20.451 7.26026C20.5736 7.24388 20.6672 7.20243 20.7299 7.13593C20.7936 7.06847 20.8255 6.98173 20.8255 6.87378Z" fill="#FFD38E"/>
<path d="M8.67842 25.2494C10.3649 25.2494 11.7321 23.8849 11.7321 22.2019C11.7321 20.5188 10.3649 19.1544 8.67842 19.1544C6.99193 19.1544 5.62476 20.5188 5.62476 22.2019C5.62476 23.8849 6.99193 25.2494 8.67842 25.2494Z" fill="#E9EEF8"/>
<path d="M8.67837 24.5747C9.99174 24.5747 11.0564 23.5124 11.0564 22.2019C11.0564 20.8914 9.99174 19.829 8.67837 19.829C7.36499 19.829 6.30029 20.8914 6.30029 22.2019C6.30029 23.5124 7.36499 24.5747 8.67837 24.5747Z" fill="#92B2DD"/>
<path d="M8.4971 23.3623C8.37164 23.3449 8.25293 23.3112 8.1429 23.2592C8.03288 23.2081 7.93926 23.1435 7.86108 23.0674L7.98366 22.8852C7.99427 22.8688 8.00875 22.8563 8.02612 22.8457C8.04349 22.8351 8.0628 22.8303 8.0821 22.8303C8.10526 22.8303 8.13132 22.839 8.15834 22.8553C8.18537 22.8717 8.21625 22.892 8.25003 22.9141C8.28478 22.9363 8.32338 22.9594 8.36778 22.9816C8.41217 23.0038 8.46429 23.0211 8.52413 23.0317L8.58589 22.3108C8.50965 22.2896 8.43437 22.2636 8.35909 22.2347C8.28478 22.2057 8.21722 22.1672 8.15738 22.119C8.09754 22.0708 8.04928 22.0101 8.01261 21.9368C7.97593 21.8636 7.9576 21.772 7.9576 21.6622C7.9576 21.5802 7.974 21.5002 8.00682 21.4222C8.03963 21.3441 8.08692 21.2747 8.14966 21.213C8.21239 21.1514 8.28864 21.1012 8.38032 21.0608C8.47201 21.0212 8.57624 21.001 8.69495 21.001L8.71233 20.7957C8.71426 20.7697 8.72487 20.7466 8.74418 20.7254C8.76348 20.7051 8.78857 20.6945 8.82042 20.6945H8.96712L8.9401 21.0106C9.05398 21.029 9.15242 21.0608 9.23543 21.107C9.31843 21.1533 9.38985 21.2053 9.45161 21.2632L9.3551 21.4097C9.33966 21.4309 9.32518 21.4472 9.30974 21.4578C9.2943 21.4684 9.27596 21.4742 9.25473 21.4742C9.23832 21.4742 9.21998 21.4694 9.19779 21.4588C9.17559 21.4482 9.15049 21.4366 9.12154 21.4222C9.09259 21.4077 9.0617 21.3933 9.02696 21.3778C8.99221 21.3624 8.95457 21.3509 8.91211 21.3412L8.85613 22.0082C8.93334 22.0313 9.01055 22.0583 9.08583 22.0862C9.16208 22.1151 9.22963 22.1518 9.29044 22.1961C9.35124 22.2414 9.40046 22.2973 9.4381 22.3648C9.47574 22.4322 9.49504 22.5161 9.49504 22.6163C9.49504 22.7166 9.47864 22.81 9.44486 22.8968C9.41108 22.9845 9.36282 23.0616 9.29912 23.1291C9.23542 23.1965 9.15628 23.2505 9.06267 23.2929C8.96905 23.3343 8.86192 23.3604 8.74128 23.3681L8.72198 23.6042C8.72005 23.6293 8.70943 23.6514 8.69013 23.6726C8.67083 23.6938 8.64573 23.7044 8.61388 23.7044H8.46718L8.4971 23.3623ZM8.334 21.6265C8.334 21.667 8.34075 21.7036 8.35523 21.7344C8.36874 21.7653 8.38901 21.7932 8.4141 21.8173C8.4392 21.8414 8.46911 21.8626 8.50386 21.8819C8.5386 21.9002 8.57624 21.9176 8.61678 21.933L8.66697 21.3374C8.60809 21.3451 8.55694 21.3576 8.51544 21.375C8.47394 21.3923 8.4392 21.4145 8.41217 21.4405C8.38515 21.4665 8.36585 21.4954 8.3533 21.5263C8.34075 21.5571 8.334 21.5908 8.334 21.6265ZM9.11768 22.6799C9.11768 22.6395 9.10996 22.6038 9.09548 22.573C9.081 22.5421 9.06074 22.5151 9.03468 22.492C9.00862 22.4689 8.97774 22.4477 8.94203 22.4313C8.90632 22.4139 8.86771 22.3985 8.82621 22.385L8.7712 23.0385C8.88508 23.023 8.97098 22.9855 9.02985 22.9238C9.08873 22.8602 9.11768 22.7792 9.11768 22.6799Z" fill="#E9EEF8"/>
<path d="M64.8903 69.9393V71.7021C64.8903 71.7869 64.8276 71.8553 64.7504 71.8553H52.6844C52.6072 71.8553 52.5444 71.7869 52.5444 71.7021V69.9393C52.5444 69.8555 52.6072 69.7861 52.6844 69.7861H64.7504C64.8276 69.7861 64.8903 69.8555 64.8903 69.9393Z" fill="#FFD38E"/>
<path d="M56.2187 69.7861H55.8452V71.8544H56.2187V69.7861Z" fill="#F69782"/>
<path d="M54.0569 69.7861H53.6833V71.8544H54.0569V69.7861Z" fill="#F69782"/>
<path d="M58.7387 69.7861H58.3652V71.8544H58.7387V69.7861Z" fill="#F69782"/>
<path d="M61.2575 69.7861H60.884V71.8544H61.2575V69.7861Z" fill="#F69782"/>
<path d="M63.7776 69.7861H63.4041V71.8544H63.7776V69.7861Z" fill="#F69782"/>
<path d="M64.8903 71.7281V73.4908C64.8903 73.5757 64.8276 73.6441 64.7504 73.6441H52.6844C52.6072 73.6441 52.5444 73.5757 52.5444 73.4908V71.7281C52.5444 71.6442 52.6072 71.5748 52.6844 71.5748H64.7504C64.8276 71.5748 64.8903 71.6442 64.8903 71.7281Z" fill="#F69782"/>
<path d="M55.1455 71.5748H54.772V73.6431H55.1455V71.5748Z" fill="#D65F48"/>
<path d="M57.6652 71.5748H57.2917V73.6431H57.6652V71.5748Z" fill="#D65F48"/>
<path d="M60.1845 71.5748H59.811V73.6431H60.1845V71.5748Z" fill="#D65F48"/>
<path d="M62.7043 71.5748H62.3308V73.6431H62.7043V71.5748Z" fill="#D65F48"/>
<path d="M64.8903 62.2675V64.0303C64.8903 64.1151 64.8276 64.1835 64.7504 64.1835H52.6844C52.6072 64.1835 52.5444 64.1151 52.5444 64.0303V62.2675C52.5444 62.1837 52.6072 62.1143 52.6844 62.1143H64.7504C64.8276 62.1143 64.8903 62.1837 64.8903 62.2675Z" fill="#FFD38E"/>
<path d="M56.2187 62.1143H55.8452V64.1826H56.2187V62.1143Z" fill="#F69782"/>
<path d="M54.0569 62.1143H53.6833V64.1826H54.0569V62.1143Z" fill="#F69782"/>
<path d="M58.7387 62.1143H58.3652V64.1826H58.7387V62.1143Z" fill="#F69782"/>
<path d="M61.2575 62.1143H60.884V64.1826H61.2575V62.1143Z" fill="#F69782"/>
<path d="M63.7776 62.1143H63.4041V64.1826H63.7776V62.1143Z" fill="#F69782"/>
<path d="M64.8903 64.0563V65.819C64.8903 65.9038 64.8276 65.9723 64.7504 65.9723H52.6844C52.6072 65.9723 52.5444 65.9038 52.5444 65.819V64.0563C52.5444 63.9724 52.6072 63.903 52.6844 63.903H64.7504C64.8276 63.903 64.8903 63.9724 64.8903 64.0563Z" fill="#F69782"/>
<path d="M55.1455 63.903H54.772V65.9713H55.1455V63.903Z" fill="#D65F48"/>
<path d="M57.6652 63.903H57.2917V65.9713H57.6652V63.903Z" fill="#D65F48"/>
<path d="M60.1845 63.903H59.811V65.9713H60.1845V63.903Z" fill="#D65F48"/>
<path d="M62.7043 63.903H62.3308V65.9713H62.7043V63.903Z" fill="#D65F48"/>
<path d="M64.8903 66.0822V67.845C64.8903 67.9298 64.8276 67.9982 64.7504 67.9982H52.6844C52.6072 67.9982 52.5444 67.9298 52.5444 67.845V66.0822C52.5444 65.9984 52.6072 65.929 52.6844 65.929H64.7504C64.8276 65.929 64.8903 65.9984 64.8903 66.0822Z" fill="#FFD38E"/>
<path d="M56.2187 65.929H55.8452V67.9972H56.2187V65.929Z" fill="#F69782"/>
<path d="M54.0569 65.929H53.6833V67.9972H54.0569V65.929Z" fill="#F69782"/>
<path d="M58.7387 65.929H58.3652V67.9972H58.7387V65.929Z" fill="#F69782"/>
<path d="M61.2575 65.929H60.884V67.9972H61.2575V65.929Z" fill="#F69782"/>
<path d="M63.7776 65.929H63.4041V67.9972H63.7776V65.929Z" fill="#F69782"/>
<path d="M64.8903 67.871V69.6338C64.8903 69.7186 64.8276 69.787 64.7504 69.787H52.6844C52.6072 69.787 52.5444 69.7186 52.5444 69.6338V67.871C52.5444 67.7872 52.6072 67.7178 52.6844 67.7178H64.7504C64.8276 67.7178 64.8903 67.7872 64.8903 67.871Z" fill="#F69782"/>
<path d="M55.1455 67.7178H54.772V69.7861H55.1455V67.7178Z" fill="#D65F48"/>
<path d="M57.6652 67.7178H57.2917V69.7861H57.6652V67.7178Z" fill="#D65F48"/>
<path d="M60.1845 67.7178H59.811V69.7861H60.1845V67.7178Z" fill="#D65F48"/>
<path d="M62.7043 67.7178H62.3308V69.7861H62.7043V67.7178Z" fill="#D65F48"/>
<path d="M74.4925 53.2811C74.4925 53.2811 73.5235 53.789 72.7987 54.7442C72.0739 55.6993 71.1175 60.3072 70.8868 60.5047C70.6562 60.7023 69.0357 58.7362 69.0357 58.7362L67.228 60.0604C67.228 60.0604 70.0751 63.7354 70.8598 63.7662C71.6444 63.797 73.3913 62.0381 73.3913 62.0381L74.4925 53.2811Z" fill="#F69782"/>
<path d="M52.7299 73.0061C52.7299 73.0061 52.2521 73.2528 52.3178 73.566C52.3834 73.8783 52.1855 74.2079 51.9221 74.3563C51.6586 74.5048 49.6646 74.2079 48.906 74.3563C48.1474 74.5048 45.6101 74.817 45.2636 74.5212C44.9172 74.2253 45.2472 73.8706 45.4287 73.8253C45.6101 73.78 46.3678 73.7472 46.6322 73.5824C46.8957 73.4176 48.3424 72.875 48.9215 72.7757C49.4996 72.6774 50.6037 72.4133 50.9338 72.1175C51.2638 71.8216 51.6258 71.3965 51.6258 71.3965L52.7299 73.0061Z" fill="#762837"/>
<path d="M52.89 74.3621C52.89 74.3621 52.4123 74.6088 52.4779 74.9221C52.5436 75.2343 52.3457 75.5639 52.0822 75.7124C51.8187 75.8608 49.8248 75.5639 49.0662 75.7124C48.3076 75.8608 45.7703 76.1731 45.4238 75.8772C45.0773 75.5813 45.4074 75.2266 45.5888 75.1813C45.7703 75.136 46.5279 75.1032 46.7924 74.9384C47.0558 74.7736 48.5026 74.231 49.0816 74.1317C49.6598 74.0334 50.7639 73.7694 51.0939 73.4735C51.424 73.1776 51.7859 72.7526 51.7859 72.7526L52.89 74.3621Z" fill="#C43F52"/>
<path d="M72.1685 64.4649C72.1685 64.4649 66.5602 61.8203 66.1355 62.0507C65.7118 62.281 51.3073 70.8057 51.2745 71.3657C51.2417 71.9256 52.1972 73.1101 52.5272 73.1101C52.8573 73.1101 56.9774 71.7936 60.9325 68.9957C64.8876 66.1978 65.2177 66.0995 65.4155 66.3954C65.6134 66.6913 67.1952 70.132 70.1292 71.012C73.0632 71.8919 78.5673 71.0033 78.5673 71.0033C78.5673 71.0033 73.3933 64.6211 72.1685 64.4649Z" fill="#23375C"/>
<path d="M78.5671 71.0043C78.5671 71.0043 74.9083 74.3949 71.6124 73.275C68.3165 72.156 65.3169 67.3833 65.0206 67.3168C64.7243 67.2513 63.2409 69.094 59.3843 71.3985C55.5276 73.7029 52.9893 74.4267 52.8909 74.3611C52.7925 74.2956 51.6054 72.8798 51.8032 72.6167C52.0011 72.3536 65.1191 61.1293 66.2734 61.7876C67.4267 62.4458 73.1866 65.502 73.1866 65.502C73.1866 65.502 79.4242 68.8647 78.5671 71.0043Z" fill="#2D4D9D"/>
<path d="M74.4056 43.5199C74.4056 43.5199 73.0708 43.9151 72.7002 45.0013C72.3296 46.0874 72.4425 47.6921 72.1144 48.2348C71.7862 48.7774 72.3045 50.4071 72.8981 51.1232C73.4916 51.8393 74.4056 52.1603 74.4056 52.8513C74.4056 53.5423 75.1719 54.5543 76.4826 54.11C77.7932 53.6657 80.3884 55.0892 79.82 56.9079C79.2515 58.7266 79.7456 59.9612 81.0804 59.9111C82.4152 59.8619 83.6023 60.2571 84.1457 58.4548C84.69 56.6525 83.4044 56.3315 84.1457 55.2704C84.8869 54.2093 85.9302 52.3819 84.2837 51.6167C82.6372 50.8514 82.4152 51.2215 83.0821 49.7653C83.75 48.309 82.6169 46.8768 81.5273 46.4575C80.4367 46.0383 79.9184 46.1857 79.6704 45.0253C79.4223 43.8649 77.2971 42.9021 76.4073 42.9272C75.5184 42.9522 74.4056 43.5199 74.4056 43.5199Z" fill="#0E213F"/>
<path d="M66.3468 55.6087L68.6129 55.2704L69.3715 59.5988L67.2289 60.0595L66.1451 55.9152C66.1074 55.7735 66.201 55.6299 66.3468 55.6087Z" fill="#0E213F"/>
<path d="M81.2369 58.6282C80.9406 59.221 80.5111 59.4186 80.2804 59.7144C80.2804 59.7144 80.2795 59.7164 80.2775 59.7183C80.0546 60.0441 80.6095 64.0043 80.4783 66.5275C80.347 69.0622 78.9949 70.8394 78.5673 71.0043C78.1388 71.1691 77.3146 68.8319 75.6999 67.5809C74.0843 66.3299 72.3702 64.783 72.3702 64.783C72.1048 64.5478 72.0913 64.1777 72.1685 63.7652C72.2438 63.3624 72.404 62.9181 72.5015 62.5123C72.6646 61.8348 72.4696 60.3081 72.267 59.1101C72.2235 58.8538 72.1791 58.6119 72.1386 58.3969C71.9079 57.1797 73.2919 54.908 73.5892 54.1187C73.8855 53.3284 75.0398 53.098 75.0398 53.098C75.0398 53.098 75.0398 53.3284 75.172 53.7891C75.3042 54.2498 76.1275 54.1515 76.4904 53.6908C76.8532 53.2301 78.105 52.2422 78.4013 52.2422C78.6976 52.2422 80.8411 52.4398 81.4666 53.4267C82.0939 54.4155 81.5331 58.0355 81.2369 58.6282Z" fill="#FFD38E"/>
<path d="M80.2803 59.7145C80.2803 59.7145 80.2794 59.7164 80.2775 59.7183C80.2138 59.7974 79.1724 61.0802 77.495 62.0844C75.7645 63.1215 72.1685 63.7653 72.1685 63.7653C72.2437 63.3624 72.4039 62.9181 72.5014 62.5123C72.6645 61.8348 72.4696 60.3082 72.2669 59.1102L80.2803 59.7145Z" fill="#F69782"/>
<path d="M79.2873 54.3124C79.2873 54.3124 78.4302 55.5808 76.9333 56.3566C75.4364 57.1325 72.4532 56.6265 72.4532 56.6265L72.3152 57.0236C72.3152 57.0236 72.8943 58.4963 75.7144 57.7387C78.5335 56.9821 80.2717 55.494 79.2873 54.3124Z" fill="#F69782"/>
<path d="M80.1906 53.8373C79.7138 53.8305 79.2921 54.1438 79.1492 54.5977C78.8867 55.4362 78.3221 56.8212 77.413 57.0476C76.0946 57.3773 70.5905 56.6853 70.2932 57.2452C69.997 57.8052 69.6669 59.4504 70.1282 59.648C70.5895 59.8455 75.8302 60.8324 77.8077 60.6021C79.7852 60.3718 80.2794 59.7135 80.2794 59.7135C80.2794 59.7135 83.1448 53.8816 80.1906 53.8373Z" fill="#FFD38E"/>
<path d="M69.111 56.9638C68.8244 56.907 68.475 56.9214 68.2656 56.9118C68.2019 56.9089 67.3979 56.8819 67.5243 57.0486C67.7386 57.3281 67.8023 57.6086 67.507 57.6086C67.2116 57.6086 66.6181 57.3455 66.5361 57.6086C66.454 57.8717 66.6847 58.8596 66.8825 58.9579C67.0804 59.0562 68.2829 59.0398 68.7452 58.8095C69.2065 58.5791 70.0636 58.9415 70.0636 58.9415C70.0636 58.9415 70.6243 57.7898 70.4921 57.6086C70.3908 57.4698 70.1466 57.4419 69.9922 57.4149C69.7432 57.3705 69.6785 57.3734 69.5193 57.1681C69.4334 57.0583 69.2838 56.9975 69.111 56.9638Z" fill="#C43F52"/>
<path d="M73.6064 46.8112C73.6064 46.8112 73.0621 48.095 73.2937 48.6048C73.5244 49.1146 73.6894 49.3623 73.5244 49.7074C73.3593 50.0534 73.6228 50.5141 73.8043 50.9584C73.9857 51.4027 74.4963 52.1429 74.6777 52.1766C74.8592 52.2094 75.2385 52.1766 75.2385 52.1766C75.2385 52.1766 75.4199 52.8185 75.0406 53.098C74.6613 53.3775 74.3486 54.5302 74.892 54.7769C75.4363 55.0236 76.6224 55.0005 77.1494 54.3124C77.6764 53.6242 78.294 52.2672 78.294 52.2672C78.294 52.2672 78.0894 52.192 77.8916 51.7477C77.6937 51.3034 77.826 50.9526 77.908 50.8649C77.99 50.7772 78.1531 50.5131 78.294 50.1845C78.4349 49.8548 78.1859 49.2795 78.294 49.1966C78.4021 49.1146 78.7814 48.7523 78.8799 48.308C78.9783 47.8636 78.5672 47.1726 78.2535 47.3037C77.9408 47.4357 77.9234 47.5668 77.825 47.534C77.7265 47.5013 76.523 47.7808 75.7818 47.4685C75.0406 47.1562 74.1498 46.3987 74.3312 46.5799C74.5127 46.7611 75.1554 47.2381 75.056 47.2545C74.9576 47.2719 73.9847 47.108 73.6064 46.8112Z" fill="#C43F52"/>
<path d="M75.2375 52.1767C75.2375 52.1767 76.0492 52.1111 76.5559 51.8393C77.0626 51.5676 77.5818 50.9999 77.5818 50.9999C77.5818 50.9999 75.7645 53.4402 75.5667 53.2812C75.3698 53.1231 75.2375 52.1767 75.2375 52.1767Z" fill="#762837"/>
<path d="M74.3121 50.358C74.2967 50.358 74.2822 50.3512 74.2725 50.3377C74.2658 50.3281 74.1036 50.1112 74.0534 50.0091C73.9975 49.8973 74.1606 49.7739 74.3333 49.6428C74.3797 49.6072 74.4241 49.5734 74.4617 49.5416C74.5466 49.4703 74.3748 49.1667 74.232 48.9846C74.2156 48.9634 74.2185 48.9325 74.2407 48.9152C74.2619 48.8988 74.2928 48.9017 74.3102 48.9238C74.3797 49.0115 74.7146 49.4587 74.5264 49.6168C74.4868 49.6505 74.4414 49.6843 74.3941 49.7209C74.3198 49.7768 74.1239 49.9262 74.1432 49.9647C74.1905 50.0582 74.3517 50.276 74.3536 50.278C74.37 50.3001 74.3652 50.331 74.343 50.3474C74.3324 50.3551 74.3218 50.358 74.3121 50.358Z" fill="#762837"/>
<path d="M74.6219 51.2167C74.3951 51.2167 74.1867 51.0471 74.176 51.0384C74.1548 51.021 74.1519 50.9902 74.1693 50.969C74.1867 50.9478 74.2175 50.9449 74.2388 50.9622C74.2417 50.9642 74.5051 51.1781 74.7223 51.102C74.9588 51.0191 75.2039 50.8283 75.2068 50.8263C75.228 50.809 75.2589 50.8129 75.2763 50.835C75.2927 50.8562 75.2898 50.8871 75.2676 50.9044C75.257 50.9131 75.007 51.1078 74.7551 51.1965C74.7117 51.21 74.6663 51.2167 74.6219 51.2167Z" fill="#762837"/>
<path d="M75.4336 48.8708C75.4336 49.0655 75.3458 49.2226 75.2377 49.2226C75.1296 49.2226 75.0417 49.0655 75.0417 48.8708C75.0417 48.6761 75.1296 48.519 75.2377 48.519C75.3458 48.519 75.4336 48.6761 75.4336 48.8708Z" fill="#0E213F"/>
<path d="M74.0255 48.9557C74.0255 49.1282 73.9541 49.2689 73.8663 49.2689C73.7784 49.2689 73.707 49.1292 73.707 48.9557C73.707 48.7832 73.7784 48.6425 73.8663 48.6425C73.9541 48.6425 74.0255 48.7822 74.0255 48.9557Z" fill="#0E213F"/>
<path d="M75.0871 48.1384C75.1083 48.1201 75.1411 48.0902 75.1701 48.0796C75.2261 48.0593 75.2386 48.0844 75.2743 48.1152C75.3216 48.1557 75.3699 48.1962 75.4172 48.2376C75.4895 48.2993 75.5947 48.1952 75.5224 48.1326C75.4451 48.0671 75.3583 47.9601 75.2618 47.9244C75.1614 47.8868 75.0543 47.9726 74.9829 48.0343C74.9105 48.096 75.0157 48.201 75.0871 48.1384Z" fill="#0E213F"/>
<path d="M73.5351 48.3031C73.5747 48.1933 73.7031 48.1518 73.8063 48.1933C73.8951 48.2289 73.9328 48.0863 73.8459 48.0506C73.6635 47.9764 73.457 48.0853 73.3923 48.2646C73.3595 48.3533 73.5033 48.3928 73.5351 48.3031Z" fill="#0E213F"/>
<path d="M65.3613 73.6422C65.3613 73.6422 73.9625 73.86 73.9625 68.6092C73.9625 63.3585 73.9625 63.3585 73.9625 63.3585H90V69.0555C90 71.5893 87.9434 73.6431 85.406 73.6431H65.3613V73.6422Z" fill="#45BC9A"/>
<path d="M88.1142 69.0208C88.0157 71.5902 85.8992 73.6431 83.303 73.6431H72.3247C72.3247 73.6431 76.4207 72.8663 76.4207 69.8439V69.0237C77.5489 68.7316 78.3818 67.7091 78.3818 66.4908C78.3818 66.0215 78.2583 65.581 78.0412 65.2003H86.5024C86.2853 65.581 86.1617 66.0215 86.1617 66.4908C86.1627 67.7052 86.9917 68.7259 88.1142 69.0208Z" fill="#B0D9AC"/>
<path d="M17.8007 62.6453C17.8586 62.4757 17.6463 61.9109 17.6309 61.8464C17.6154 61.7828 17.9793 61.9437 17.9793 61.9437C17.9793 61.9437 18.1926 61.7037 18.3528 61.4377C18.513 61.1717 19.0921 60.1299 19.0351 59.8398C18.9782 59.5497 18.4705 59.4253 18.3933 59.3829C18.3161 59.3415 18.8923 59.169 19.0264 59.0745C19.1606 58.9801 19.1741 59.0793 18.9299 57.7059C18.6857 56.3325 17.8914 55.0526 17.2805 54.6382C16.6696 54.2237 14.7644 57.8196 14.7693 58.2119C14.775 58.6042 15.3464 58.7815 15.3464 58.7815C15.3464 58.7815 14.9478 58.901 14.7644 58.9319C14.5811 58.9627 14.5106 58.9993 14.5714 59.7549C14.6312 60.5106 15.4825 61.0975 15.4825 61.0975C15.4825 61.0975 15.2991 61.1283 15.0984 61.191C14.8976 61.2527 14.8648 61.2845 15.1437 61.9726C15.4236 62.6608 16.2353 64.3204 16.2353 64.3204C16.2353 64.3204 17.7428 62.815 17.8007 62.6453ZM15.5114 57.7956C15.8126 57.1913 16.3984 57.6972 16.6397 58.0114C16.6522 58.0278 16.6686 58.0529 16.686 58.0837C16.852 58.3719 17.2023 59.2181 16.9601 59.3771C16.7787 59.4966 15.1109 58.5994 15.5114 57.7956ZM15.2509 59.7318C15.3541 59.1381 15.717 59.5564 15.717 59.5564C15.717 59.5564 16.8288 60.3024 16.5866 60.5433C16.3443 60.7843 15.1476 60.3255 15.2509 59.7318ZM15.8531 61.4464C15.8753 60.9577 16.5798 61.4666 16.5798 61.4666C16.6677 61.6989 15.8319 61.935 15.8531 61.4464ZM17.5199 59.0514C17.4137 58.5762 18.0912 57.5893 18.0912 57.5893C18.401 57.1999 18.7253 57.837 18.5777 58.2032C18.431 58.5685 17.627 59.5265 17.5199 59.0514ZM17.7081 60.9211C17.3954 60.7978 17.7341 60.0556 18.0652 59.8137C18.2206 59.701 18.374 59.6981 18.4589 59.9198C18.5111 60.0576 18.4387 60.2378 18.374 60.3679C18.2746 60.5665 17.9619 61.0214 17.7081 60.9211Z" fill="#2E738F"/>
<path d="M19.902 66.8956H17.2701H13.3922H10.7603C10.4099 66.8956 10.131 67.2137 10.1523 67.5915C10.2488 69.2569 10.7555 73.3569 13.3922 73.6277V73.6422C13.3922 73.6422 13.3922 73.6422 13.6721 73.6422C15.7346 73.6422 16.6147 73.6422 16.9902 73.6422C17.2701 73.6422 17.2701 73.6422 17.2701 73.6422V73.6277C19.9068 73.3569 20.4135 69.2569 20.51 67.5915C20.5312 67.2137 20.2523 66.8956 19.902 66.8956Z" fill="#2D4D9D"/>
<path d="M18.5333 65.0828C18.71 64.9247 18.8296 64.1363 18.8538 64.0525C18.8769 63.9686 19.1925 64.3888 19.1925 64.3888C19.1925 64.3888 19.593 64.2491 19.9492 64.0457C20.3053 63.8424 21.6459 63.0135 21.7675 62.6434C21.8891 62.2724 21.3843 61.802 21.3226 61.7037C21.2598 61.6054 22.0358 61.7789 22.252 61.7567C22.4682 61.7346 22.4189 61.8579 23.0241 60.1173C23.6302 58.3777 23.5404 56.3904 23.1032 55.5191C22.666 54.6488 18.1483 57.5662 17.9012 58.0211C17.6541 58.477 18.1984 59.0495 18.1984 59.0495C18.1984 59.0495 17.6618 58.9309 17.4302 58.848C17.1986 58.7651 17.0943 58.7632 16.6755 59.6721C16.2566 60.5809 16.8588 61.8068 16.8588 61.8068C16.8588 61.8068 16.6272 61.724 16.356 61.6671C16.0848 61.6093 16.0259 61.6247 15.9043 62.5972C15.7827 63.5706 15.7837 65.2081 15.7837 65.2081C15.7837 65.2081 18.3567 65.2408 18.5333 65.0828ZM19.0246 58.0172C19.7619 57.5141 20.1104 58.475 20.1856 58.9926C20.1895 59.0196 20.1924 59.0581 20.1924 59.1063C20.1982 59.5448 20.0544 60.7457 19.6732 60.7737C19.3875 60.7958 18.044 58.6871 19.0246 58.0172ZM17.4746 60.0826C17.9765 59.4649 18.1251 60.18 18.1251 60.18C18.1251 60.18 18.9252 61.7558 18.4909 61.8772C18.0566 61.9986 16.9727 60.6995 17.4746 60.0826ZM17.0625 62.4468C17.4032 61.8974 17.8877 62.9383 17.8877 62.9383C17.8375 63.2612 16.7208 62.9952 17.0625 62.4468ZM20.5292 60.7592C20.7126 60.1434 22.1323 59.4417 22.1323 59.4417C22.7413 59.1921 22.7027 60.1356 22.2964 60.4624C21.891 60.7891 20.3458 61.3751 20.5292 60.7592ZM19.539 63.0357C19.2581 62.6916 20.1277 62.0545 20.6663 61.99C20.9182 61.9601 21.0967 62.0555 21.0514 62.3649C21.0234 62.5576 20.8226 62.7196 20.6643 62.8265C20.4202 62.9913 19.7668 63.3142 19.539 63.0357Z" fill="#45BC9A"/>
<path d="M14.5918 62.3803C14.446 62.1866 13.6508 61.9957 13.5668 61.9649C13.4828 61.934 13.9394 61.6488 13.9394 61.6488C13.9394 61.6488 13.8313 61.2286 13.6546 60.8479C13.478 60.4672 12.7474 59.0292 12.3797 58.8731C12.012 58.7169 11.487 59.1901 11.3808 59.2451C11.2756 59.3 11.5198 58.5251 11.515 58.3035C11.5111 58.0818 11.6327 58.1425 9.90705 57.3744C8.18237 56.6062 6.14403 56.5243 5.21654 56.8934C4.28905 57.2626 6.87656 62.1201 7.32051 62.4111C7.76447 62.7022 8.39663 62.1981 8.39663 62.1981C8.39663 62.1981 8.2287 62.734 8.12446 62.9634C8.02023 63.1918 8.00865 63.2978 8.90043 63.8038C9.79317 64.3098 11.0971 63.8028 11.0971 63.8028C11.0971 63.8028 10.9928 64.0313 10.9108 64.303C10.8287 64.5739 10.8384 64.6355 11.8219 64.8447C12.8053 65.0538 15.2828 65.4037 15.2828 65.4037C15.2828 65.4037 14.7375 62.574 14.5918 62.3803ZM7.41606 61.2642C6.96631 60.4691 7.97873 60.1983 8.51341 60.1655C8.5414 60.1636 8.58097 60.1645 8.63019 60.1684C9.07897 60.2012 10.2931 60.4517 10.2892 60.8421C10.2863 61.136 8.01444 62.3215 7.41606 61.2642ZM9.39071 63.0231C8.80295 62.4583 9.54706 62.3687 9.54706 62.3687C9.54706 62.3687 11.2273 61.6912 11.3132 62.1442C11.4001 62.5971 9.97847 63.5889 9.39071 63.0231ZM11.7707 63.6496C11.2389 63.2544 12.344 62.8516 12.344 62.8516C12.6712 62.9306 12.3015 64.0447 11.7707 63.6496ZM10.3481 59.9698C9.7343 59.7289 9.14171 58.2215 9.14171 58.2215C8.94 57.5797 9.9003 57.7011 10.1995 58.1425C10.4967 58.5849 10.961 60.2108 10.3481 59.9698ZM12.5882 61.1765C12.2127 61.4329 11.6366 60.4913 11.6182 59.9371C11.6095 59.6778 11.7225 59.5043 12.0352 59.5776C12.2291 59.6229 12.3768 59.8417 12.4733 60.0123C12.62 60.2754 12.8932 60.9693 12.5882 61.1765Z" fill="#2E738F"/>
<path d="M16.3559 62.23C16.3009 61.9302 15.4429 61.2585 15.3599 61.1756C15.2769 61.0927 16.0239 61.0416 16.0239 61.0416C16.0239 61.0416 16.1619 60.5125 16.1899 59.9872C16.2179 59.462 16.2449 57.4448 15.8917 57.0573C15.5385 56.6708 14.584 56.8915 14.418 56.8915C14.252 56.8915 15.0549 56.1726 15.193 55.9239C15.331 55.6752 15.442 55.8131 13.809 53.9616C12.176 52.1102 9.71297 50.8389 8.32898 50.7108C6.94499 50.5826 7.00096 57.4717 7.35999 58.0519C7.71998 58.6321 8.82698 58.4384 8.82698 58.4384C8.82698 58.4384 8.273 58.9357 7.99697 59.1295C7.71998 59.3232 7.63698 59.4331 8.41198 60.5115C9.18697 61.59 11.124 61.7828 11.124 61.7828C11.124 61.7828 10.847 61.9765 10.57 62.23C10.293 62.4834 10.266 62.5567 11.345 63.3586C12.424 64.1604 15.0762 64.3214 15.0762 64.3214C15.0762 64.3214 16.4109 62.5287 16.3559 62.23ZM8.21992 56.8356C8.17842 55.6926 9.60391 55.9779 10.2843 56.2525C10.32 56.267 10.3683 56.2911 10.4262 56.3229C10.9589 56.6188 12.2966 57.5999 12.0389 58.0307C11.8449 58.3555 8.27493 58.3555 8.21992 56.8356ZM9.51994 59.9313C9.15995 58.9637 10.1357 59.2952 10.1357 59.2952C10.1357 59.2952 12.647 59.5159 12.4616 60.0692C12.2754 60.6224 9.87993 60.898 9.51994 59.9313ZM12.0534 62.0044C11.6529 61.2585 13.2772 61.4512 13.2772 61.4512C13.6295 61.7278 12.4539 62.7504 12.0534 62.0044ZM12.6749 57.0978C12.0737 56.4752 12.3149 54.4589 12.3149 54.4589C12.4809 53.6301 13.5879 54.3211 13.671 54.9842C13.7549 55.6473 13.2772 57.7204 12.6749 57.0978ZM14.6602 59.7347C14.0309 59.8012 13.9286 58.423 14.2635 57.7975C14.4199 57.5045 14.6718 57.3773 15.0105 57.6394C15.2209 57.8023 15.2624 58.13 15.2702 58.3758C15.2817 58.7526 15.1708 59.6807 14.6602 59.7347Z" fill="#6FC390"/>
<path d="M19.8236 60.7322C19.8159 60.7457 19.011 62.0941 17.7843 63.2911C16.6899 64.3599 15.5829 65.396 15.3416 65.6215C15.1775 64.783 14.9401 63.6255 14.666 62.4613C14.1439 60.2397 12.5726 57.5806 12.5562 57.5536L12.4607 57.6105C12.4761 57.6365 14.0396 60.2821 14.5579 62.4863C15.0772 64.6973 15.4671 66.8831 15.4709 66.9053L15.58 66.886C15.5781 66.8764 15.4989 66.4321 15.3657 65.7449L15.3686 65.7478C15.3812 65.7362 16.63 64.5729 17.8615 63.3701C19.0979 62.1625 19.9105 60.8026 19.9182 60.7881L19.8236 60.7322Z" fill="#2D4D9D"/>
</svg>
