<svg width="89" height="79" viewBox="0 0 89 79" fill="none" xmlns="http://www.w3.org/2000/svg">
<g opacity="0.6">
<path opacity="0.6" d="M76.5001 66.3838H16.0309C14.9201 66.3838 14.0195 65.4743 14.0195 64.3524V6.01399C14.0195 4.89208 14.9201 3.98254 16.0309 3.98254H76.5001C77.6109 3.98254 78.5115 4.89208 78.5115 6.01399V64.3524C78.5115 65.4752 77.6109 66.3838 76.5001 66.3838Z" fill="#CDDDF1"/>
<path opacity="0.6" d="M77.0287 6.52462V63.8417C77.0287 64.454 76.5377 64.9498 75.9315 64.9498H16.5988C15.9927 64.9498 15.5017 64.454 15.5017 63.8417V6.52462C15.5017 5.91242 15.9927 5.41656 16.5988 5.41656H75.9315C76.5377 5.41749 77.0287 5.91335 77.0287 6.52462Z" fill="white"/>
<g opacity="0.6">
<path opacity="0.6" d="M77.0285 13.5673L72.0896 17.1038L58.882 5.41748H57.6706L58.029 5.7342L43.5066 13.9403C43.385 14.0096 43.3028 14.1287 43.2826 14.269C43.2616 14.4094 43.3055 14.5479 43.4024 14.6495L52.8194 24.586L44.2234 29.9822L28.1697 13.1951L40.7821 5.41748H39.2516L27.6019 12.6014L20.7312 5.41748H19.6222L43.5514 30.4393L33.7331 37.4949L15.5024 17.6375V18.8222L23.5563 27.5944L15.5024 31.214V32.0968L24.1295 28.2195L33.2796 38.1856V43.2651L15.5024 53.9486V54.8868L33.5877 44.0176L37.8171 49.2144V64.9498H38.6153V49.0889C38.6153 48.9845 38.5787 48.882 38.5129 48.8008L34.0777 43.35V38.2363L44.3441 30.8585C44.3533 30.8521 44.3615 30.8447 44.3697 30.8382L44.3706 30.8391L49.5802 27.5685L58.2859 36.469C58.3727 36.5586 58.4879 36.6047 58.605 36.6047C58.6946 36.6047 58.7851 36.577 58.8646 36.5207L68.4106 29.7071L73.7426 35.2317L52.301 50.0898C52.1895 50.1665 52.1191 50.2883 52.1072 50.4241C52.0953 50.5598 52.1438 50.6928 52.2407 50.7879L66.5811 64.9498H67.7221L53.102 50.5109L64.6867 42.483L77.0285 54.4851V53.366L65.3587 42.0176L74.3067 35.8162L77.0285 38.6362V37.4819L63.9443 23.9248L77.0285 14.5553V13.5673ZM67.8455 29.1216L58.6443 35.6897L50.2741 27.1317L60.0193 21.0134L67.8455 29.1216ZM63.3802 23.3403L60.3951 20.2479C60.2488 20.0965 60.0139 20.0679 59.8365 20.1796L53.5106 24.1511L44.2902 14.4205L58.6653 6.29746L71.4203 17.583L63.3802 23.3403Z" fill="#CDDDF1"/>
</g>
<path opacity="0.6" d="M36.836 38.1024L48.5707 30.1558C48.8295 29.9804 49.1751 30.0164 49.3936 30.2398L58.4531 39.5328C58.7448 39.8319 58.6863 40.3259 58.3343 40.5476L44.7975 49.0704C44.5114 49.2504 44.1356 49.1784 43.9345 48.9051L36.677 39.036C36.4557 38.7368 36.5279 38.3111 36.836 38.1024Z" fill="#CDDDF1"/>
<path opacity="0.6" d="M19.3735 58.8398L31.291 51.341C31.6055 51.1434 32.017 51.208 32.2565 51.4933L36.0782 56.0382C36.2025 56.186 36.2656 56.3753 36.2546 56.5683L35.8021 64.9507H18.6238L19.0233 59.4271C19.0398 59.1851 19.1705 58.9672 19.3735 58.8398Z" fill="#45BC9A"/>
<g opacity="0.39">
<path opacity="0.39" d="M56.9045 50.7187L64.0724 45.2799C64.3302 45.0842 64.6914 45.11 64.919 45.3399L71.6755 52.1407C71.958 52.4251 71.9214 52.8969 71.5996 53.1333L64.4765 58.368C64.2223 58.5545 63.8731 58.5305 63.6464 58.3107L56.8451 51.715C56.5562 51.4352 56.5845 50.9615 56.9045 50.7187Z" fill="#CDDDF1"/>
</g>
<path opacity="0.6" d="M66.8453 59.4474L71.1808 55.8951C71.4505 55.6735 71.8455 55.7067 72.0759 55.9708L75.0299 59.355C75.2841 59.6459 75.2329 60.0947 74.9211 60.32L70.5289 63.4982C70.2684 63.6866 69.91 63.6543 69.6869 63.4225L66.7895 60.4123C66.5235 60.1362 66.5491 59.6893 66.8453 59.4474Z" fill="#45BC9A"/>
<path opacity="0.6" d="M62.1378 36.3868L67.5796 32.7127C67.8438 32.5344 68.1986 32.576 68.4152 32.8115L70.2593 34.817C70.54 35.1218 70.4705 35.6102 70.1176 35.8245L64.3687 39.3019C64.098 39.4653 63.7497 39.409 63.544 39.1662L62.0071 37.3573C61.7529 37.059 61.8151 36.6047 62.1378 36.3868Z" fill="#45BC9A"/>
<path opacity="0.6" d="M54.1022 27.056L59.384 23.5176C59.6628 23.3311 60.0358 23.3893 60.2461 23.6515L64.2077 28.5953C64.4344 28.8788 64.3887 29.2952 64.1053 29.5215L59.6637 33.0617C59.4041 33.2685 59.031 33.2445 58.7997 33.0063L53.9989 28.0607C53.7127 27.7661 53.763 27.2832 54.1022 27.056Z" fill="#6FC390"/>
<g opacity="0.39">
<path opacity="0.39" d="M27.6168 17.656L22.7464 21.5758C22.4475 21.8168 22.0159 21.7909 21.7471 21.5148L15.5017 15.1093V6.52462C15.5017 5.91242 15.9927 5.41656 16.5988 5.41656H17.2388L18.6331 6.72223L27.6981 16.5507C27.9953 16.8721 27.9578 17.3818 27.6168 17.656Z" fill="#CDDDF1"/>
</g>
<path opacity="0.6" d="M24.3554 23.0523L29.2175 19.2285C29.4845 19.0189 29.8657 19.0512 30.0934 19.3024L39.451 29.6129C39.7124 29.901 39.6676 30.3562 39.3531 30.5852L34.3978 34.2113C34.1317 34.4062 33.7642 34.3692 33.542 34.1255L24.2777 24.0135C24.0198 23.7319 24.0555 23.2886 24.3554 23.0523Z" fill="#6FC390"/>
<g opacity="0.39">
<path opacity="0.39" d="M34.0896 16.3291L41.7722 24.5638C42.0008 24.8094 42.3765 24.839 42.6408 24.6321L46.4067 21.6865C46.7056 21.452 46.744 21.0097 46.488 20.7272L39.663 13.1776C39.4692 12.9634 39.1601 12.9033 38.9014 13.0298L34.2779 15.2912C33.8848 15.4833 33.7897 16.0068 34.0896 16.3291Z" fill="#CDDDF1"/>
</g>
<g opacity="0.39">
<path opacity="0.39" d="M40.4859 8.35754L43.2214 11.6522C43.4636 11.944 43.8833 12.0086 44.2006 11.8018L53.986 5.41656H43.4316L40.6523 7.23932C40.2747 7.48587 40.197 8.01035 40.4859 8.35754Z" fill="#CDDDF1"/>
</g>
<path opacity="0.6" d="M23.4045 5.41749L27.4182 9.32986C27.6669 9.57271 28.0481 9.61149 28.3398 9.42312L34.5687 5.41656H23.4045V5.41749Z" fill="#CDDDF1"/>
<path opacity="0.6" d="M48.5433 13.9551L57.9247 9.47578C58.1606 9.36312 58.4404 9.40467 58.6342 9.58012L66.3863 16.6015C66.6953 16.8813 66.6679 17.379 66.3296 17.6219L63.2138 19.8648C62.9715 20.0393 62.6424 20.0245 62.4165 19.8287L60.0028 17.7447C59.7971 17.5665 59.5027 17.5369 59.2659 17.6699L53.9083 20.6829C53.6404 20.8334 53.304 20.7743 53.1028 20.5397L48.3294 14.9754C48.0496 14.6476 48.1557 14.1398 48.5433 13.9551Z" fill="#CDDDF1"/>
<path opacity="0.6" d="M77.0286 6.52462V10.196L72.4828 13.0705C72.214 13.2404 71.8693 13.221 71.6207 13.0225L62.1287 5.41748H75.9324C76.5376 5.41748 77.0286 5.91334 77.0286 6.52462Z" fill="#6FC390"/>
<g opacity="0.39">
<path opacity="0.39" d="M77.0285 17.7354V34.7413L68.0641 25.2406C67.7496 24.9073 67.8008 24.3708 68.172 24.1039L77.0285 17.7354Z" fill="#CDDDF1"/>
</g>
<path opacity="0.6" d="M31.0069 42.5642L17.4592 50.0934C17.098 50.2938 16.6436 50.1618 16.4443 49.797L15.5017 48.0777V34.227L22.9073 30.7587C23.2328 30.6064 23.6205 30.7089 23.8298 31.0034L31.2546 41.4626C31.5161 41.8301 31.4 42.3463 31.0069 42.5642Z" fill="#CDDDF1"/>
</g>
<path d="M45.6516 0C40.9805 0 44.154 5.88102 45.2913 7.76657C45.4541 8.0362 45.8417 8.03251 45.999 7.75918C47.0888 5.86625 50.105 0 45.6516 0ZM45.5949 3.724C45.0161 3.724 44.548 3.25031 44.548 2.66673C44.548 2.08223 45.017 1.60946 45.5949 1.60946C46.1727 1.60946 46.6417 2.08315 46.6417 2.66673C46.6426 3.25031 46.1736 3.724 45.5949 3.724Z" fill="#45BC9A"/>
<path d="M73.4098 18.6126C68.7388 18.6126 71.9123 24.4936 73.0496 26.3792C73.2124 26.6488 73.6 26.6451 73.7573 26.3718C74.8471 24.4779 77.8633 18.6126 73.4098 18.6126ZM73.3541 22.3366C72.7753 22.3366 72.3072 21.8629 72.3072 21.2793C72.3072 20.6948 72.7763 20.2221 73.3541 20.2221C73.9328 20.2221 74.4009 20.6958 74.4009 21.2793C74.4009 21.8629 73.9319 22.3366 73.3541 22.3366Z" fill="#45BC9A"/>
<path d="M17.5092 17.3365C12.8382 17.3365 16.0116 23.2175 17.149 25.103C17.3117 25.3727 17.6994 25.369 17.8566 25.0957C18.9465 23.2027 21.9626 17.3365 17.5092 17.3365ZM17.4534 21.0605C16.8747 21.0605 16.4066 20.5868 16.4066 20.0032C16.4066 19.4187 16.8756 18.9459 17.4534 18.9459C18.0322 18.9459 18.5003 19.4196 18.5003 20.0032C18.5003 20.5868 18.0313 21.0605 17.4534 21.0605Z" fill="#45BC9A"/>
<path d="M27.5003 49.6494L28.4128 48.7417C28.4448 48.7103 28.4567 48.6632 28.4457 48.618L25.9689 38.7479C25.9515 38.6778 25.883 38.6344 25.8153 38.6501C25.7486 38.6658 25.7084 38.7359 25.7257 38.8052L28.1668 48.5293C28.1778 48.5746 28.1659 48.6217 28.1339 48.6531L27.3239 49.4592C27.2745 49.5081 27.2745 49.5903 27.3239 49.642C27.3714 49.6956 27.451 49.6983 27.5003 49.6494Z" fill="#51759F"/>
<path d="M20.1168 55.8213L16.2632 56.8831C16.009 56.9533 15.7466 56.801 15.6799 56.5452L13.4508 47.9402C13.385 47.6853 13.5377 47.4259 13.791 47.3603L17.715 46.3538C17.5505 46.4628 17.4654 46.6668 17.5175 46.8691L19.7465 55.4741C19.7959 55.6578 19.9431 55.788 20.1168 55.8213Z" fill="#F69782"/>
<path d="M29.2057 53.318L20.1169 55.8222C19.9432 55.789 19.796 55.6588 19.7484 55.476L17.5194 46.871C17.4673 46.6687 17.5523 46.4637 17.7169 46.3557L27.0224 43.9688C27.2793 43.9023 27.5399 44.062 27.6002 44.3215L29.543 52.7548C29.5988 53.0013 29.4498 53.2506 29.2057 53.318Z" fill="#FFD38E"/>
<path d="M19.4913 47.8469L20.2748 50.4841C20.3041 50.5811 20.4083 50.6346 20.5034 50.6014L22.3776 49.9421C22.4663 49.9107 22.5148 49.8165 22.4901 49.726L21.776 47.16C21.7495 47.0639 21.649 47.0085 21.5539 47.0371L19.6101 47.6253C19.516 47.654 19.4629 47.7537 19.4913 47.8469Z" fill="#F69782"/>
<path d="M24.8143 52.6485L27.2984 51.8119C27.3962 51.7787 27.5014 51.8369 27.527 51.9375L27.676 52.5359C27.6988 52.6282 27.6458 52.7215 27.5553 52.7492L25.042 53.5147C24.9432 53.5442 24.8399 53.4842 24.818 53.3835L24.6991 52.8563C24.6781 52.7676 24.7284 52.6781 24.8143 52.6485Z" fill="#F69782"/>
<path d="M16.6844 52.6929L16.3946 52.7677C16.1011 52.8434 15.8021 52.6643 15.7272 52.3678L15.5306 51.5876C15.4556 51.2912 15.633 50.9892 15.9265 50.9135L16.2163 50.8387C16.5098 50.763 16.8088 50.9421 16.8837 51.2385L17.0803 52.0188C17.1553 52.3161 16.9779 52.6172 16.6844 52.6929Z" fill="#2D4D9D"/>
<path d="M12.2339 41.061V41.7693C12.2339 41.8921 12.3418 41.9863 12.4615 41.9687L13.2259 41.8588C13.3237 41.845 13.3968 41.76 13.3968 41.6594V41.062C13.3968 40.9512 13.3072 40.8607 13.1975 40.8607H12.4332C12.3226 40.8597 12.2339 40.9502 12.2339 41.061Z" fill="#51759F"/>
<path d="M25.9387 37.9049L26.2295 38.5494C26.2798 38.6611 26.2203 38.7913 26.1042 38.8264L25.3627 39.0462C25.2677 39.0748 25.1662 39.0277 25.125 38.9363L24.88 38.3924C24.8343 38.2909 24.8791 38.1718 24.9787 38.1256L25.6745 37.8061C25.7751 37.759 25.893 37.8042 25.9387 37.9049Z" fill="#51759F"/>
<path d="M16.4176 52.1065L15.1907 51.7344C15.1477 51.7215 15.1157 51.6855 15.1047 51.6411L12.7249 41.7471C12.7084 41.6769 12.7486 41.6058 12.8154 41.5882C12.8821 41.5707 12.9498 41.6132 12.9672 41.6834L15.3114 51.4324C15.3223 51.4777 15.3552 51.5128 15.3973 51.5257L16.4862 51.8563C16.552 51.8766 16.5904 51.9486 16.5712 52.0179C16.5529 52.0871 16.4835 52.1268 16.4176 52.1065Z" fill="#51759F"/>
<path d="M21.6025 35.3573C21.2935 35.0627 20.8866 34.9417 20.5045 35.0322L17.9637 35.6315L17.9646 35.6343C17.939 35.6371 17.9244 35.6407 17.9244 35.6407L15.3836 36.24C15.0014 36.3305 14.6897 36.6205 14.5416 37.0231L13.4316 40.0536L18.6604 38.82L18.6997 38.8107L18.8432 38.7766L23.9284 37.5771L21.6025 35.3573Z" fill="#92B2DD"/>
<path d="M15.9806 39.338L16.1918 40.2493C16.2238 40.3878 16.1387 40.5263 16.0016 40.5587L11.4439 41.6344C11.3644 41.6529 11.2803 41.6326 11.219 41.5781L7.62226 38.4238C7.56009 38.3693 7.47689 38.349 7.39735 38.3675L7.2666 38.398C7.12946 38.4303 6.99232 38.3444 6.96032 38.2059L6.93838 38.1108C6.90638 37.9723 6.99141 37.8338 7.12855 37.8015L9.11984 37.3315C9.25698 37.2991 9.39412 37.385 9.42612 37.5235L9.46818 37.7036C9.50018 37.8421 9.41515 37.9806 9.27801 38.0129C9.0787 38.06 9.01287 38.313 9.16281 38.4524L10.9776 40.145C11.0398 40.2032 11.1267 40.2262 11.209 40.2069L15.6752 39.145C15.8114 39.1136 15.9486 39.1994 15.9806 39.338Z" fill="#2D4D9D"/>
<path d="M21.2879 38.0858L21.4991 38.9972C21.5311 39.1357 21.6683 39.2216 21.8054 39.1893L26.3631 38.1135C26.4426 38.0951 26.5084 38.0387 26.5404 37.9621L28.3809 33.5253C28.4129 33.4486 28.4787 33.3932 28.5582 33.3738L28.689 33.3434C28.8261 33.311 28.9112 33.1725 28.8792 33.034L28.8572 32.9389C28.8252 32.8004 28.6881 32.7145 28.5509 32.7469L26.5596 33.2169C26.4225 33.2492 26.3375 33.3877 26.3695 33.5262L26.4115 33.7062C26.4435 33.8448 26.5807 33.9306 26.7178 33.8983C26.9171 33.8512 27.0872 34.0488 27.014 34.2409L26.129 36.5706C26.0989 36.65 26.0312 36.71 25.9489 36.7294L21.479 37.7765C21.3419 37.8088 21.2559 37.9473 21.2879 38.0858Z" fill="#2D4D9D"/>
<path d="M18.6595 38.8209L16.0054 39.4469L16.1718 40.1662L16.5878 40.5236C16.7624 40.6732 16.9964 40.7304 17.2195 40.6778L18.9923 40.2595L20.7651 39.8412C20.9882 39.7886 21.1729 39.6325 21.2634 39.4201L21.4791 38.9141L21.3127 38.1948L18.6595 38.8209Z" fill="#2D4D9D"/>
<path d="M19.3386 39.0647C19.4145 39.3943 19.2124 39.7231 18.8861 39.7997C18.5597 39.8763 18.2342 39.6723 18.1583 39.3426C18.0824 39.013 18.2845 38.6842 18.6109 38.6076C18.9363 38.531 19.2627 38.735 19.3386 39.0647Z" fill="#92B2DD"/>
<path d="M19.1659 39.1053C19.2198 39.338 19.0763 39.5707 18.8459 39.6251C18.6155 39.6796 18.3851 39.5346 18.3312 39.302C18.2772 39.0693 18.4208 38.8366 18.6512 38.7821C18.8816 38.7276 19.112 38.8726 19.1659 39.1053Z" fill="white"/>
<path d="M22.2544 37.2835L14.8369 39.0333C14.5215 39.1081 14.2518 38.796 14.367 38.4903L14.5123 38.1071L14.537 38.0416L14.8524 37.2087L14.8771 37.1431L14.9393 36.9788C14.9868 36.8523 15.0938 36.7581 15.2246 36.7267L20.8428 35.4007C20.9699 35.3711 21.1033 35.4044 21.2012 35.4912L21.3429 35.6168L21.3959 35.6639L22.0725 36.2631L22.1255 36.3102L22.4281 36.5789C22.6759 36.7987 22.5753 37.2087 22.2544 37.2835Z" fill="#23375C"/>
<g opacity="0.36">
<path opacity="0.36" d="M22.1254 36.3111L22.0723 36.264L20.7905 36.566C20.583 36.3508 20.3791 36.1394 20.1935 35.9482L21.3958 35.6648L21.3427 35.6177L20.146 35.9002C20.0527 35.8033 19.964 35.7128 19.8817 35.6288L19.8159 35.6445C19.8973 35.7276 19.9851 35.819 20.0801 35.9159L18.8651 36.2022C18.8047 36.0997 18.7462 36.0018 18.6914 35.9095L18.6328 35.9233C18.6868 36.0147 18.7453 36.1126 18.8066 36.216L17.3172 36.5678C17.3263 36.4478 17.3355 36.3342 17.3437 36.228L17.2843 36.2419C17.2751 36.349 17.266 36.4635 17.2569 36.5817L16.0418 36.8679C16.0838 36.7387 16.1232 36.6177 16.1588 36.506L16.093 36.5217C16.0564 36.6334 16.0171 36.7553 15.976 36.8836L14.8752 37.1431L14.8505 37.2087L15.9549 36.9483C15.8726 37.2031 15.7821 37.4838 15.6907 37.7701L14.5369 38.0416L14.5122 38.1071L15.6715 37.8338C15.5536 38.2013 15.4338 38.5762 15.325 38.9188L15.3908 38.9031C15.5024 38.5522 15.6212 38.1791 15.7373 37.8181L17.1956 37.4737C17.1727 37.8199 17.1517 38.1699 17.1325 38.4912L17.1919 38.4774C17.2121 38.1348 17.2331 37.7895 17.255 37.4598L19.2555 36.988C19.42 37.2742 19.591 37.5743 19.7592 37.8726L19.8177 37.8587C19.6596 37.5789 19.4868 37.2742 19.3149 36.9741L20.7732 36.6297C21.0356 36.9021 21.3053 37.1828 21.5594 37.4469L21.6253 37.4312C21.3775 37.1727 21.106 36.8901 20.839 36.614L22.1254 36.3111ZM17.1993 37.4137L15.7584 37.7535C15.8507 37.4644 15.9412 37.1847 16.0226 36.9326L17.2541 36.6417C17.2349 36.8855 17.2166 37.1477 17.1993 37.4137ZM17.2587 37.3998C17.277 37.1274 17.2953 36.8661 17.3126 36.6279L18.8376 36.2677C18.9583 36.4736 19.0891 36.699 19.2244 36.9353L17.2587 37.3998ZM19.2829 36.9224C19.1503 36.6916 19.0196 36.4653 18.8962 36.2548L20.1268 35.9639C20.3105 36.1542 20.5144 36.3647 20.7238 36.5817L19.2829 36.9224Z" fill="#92B2DD"/>
</g>
<path d="M17.321 37.9188C17.2917 37.9262 17.2597 37.9132 17.2423 37.8855C17.2359 37.8754 17.0787 37.6325 16.6224 37.7406C16.1607 37.8495 16.1406 38.1404 16.1406 38.1432C16.1388 38.1838 16.105 38.2143 16.0647 38.2124C16.0245 38.2106 15.9943 38.1764 15.9962 38.1358C15.9971 38.1192 16.0236 37.7323 16.5895 37.5984C17.1536 37.4654 17.3575 37.796 17.3667 37.8098C17.3868 37.844 17.3758 37.8892 17.342 37.9095C17.3356 37.9142 17.3283 37.9169 17.321 37.9188Z" fill="#92B2DD"/>
<path d="M15.9678 37.3112C16.0072 37.1514 16.126 37.0295 16.2851 36.9908C16.339 36.9778 16.3198 36.892 16.265 36.9058C16.0776 36.952 15.9313 37.096 15.8846 37.2853C15.8718 37.3398 15.9541 37.3657 15.9678 37.3112Z" fill="#92B2DD"/>
<path d="M20.7002 37.1218C20.67 37.1292 20.6371 37.1154 20.6215 37.0868C20.6151 37.0748 20.4661 36.8338 20.0126 36.9409C19.5555 37.0489 19.5217 37.337 19.5198 37.349C19.5162 37.3887 19.4805 37.4183 19.4412 37.4146C19.4019 37.4109 19.3726 37.3758 19.3763 37.3361C19.3772 37.3195 19.4156 36.9316 19.9797 36.7987C20.5456 36.6648 20.7395 37 20.7468 37.0147C20.766 37.0498 20.7541 37.0941 20.7194 37.1135C20.713 37.1172 20.7066 37.12 20.7002 37.1218Z" fill="#92B2DD"/>
<path d="M20.4743 36.2022C20.349 36.0526 20.1552 35.9889 19.9669 36.0313C19.9129 36.0433 19.9321 36.1292 19.987 36.1163C20.147 36.0803 20.307 36.1357 20.4121 36.2613C20.4468 36.3056 20.5099 36.2456 20.4743 36.2022Z" fill="#92B2DD"/>
<path d="M7.63057 36.1237C7.4596 36.1643 7.35355 36.336 7.39378 36.5087L7.66349 37.6759L8.28153 37.53L8.01182 36.3628C7.97251 36.1901 7.80154 36.083 7.63057 36.1237Z" fill="#92B2DD"/>
<path d="M27.2251 31.5003C27.0541 31.5409 26.948 31.7127 26.9883 31.8854L27.258 33.0525L27.876 32.9066L27.6063 31.7395C27.567 31.5668 27.396 31.4597 27.2251 31.5003Z" fill="#92B2DD"/>
<path d="M12.3582 34.8735C11.0673 35.0849 9.36673 35.4349 7.57018 35.8587C5.77363 36.2825 4.09503 36.7295 2.84521 37.1182C0.882266 37.7286 0.920666 37.8938 0.932551 37.9483C0.945351 38.0028 0.98375 38.169 3.01161 37.8366C4.30257 37.6251 6.00311 37.2752 7.80058 36.8513C9.59713 36.4275 11.2757 35.9797 12.5255 35.5919C14.4885 34.9815 14.4501 34.8162 14.4382 34.7617C14.4236 34.7072 14.3861 34.541 12.3582 34.8735ZM12.5073 35.5364C11.2584 35.9243 9.58158 36.3712 7.78595 36.795C5.99032 37.2189 4.29159 37.5679 3.00155 37.7793C1.08249 38.0933 0.991979 37.952 0.988322 37.9345C0.984665 37.9169 1.00295 37.7498 2.86167 37.1727C4.11057 36.7849 5.78735 36.3379 7.58298 35.9141C9.37861 35.4903 11.0773 35.1403 12.3674 34.9298C14.2864 34.6158 14.3769 34.7571 14.3806 34.7747C14.3843 34.7922 14.366 34.9593 12.5073 35.5364Z" fill="#92B2DD"/>
<path d="M12.3673 34.9307C11.0773 35.1412 9.37855 35.4912 7.58292 35.915C5.78729 36.3388 4.11051 36.7858 2.86161 37.1736C1.00289 37.7507 0.984606 37.9178 0.988263 37.9354C0.99192 37.952 1.08243 38.0933 3.00149 37.7802C4.29153 37.5688 5.99026 37.2198 7.78589 36.7959C9.58152 36.3721 11.2583 35.9252 12.5072 35.5374C14.365 34.9602 14.3842 34.7931 14.3805 34.7756C14.376 34.758 14.2864 34.6167 12.3673 34.9307ZM10.9941 35.7082C10.1237 35.9409 8.96256 36.2308 7.7228 36.5226C6.48396 36.8153 5.31552 37.0757 4.43325 37.2558C3.03806 37.5411 3.02709 37.4958 3.01795 37.4561C3.00881 37.4164 2.99784 37.3712 4.37473 37.0018C5.24512 36.7691 6.40625 36.4792 7.646 36.1874C8.88485 35.8947 10.0533 35.6343 10.9356 35.4542C12.3307 35.1689 12.3417 35.2142 12.3509 35.2539C12.36 35.2936 12.3701 35.3388 10.9941 35.7082Z" fill="#CDDDF1"/>
<path d="M10.9355 35.4543C10.0532 35.6353 8.88475 35.8957 7.64591 36.1874C6.40707 36.4802 5.24503 36.7692 4.37464 37.0019C2.99866 37.3703 3.00872 37.4155 3.01786 37.4562C3.027 37.4959 3.03706 37.5411 4.43316 37.2558C5.31543 37.0748 6.48387 36.8144 7.72271 36.5226C8.96155 36.2299 10.1236 35.9409 10.994 35.7082C12.37 35.3398 12.3599 35.2945 12.3508 35.2548C12.3416 35.2142 12.3307 35.169 10.9355 35.4543ZM7.70991 36.4654C5.23955 37.048 3.52254 37.3962 3.13854 37.4275C3.49694 37.2835 5.18835 36.8274 7.65871 36.2438C10.1291 35.6611 11.8461 35.313 12.2301 35.2816C11.8726 35.4257 10.1803 35.8827 7.70991 36.4654Z" fill="#92B2DD"/>
<path d="M12.2301 35.2825C11.8718 35.4257 10.1803 35.8827 7.70906 36.4654C5.2387 37.048 3.52169 37.3962 3.1377 37.4275C3.49609 37.2835 5.1875 36.8274 7.65786 36.2438C10.1291 35.662 11.8462 35.3139 12.2301 35.2825Z" fill="#CDDDF1"/>
<path d="M9.46743 37.012C9.45189 37.0157 9.43726 37.0065 9.43269 36.9908C9.42903 36.9751 9.43817 36.9594 9.45372 36.9557C11.0409 36.5402 12.4992 36.0877 13.5579 35.6842C13.5725 35.6787 13.5899 35.6861 13.5954 35.7008C13.6009 35.7156 13.5935 35.7332 13.5789 35.7387C12.5174 36.1431 11.0574 36.5956 9.46743 37.012C9.46835 37.012 9.46743 37.012 9.46743 37.012Z" fill="#92B2DD"/>
<path d="M14.1026 34.4524C14.1008 34.4524 14.0989 34.4533 14.0971 34.4533C13.671 34.4718 13.1527 34.5198 12.5556 34.5974C12.5401 34.5992 12.5255 34.5881 12.5236 34.5724C12.5218 34.5567 12.5328 34.542 12.5483 34.5401C13.1463 34.4625 13.6665 34.4136 14.0944 34.3951C14.1099 34.3942 14.1236 34.4071 14.1245 34.4228C14.1254 34.4376 14.1163 34.4496 14.1026 34.4524Z" fill="#92B2DD"/>
<path d="M8.86577 35.2483C7.99081 35.4348 7.07745 35.65 6.20889 35.8735C6.19334 35.8771 6.1778 35.8679 6.17414 35.8522C6.17049 35.8365 6.17963 35.8208 6.19517 35.8171C7.06465 35.5937 7.97892 35.3785 8.85297 35.1911C8.86851 35.1874 8.88405 35.1975 8.8868 35.2132C8.89045 35.2299 8.88131 35.2446 8.86577 35.2483Z" fill="#92B2DD"/>
<path d="M4.64265 38.0785C4.64173 38.0785 4.64173 38.0785 4.64082 38.0785C3.58575 38.265 0.134363 38.8311 0.00270781 38.2641C-0.0960338 37.8384 1.81297 37.1367 2.96038 36.7562C2.97593 36.7516 2.99147 36.7599 2.99695 36.7747C3.00153 36.7904 2.9933 36.8061 2.97867 36.8116C0.751498 37.5503 0.010022 38.0388 0.0593928 38.2502C0.123392 38.5273 1.56246 38.5642 4.63076 38.0203C4.6463 38.0176 4.66185 38.0277 4.66459 38.0443C4.66733 38.06 4.65819 38.0748 4.64265 38.0785Z" fill="#92B2DD"/>
<path d="M20.3078 33.3766C20.3206 33.4311 20.359 33.5973 22.3868 33.2649C23.6778 33.0534 25.3783 32.7035 27.1758 32.2796C28.9724 31.8558 30.651 31.408 31.9008 31.0202C33.8637 30.4098 33.8253 30.2445 33.8134 30.19C33.8006 30.1356 33.7622 29.9693 31.7344 30.3008C30.4434 30.5123 28.7429 30.8623 26.9463 31.2861C25.1498 31.7099 23.4712 32.1568 22.2214 32.5456C20.2566 33.1559 20.295 33.3221 20.3078 33.3766ZM20.3636 33.3637C20.3599 33.3461 20.3782 33.179 22.2369 32.6019C23.4858 32.2141 25.1626 31.7672 26.9582 31.3433C28.7538 30.9195 30.4526 30.5705 31.7426 30.359C33.6617 30.0451 33.7522 30.1863 33.7558 30.2039C33.7595 30.2205 33.7412 30.3876 31.8825 30.9657C30.6336 31.3535 28.9568 31.8004 27.1612 32.2242C25.3655 32.6481 23.6668 32.9971 22.3768 33.2086C20.4577 33.5216 20.3672 33.3803 20.3636 33.3637Z" fill="#92B2DD"/>
<path d="M20.3635 33.3637C20.3672 33.3803 20.4577 33.5216 22.3767 33.2085C23.6668 32.9971 25.3655 32.648 27.1611 32.2242C28.9568 31.8004 30.6335 31.3535 31.8824 30.9656C33.7403 30.3885 33.7595 30.2214 33.7558 30.2038C33.7521 30.1863 33.6616 30.045 31.7426 30.359C30.4525 30.5695 28.7538 30.9195 26.9582 31.3433C25.1625 31.7671 23.4858 32.2141 22.2369 32.6019C20.3781 33.179 20.3598 33.3461 20.3635 33.3637ZM22.3932 32.8844C22.3841 32.8447 22.3731 32.7995 23.75 32.4301C24.6204 32.1974 25.7815 31.9075 27.0212 31.6157C28.2601 31.323 29.4285 31.0626 30.3108 30.8825C31.706 30.5972 31.717 30.6425 31.7261 30.6822C31.7352 30.7219 31.7453 30.7671 30.3693 31.1355C29.4989 31.3682 28.3378 31.6582 27.0981 31.95C25.8592 32.2427 24.6908 32.5031 23.8085 32.6831C22.4133 32.9694 22.4023 32.9241 22.3932 32.8844Z" fill="#CDDDF1"/>
<path d="M22.3933 32.8844C22.4025 32.9242 22.4125 32.9694 23.8086 32.6841C24.6909 32.5031 25.8594 32.2427 27.0982 31.9509C28.337 31.6582 29.4991 31.3692 30.3695 31.1365C31.7455 30.7681 31.7354 30.7228 31.7263 30.6831C31.7171 30.6434 31.7061 30.5981 30.311 30.8835C29.4287 31.0645 28.2602 31.3249 27.0214 31.6166C25.7826 31.9094 24.6205 32.1984 23.7501 32.4311C22.3741 32.7995 22.3842 32.8447 22.3933 32.8844ZM22.514 32.8567C22.8724 32.7127 24.5638 32.2565 27.0342 31.673C29.5046 31.0903 31.2216 30.7422 31.6056 30.7108C31.2472 30.8539 29.5558 31.311 27.0845 31.8937C24.615 32.4772 22.898 32.8244 22.514 32.8567Z" fill="#92B2DD"/>
<path d="M22.5139 32.8567C22.8979 32.8254 24.6149 32.4772 27.0853 31.8946C29.5556 31.3119 31.248 30.8549 31.6064 30.7117C31.2224 30.7431 29.5054 31.0903 27.035 31.6739C24.5637 32.2556 22.8714 32.7127 22.5139 32.8567Z" fill="#CDDDF1"/>
<path d="M25.7497 33.1707C25.7652 33.167 25.7744 33.1523 25.7716 33.1366C25.768 33.1209 25.7534 33.1107 25.7378 33.1144C24.1323 33.4524 22.6275 33.6989 21.5002 33.8106C21.4846 33.8125 21.4727 33.8263 21.4746 33.843C21.4764 33.8587 21.4901 33.8707 21.5065 33.8688C22.6338 33.7562 24.1415 33.5087 25.7497 33.1707C25.7488 33.1707 25.7497 33.1707 25.7497 33.1707Z" fill="#92B2DD"/>
<path d="M20.4706 32.95C20.4724 32.95 20.4742 32.9491 20.4761 32.9482C20.8665 32.7737 21.3528 32.5853 21.9215 32.3877C21.9362 32.3821 21.9444 32.3655 21.9398 32.3507C21.9343 32.336 21.9179 32.3277 21.9032 32.3323C21.3327 32.5308 20.8454 32.7201 20.4541 32.8946C20.4395 32.9011 20.4331 32.9186 20.4395 32.9334C20.4441 32.9463 20.4578 32.9537 20.4706 32.95Z" fill="#92B2DD"/>
<path d="M25.5155 31.3202C26.3813 31.0959 27.2947 30.8798 28.1715 30.6923C28.187 30.6886 28.1971 30.6739 28.1934 30.6582C28.1898 30.6425 28.1751 30.6323 28.1596 30.636C27.2819 30.8244 26.3685 31.0405 25.5018 31.2648C25.4863 31.2685 25.4771 31.2851 25.4808 31.2999C25.4844 31.3147 25.5 31.3239 25.5155 31.3202Z" fill="#92B2DD"/>
<path d="M30.5422 31.9675C30.5431 31.9675 30.5431 31.9675 30.5441 31.9675C31.5717 31.6628 34.9143 30.6259 34.7835 30.0589C34.6848 29.6332 32.6661 29.8585 31.4711 30.0303C31.4556 30.033 31.4446 30.0469 31.4464 30.0635C31.4483 30.0792 31.4629 30.0903 31.4794 30.0884C33.7998 29.7542 34.6784 29.8604 34.7278 30.0718C34.7918 30.3488 33.5182 31.0257 30.5285 31.9112C30.513 31.9158 30.5047 31.9315 30.5093 31.9472C30.5121 31.962 30.5276 31.9712 30.5422 31.9675Z" fill="#92B2DD"/>
<path d="M67.809 42.616L67.1059 41.9161C67.0813 41.8921 67.0721 41.8551 67.0803 41.821L68.9893 34.216C69.0031 34.1624 69.0561 34.1282 69.1073 34.1412C69.1594 34.1532 69.1905 34.2067 69.1768 34.2612L67.2961 41.7545C67.287 41.7886 67.297 41.8256 67.3217 41.8496L67.9462 42.471C67.9836 42.5089 67.9846 42.5717 67.9462 42.6123C67.9087 42.652 67.8474 42.6538 67.809 42.616Z" fill="#51759F"/>
<path d="M73.4985 47.3723L76.4681 48.1904C76.6637 48.244 76.8658 48.1276 76.917 47.93L78.6349 41.2992C78.6852 41.1035 78.5682 40.9031 78.3725 40.8523L75.349 40.0767C75.4761 40.1607 75.541 40.3177 75.5008 40.4737L73.7829 47.1045C73.7463 47.2458 73.6329 47.3464 73.4985 47.3723Z" fill="#FFD38E"/>
<path d="M66.4954 45.4424L73.4987 47.3723C73.6322 47.3465 73.7465 47.2458 73.7831 47.1055L75.501 40.4746C75.5412 40.3186 75.4754 40.1607 75.3492 40.0776L68.1786 38.2382C67.9802 38.1874 67.78 38.3102 67.7333 38.5106L66.2367 45.0094C66.1928 45.1987 66.3071 45.3907 66.4954 45.4424Z" fill="#F69782"/>
<path d="M73.9813 41.2272L73.3778 43.2596C73.3559 43.3344 73.2754 43.3759 73.2014 43.3501L71.7568 42.8422C71.6892 42.8182 71.6508 42.7453 71.67 42.676L72.2204 40.6981C72.2414 40.6243 72.3182 40.5818 72.3913 40.604L73.8889 41.0573C73.9612 41.0786 74.0023 41.1552 73.9813 41.2272Z" fill="#D65F48"/>
<path d="M69.8789 44.9272L67.9644 44.2827C67.8885 44.2568 67.808 44.3021 67.7879 44.3796L67.6727 44.8404C67.6554 44.9115 67.6956 44.9835 67.766 45.0048L69.7033 45.5948C69.7792 45.6179 69.8588 45.5717 69.8761 45.4942L69.9685 45.0879C69.984 45.0195 69.9447 44.9503 69.8789 44.9272Z" fill="#D65F48"/>
<path d="M76.2551 44.99C76.5431 45.0639 76.8357 44.8884 76.9088 44.5976L77.0039 44.2218C77.0771 43.9309 76.9034 43.6354 76.6154 43.5616C76.3274 43.4877 76.0348 43.6631 75.9617 43.954L75.8666 44.3298C75.7934 44.6197 75.9671 44.9161 76.2551 44.99Z" fill="#2D4D9D"/>
<path d="M79.573 35.9981V36.5438C79.573 36.638 79.4898 36.7109 79.3974 36.6971L78.8087 36.6121C78.7328 36.6011 78.677 36.5355 78.677 36.4589V35.9981C78.677 35.9122 78.7456 35.843 78.8306 35.843H79.4194C79.5044 35.843 79.573 35.9122 79.573 35.9981Z" fill="#51759F"/>
<path d="M69.0123 33.5659L68.7883 34.0627C68.7499 34.1486 68.7956 34.2492 68.8852 34.276L69.4567 34.445C69.5298 34.4671 69.6084 34.4302 69.6395 34.36L69.8288 33.9408C69.8635 33.8632 69.8297 33.7709 69.7529 33.7349L69.2171 33.4883C69.1385 33.4542 69.048 33.4883 69.0123 33.5659Z" fill="#51759F"/>
<path d="M76.3494 44.5098L77.2947 44.2236C77.3276 44.2134 77.3532 44.1867 77.3615 44.1516L79.1955 36.5272C79.2083 36.4736 79.1772 36.4182 79.126 36.4053C79.0748 36.3915 79.0227 36.4247 79.009 36.4783L77.2015 43.99C77.1932 44.0251 77.1676 44.0518 77.1347 44.062L76.2954 44.3168C76.2442 44.3325 76.215 44.388 76.2296 44.4415C76.2451 44.4941 76.2982 44.5255 76.3494 44.5098Z" fill="#51759F"/>
<path d="M72.354 31.6028C72.5917 31.3756 72.9053 31.2824 73.1997 31.3526L75.1581 31.8142L75.1571 31.8161C75.1773 31.8189 75.1882 31.8207 75.1882 31.8207L77.1466 32.2824C77.441 32.3516 77.6815 32.576 77.7948 32.8854L78.6506 35.2206L74.6214 34.2704L74.5912 34.263L74.4806 34.2372L70.562 33.3129L72.354 31.6028Z" fill="#92B2DD"/>
<path d="M76.6858 34.6703L76.523 35.373C76.4983 35.4801 76.5642 35.5863 76.6693 35.6112L80.1819 36.4395C80.2432 36.4543 80.3081 36.4376 80.3557 36.3961L83.1268 33.9658C83.1744 33.9242 83.2393 33.9076 83.3005 33.9224L83.4011 33.9464C83.5072 33.9713 83.6123 33.9048 83.637 33.7986L83.6535 33.7257C83.6781 33.6186 83.6123 33.5124 83.5072 33.4874L81.973 33.1255C81.867 33.1005 81.7618 33.167 81.7371 33.2732L81.7051 33.4117C81.6804 33.5188 81.7463 33.625 81.8514 33.65C82.005 33.686 82.0553 33.8808 81.9401 33.9888L80.5413 35.2927C80.4937 35.337 80.427 35.3554 80.363 35.3397L76.9207 34.5216C76.8165 34.4976 76.7104 34.5641 76.6858 34.6703Z" fill="#2D4D9D"/>
<path d="M72.5963 33.7054L72.4335 34.4081C72.4088 34.5152 72.3028 34.5807 72.1976 34.5558L68.685 33.7275C68.6238 33.7128 68.5726 33.6694 68.5488 33.6112L67.1307 30.1928C67.1061 30.1337 67.0558 30.0903 66.9945 30.0765L66.8939 30.0525C66.7879 30.0275 66.723 29.9204 66.7477 29.8142L66.7641 29.7413C66.7888 29.6342 66.8949 29.5686 67 29.5935L68.5342 29.9555C68.6402 29.9804 68.7051 30.0876 68.6804 30.1937L68.6484 30.3322C68.6238 30.4394 68.5177 30.5049 68.4126 30.48C68.259 30.444 68.1282 30.5954 68.1849 30.7441L68.867 32.5391C68.8907 32.601 68.9428 32.6462 69.0059 32.661L72.45 33.4681C72.5551 33.4921 72.621 33.5992 72.5963 33.7054Z" fill="#2D4D9D"/>
<path d="M74.6214 34.2714L76.6666 34.7543L76.5386 35.3083L76.2186 35.5835C76.0842 35.6989 75.9041 35.7432 75.7322 35.7026L74.3663 35.3803L73.0003 35.0581C72.8285 35.0175 72.6858 34.8974 72.6163 34.734L72.45 34.3443L72.578 33.7903L74.6214 34.2714Z" fill="#2D4D9D"/>
<path d="M74.0985 34.4598C74.0399 34.7137 74.1963 34.9676 74.4468 35.0267C74.6982 35.0858 74.9497 34.9279 75.0082 34.6749C75.0667 34.421 74.9103 34.167 74.6598 34.108C74.4084 34.0479 74.157 34.2058 74.0985 34.4598Z" fill="#92B2DD"/>
<path d="M74.2318 34.4911C74.1906 34.6703 74.3004 34.8503 74.4786 34.8919C74.656 34.9334 74.8343 34.8226 74.8754 34.6426C74.9166 34.4634 74.8068 34.2834 74.6286 34.2418C74.4503 34.2003 74.2729 34.312 74.2318 34.4911Z" fill="white"/>
<path d="M71.8518 33.0875L77.5679 34.4366C77.8111 34.4939 78.0186 34.2538 77.9299 34.0183L77.8184 33.7228L77.7992 33.6721L77.556 33.0303L77.5368 32.9795L77.4893 32.853C77.4527 32.7551 77.3695 32.6831 77.2689 32.6591L72.9398 31.6378C72.842 31.6148 72.7396 31.6406 72.6637 31.708L72.5549 31.805L72.5138 31.841L71.9926 32.3027L71.9515 32.3387L71.7184 32.5455C71.5264 32.7136 71.6041 33.0294 71.8518 33.0875Z" fill="#23375C"/>
<g opacity="0.36">
<path opacity="0.36" d="M72.9435 32.5723C72.7378 32.7856 72.5284 33.0036 72.3374 33.2021L72.3876 33.2141C72.5833 33.01 72.7918 32.794 72.9938 32.5844L74.1174 32.8494C73.9849 33.0802 73.8523 33.3147 73.7298 33.5308L73.7755 33.5419C73.9053 33.312 74.037 33.0811 74.1632 32.8604L75.7046 33.2243C75.7211 33.4782 75.7375 33.745 75.7531 34.0082L75.7988 34.0193C75.7842 33.7709 75.7677 33.5013 75.7503 33.2353L76.874 33.5003C76.9627 33.7783 77.055 34.0664 77.1409 34.336L77.1912 34.348C77.1071 34.0839 77.0148 33.7949 76.9243 33.5123L77.8175 33.7229L77.7983 33.6721L76.9078 33.4625C76.8374 33.2418 76.7679 33.0257 76.7039 32.83L77.5551 33.0313L77.5359 32.9805L76.6875 32.7801C76.6555 32.6813 76.6253 32.588 76.5969 32.5012L76.5467 32.4892C76.575 32.5751 76.6052 32.6684 76.6372 32.7681L75.7019 32.5456C75.6946 32.4542 75.6882 32.3664 75.6809 32.2833L75.6351 32.2722C75.6415 32.3544 75.6489 32.4421 75.6562 32.5345L74.5088 32.2639C74.5554 32.1845 74.6002 32.1088 74.6422 32.0386L74.5965 32.0276C74.5545 32.0987 74.5088 32.1744 74.4621 32.2529L73.5259 32.0322C73.5981 31.9574 73.6667 31.8872 73.7289 31.8226L73.6786 31.8106C73.6155 31.8752 73.5469 31.9454 73.4747 32.0202L72.5531 31.8022L72.512 31.8383L73.4391 32.0571C73.2955 32.2048 73.1392 32.3674 72.9783 32.5336L71.9908 32.3009L71.9497 32.3369L72.9435 32.5723ZM75.7055 32.5927L76.6545 32.8161C76.7176 33.011 76.7871 33.2261 76.8584 33.4486L75.7476 33.1864C75.733 32.9823 75.7192 32.781 75.7055 32.5927ZM74.1869 32.8198C74.2912 32.6379 74.3917 32.4634 74.485 32.3055L75.6598 32.5825C75.6735 32.7663 75.6872 32.9676 75.7019 33.1772L74.1869 32.8198ZM73.0304 32.5465C73.1922 32.3794 73.3485 32.2168 73.4903 32.07L74.4384 32.2935C74.3433 32.456 74.2418 32.6305 74.1403 32.8078L73.0304 32.5465Z" fill="#92B2DD"/>
</g>
<path d="M75.6524 33.5769C75.6753 33.5825 75.7 33.5723 75.7128 33.5511C75.7173 33.5437 75.8389 33.3563 76.1909 33.4394C76.5466 33.5234 76.5621 33.7478 76.5621 33.7496C76.564 33.781 76.5896 33.8041 76.6206 33.8032C76.6517 33.8013 76.6746 33.7755 76.6737 33.7441C76.6728 33.7311 76.6527 33.4329 76.2165 33.3304C75.7823 33.2279 75.6241 33.4828 75.6177 33.4938C75.6021 33.5206 75.6104 33.5548 75.6369 33.5705C75.6415 33.5733 75.6469 33.5751 75.6524 33.5769Z" fill="#92B2DD"/>
<path d="M76.6954 33.1079C76.6653 32.9841 76.5738 32.8909 76.4513 32.8604C76.4093 32.8502 76.4248 32.7847 76.4669 32.7948C76.6113 32.8299 76.7238 32.9416 76.7604 33.0875C76.7695 33.13 76.7064 33.1503 76.6954 33.1079Z" fill="#92B2DD"/>
<path d="M73.0486 32.9629C73.0724 32.9685 73.0971 32.9583 73.1099 32.9361C73.1154 32.9269 73.2297 32.7413 73.5789 32.8235C73.9309 32.9066 73.9574 33.1282 73.9583 33.1384C73.9611 33.1688 73.9885 33.1919 74.0187 33.1891C74.0488 33.1864 74.0717 33.1596 74.069 33.1291C74.068 33.1162 74.0388 32.8179 73.6036 32.7155C73.1675 32.613 73.0185 32.8706 73.0121 32.8817C72.9974 32.9084 73.0066 32.9426 73.0331 32.9583C73.0386 32.9592 73.0441 32.9611 73.0486 32.9629Z" fill="#92B2DD"/>
<path d="M73.2232 32.2537C73.3192 32.1392 73.4692 32.0894 73.6145 32.1226C73.6566 32.1318 73.6411 32.1974 73.599 32.1882C73.4756 32.1605 73.3531 32.2029 73.2717 32.2999C73.2443 32.3331 73.1958 32.287 73.2232 32.2537Z" fill="#92B2DD"/>
<path d="M83.1206 32.1938C83.2522 32.2252 83.3336 32.3581 83.3034 32.4902L83.095 33.3895L82.6187 33.2769L82.8271 32.3775C82.8573 32.2445 82.9889 32.1624 83.1206 32.1938Z" fill="#92B2DD"/>
<path d="M68.0212 28.6304C68.1529 28.6618 68.2343 28.7948 68.2041 28.9268L67.9956 29.8262L67.5193 29.7136L67.7277 28.8142C67.7579 28.6821 67.8896 28.6 68.0212 28.6304Z" fill="#92B2DD"/>
<path d="M77.8753 31.1439C77.8653 31.1854 77.836 31.3138 79.3491 31.7838C80.3128 32.083 81.6056 32.4274 82.9898 32.7543C84.374 33.0811 85.6851 33.3508 86.6798 33.5133C88.2423 33.7691 88.2715 33.6407 88.2816 33.5992C88.2917 33.5567 88.3209 33.4293 86.8078 32.9593C85.8441 32.6601 84.5514 32.3157 83.1672 31.9888C81.7829 31.6619 80.4719 31.3923 79.4771 31.2298C77.9146 30.974 77.8854 31.1023 77.8753 31.1439ZM77.9192 31.154C77.922 31.1411 77.9914 31.0321 79.4707 31.2741C80.4646 31.4366 81.7738 31.7062 83.158 32.0322C84.5413 32.3591 85.8332 32.7026 86.7959 33.0017C88.2277 33.4468 88.2423 33.5752 88.2395 33.5881C88.2368 33.601 88.1673 33.71 86.688 33.468C85.6942 33.3055 84.385 33.0359 83.0008 32.7099C81.6175 32.3831 80.3256 32.0386 79.3629 31.7404C77.9302 31.2962 77.9165 31.1679 77.9192 31.154Z" fill="#92B2DD"/>
<path d="M77.9191 31.154C77.9164 31.1669 77.931 31.2962 79.3627 31.7404C80.3255 32.0395 81.6174 32.384 83.0006 32.7099C84.3839 33.0368 85.6932 33.3055 86.6879 33.468C88.1672 33.7099 88.2367 33.601 88.2394 33.588C88.2422 33.5751 88.2276 33.4458 86.7958 33.0017C85.8331 32.7025 84.5412 32.3581 83.1579 32.0321C81.7746 31.7053 80.4654 31.4366 79.4706 31.274C77.9913 31.0321 77.9219 31.1411 77.9191 31.154ZM79.4834 31.5234C79.4907 31.4929 79.499 31.4578 80.5742 31.6776C81.2544 31.817 82.154 32.0174 83.1094 32.2427C84.0639 32.468 84.9599 32.6905 85.6301 32.8706C86.6907 33.155 86.6824 33.1891 86.6751 33.2205C86.6678 33.251 86.6596 33.2861 85.5844 33.0663C84.9042 32.9269 84.0045 32.7265 83.0491 32.5012C82.0946 32.2759 81.1986 32.0534 80.5284 31.8733C79.4679 31.5889 79.4761 31.5538 79.4834 31.5234Z" fill="#CDDDF1"/>
<path d="M79.4837 31.5234C79.4763 31.5539 79.4681 31.589 80.5287 31.8734C81.1988 32.0525 82.0948 32.276 83.0493 32.5013C84.0038 32.7266 84.9044 32.9269 85.5846 33.0664C86.6598 33.2861 86.668 33.251 86.6753 33.2206C86.6827 33.1901 86.6909 33.155 85.6303 32.8706C84.9602 32.6915 84.0642 32.468 83.1097 32.2427C82.1552 32.0174 81.2546 31.817 80.5744 31.6776C79.4983 31.4578 79.4901 31.4929 79.4837 31.5234ZM79.576 31.5456C79.8722 31.5696 81.1952 31.8373 83.0987 32.287C85.0022 32.7367 86.306 33.0885 86.5821 33.1993C86.2859 33.1753 84.9629 32.9066 83.0594 32.4579C81.1559 32.0091 79.8521 31.6554 79.576 31.5456Z" fill="#92B2DD"/>
<path d="M79.5759 31.5455C79.852 31.6563 81.1558 32.0081 83.0593 32.4569C84.9628 32.9057 86.2867 33.1744 86.582 33.1984C86.3059 33.0876 85.0021 32.7358 83.0986 32.2861C81.1951 31.8364 79.8722 31.5695 79.5759 31.5455Z" fill="#CDDDF1"/>
<path d="M81.7052 32.878C81.7171 32.8808 81.729 32.8734 81.7318 32.8614C81.7345 32.8494 81.7281 32.8374 81.7162 32.8337C80.4929 32.5133 79.3693 32.1652 78.5538 31.854C78.5419 31.8494 78.5291 31.8558 78.5254 31.8669C78.5208 31.8789 78.5272 31.8918 78.5382 31.8955C79.3547 32.2086 80.4792 32.5567 81.7052 32.878C81.7043 32.878 81.7052 32.878 81.7052 32.878Z" fill="#92B2DD"/>
<path d="M78.1332 30.9056C78.1341 30.9056 78.1359 30.9066 78.1377 30.9066C78.466 30.9204 78.8655 30.9583 79.3254 31.0174C79.3373 31.0192 79.3491 31.01 79.3501 30.998C79.3519 30.986 79.3427 30.974 79.3309 30.973C78.8701 30.913 78.4687 30.8761 78.1396 30.8613C78.1277 30.8604 78.1167 30.8706 78.1167 30.8826C78.1149 30.8936 78.1231 30.9038 78.1332 30.9056Z" fill="#92B2DD"/>
<path d="M82.1689 31.5188C82.1689 31.5188 82.1689 31.5197 82.1689 31.5188C82.8427 31.6628 83.5467 31.8281 84.2159 32.0008C84.2278 32.0036 84.2397 31.9962 84.2434 31.9842C84.2461 31.9722 84.2388 31.9602 84.2269 31.9565C83.5567 31.7838 82.8528 31.6185 82.1789 31.4745C82.1671 31.4717 82.1552 31.48 82.1524 31.492C82.1497 31.5049 82.157 31.516 82.1689 31.5188Z" fill="#92B2DD"/>
<path d="M85.4227 33.6998H85.4236C86.2364 33.8439 88.8961 34.2797 88.9975 33.843C89.0734 33.5152 87.6023 32.974 86.7182 32.6813C86.7063 32.6776 86.6935 32.6841 86.6899 32.6961C86.6862 32.7081 86.6926 32.721 86.7045 32.7247C88.4206 33.2935 88.9921 33.6703 88.9537 33.8337C88.9043 34.0479 87.7962 34.0756 85.4309 33.6564C85.419 33.6546 85.4071 33.6629 85.4053 33.6749C85.4035 33.686 85.4108 33.6971 85.4227 33.6998Z" fill="#92B2DD"/>
<path d="M71.8786 29.4365C70.9149 29.1374 69.6222 28.7929 68.238 28.4661C66.8537 28.1392 65.5427 27.8696 64.5479 27.707C62.9855 27.4513 62.9562 27.5796 62.9461 27.6212C62.9361 27.6627 62.9068 27.7911 64.4199 28.2611C65.3836 28.5603 66.6764 28.9047 68.0606 29.2316C69.4448 29.5584 70.7559 29.8281 71.7506 29.9906C73.3131 30.2464 73.3423 30.118 73.3524 30.0765C73.3615 30.0349 73.3908 29.9066 71.8786 29.4365ZM71.757 29.9472C70.7632 29.7847 69.4539 29.515 68.0697 29.1891C66.6864 28.8622 65.3946 28.5178 64.4318 28.2195C63.0001 27.7745 62.9855 27.6461 62.9882 27.6332C62.9909 27.6203 63.0604 27.5113 64.5397 27.7532C65.5335 27.9157 66.8428 28.1854 68.227 28.5113C69.6103 28.8382 70.9022 29.1817 71.8649 29.4809C73.2966 29.9259 73.3113 30.0543 73.3085 30.0672C73.3058 30.0801 73.2363 30.1882 71.757 29.9472Z" fill="#92B2DD"/>
<path d="M71.8649 29.48C70.9022 29.1808 69.6103 28.8364 68.227 28.5104C66.8437 28.1835 65.5345 27.9148 64.5397 27.7523C63.0613 27.5104 62.9919 27.6193 62.9882 27.6323C62.9855 27.6452 63.0001 27.7745 64.4318 28.2186C65.3946 28.5178 66.6864 28.8622 68.0697 29.1882C69.453 29.5151 70.7623 29.7838 71.757 29.9463C73.2363 30.1882 73.3058 30.0792 73.3085 30.0663C73.3113 30.0534 73.2966 29.925 71.8649 29.48ZM70.6544 29.5437C69.9742 29.4043 69.0745 29.2039 68.1191 28.9786C67.1646 28.7533 66.2686 28.5307 65.5985 28.3507C64.5379 28.0663 64.5461 28.0321 64.5534 28.0007C64.5608 27.9702 64.569 27.9351 65.6442 28.1549C66.3244 28.2943 67.224 28.4947 68.1794 28.72C69.1339 28.9453 70.0299 29.1679 70.7001 29.3479C71.7607 29.6323 71.7524 29.6665 71.7451 29.6979C71.7369 29.7284 71.7296 29.7634 70.6544 29.5437Z" fill="#CDDDF1"/>
<path d="M70.6992 29.3479C70.029 29.1688 69.133 28.9453 68.1785 28.72C67.224 28.4947 66.3234 28.2943 65.6432 28.1549C64.568 27.9351 64.5598 27.9702 64.5525 28.0007C64.5452 28.0312 64.537 28.0662 65.5975 28.3507C66.2677 28.5298 67.1637 28.7532 68.1182 28.9786C69.0727 29.2039 69.9732 29.4042 70.6535 29.5437C71.7287 29.7634 71.7369 29.7283 71.7442 29.6979C71.7515 29.6665 71.7597 29.6323 70.6992 29.3479ZM68.1291 28.9342C66.2256 28.4855 64.9219 28.1327 64.6458 28.0228C64.942 28.0469 66.2649 28.3146 68.1685 28.7643C70.072 29.214 71.3757 29.5658 71.6519 29.6766C71.3556 29.6517 70.0327 29.3839 68.1291 28.9342Z" fill="#92B2DD"/>
<path d="M71.6518 29.6757C71.3556 29.6517 70.0327 29.383 68.1291 28.9343C66.2256 28.4855 64.9219 28.1328 64.6458 28.0229C64.942 28.0469 66.2649 28.3147 68.1684 28.7644C70.072 29.2141 71.3757 29.5649 71.6518 29.6757Z" fill="#CDDDF1"/>
<path d="M69.1584 29.9177C69.1465 29.9149 69.1392 29.9029 69.1419 29.8909C69.1447 29.8789 69.1566 29.8706 69.1684 29.8733C70.4055 30.1337 71.5657 30.324 72.4333 30.4098C72.4452 30.4108 72.4544 30.4218 72.4535 30.4348C72.4525 30.4468 72.4416 30.456 72.4288 30.4551C71.5584 30.3692 70.3972 30.1781 69.1584 29.9177Z" fill="#92B2DD"/>
<path d="M73.2261 29.7477C73.2252 29.7477 73.2233 29.7468 73.2224 29.7468C72.9216 29.6129 72.5468 29.467 72.1088 29.3147C72.0969 29.311 72.0915 29.298 72.0951 29.286C72.0988 29.274 72.1116 29.2676 72.1235 29.2722C72.5632 29.4245 72.939 29.5704 73.2407 29.7053C73.2517 29.7099 73.2572 29.7237 73.2517 29.7348C73.2471 29.745 73.2361 29.7505 73.2261 29.7477Z" fill="#92B2DD"/>
<path d="M69.3387 28.4919C68.6713 28.3192 67.9673 28.153 67.2926 28.0081C67.2807 28.0053 67.2724 27.9933 67.2752 27.9813C67.2779 27.9693 67.2898 27.961 67.3017 27.9637C67.9783 28.1087 68.6823 28.2758 69.3497 28.4485C69.3616 28.4513 69.3689 28.4642 69.3661 28.4762C69.3625 28.4873 69.3506 28.4947 69.3387 28.4919Z" fill="#92B2DD"/>
<path d="M65.4649 28.9905H65.464C64.6722 28.756 62.0958 27.9564 62.1973 27.5196C62.2731 27.1918 63.8292 27.3654 64.7499 27.4974C64.7618 27.4993 64.7709 27.5104 64.7691 27.5233C64.7673 27.5353 64.7563 27.5445 64.7435 27.5427C62.9552 27.2851 62.2777 27.3672 62.2402 27.5298C62.1909 27.744 63.1719 28.2648 65.4759 28.9471C65.4877 28.9508 65.4941 28.9628 65.4914 28.9748C65.4887 28.9869 65.4768 28.9933 65.4649 28.9905Z" fill="#92B2DD"/>
<path d="M41.7668 67.8187V75.0137C41.7668 75.2362 41.6022 75.4172 41.3993 75.4172H34.0458C33.8428 75.4172 33.6782 75.2362 33.6782 75.0137V67.8187C33.6782 67.5961 33.8428 67.4161 34.0458 67.4161H41.3993C41.6031 67.4152 41.7668 67.5961 41.7668 67.8187Z" fill="#F69782"/>
<path d="M44.6313 67.8178V75.0128C44.6313 75.2354 44.4667 75.4163 44.2638 75.4163H36.9103C36.7073 75.4163 36.5427 75.2354 36.5427 75.0128V67.8178C36.5427 67.5953 36.7073 67.4143 36.9103 67.4143H44.2638C44.4667 67.4143 44.6313 67.5953 44.6313 67.8178Z" fill="#FFD38E"/>
<path d="M42.3995 67.4143V70.8881C42.3995 70.9352 42.3648 70.973 42.3218 70.973H41.4578C41.4149 70.973 41.3801 70.9352 41.3801 70.8881V67.4143H42.3995Z" fill="#F69782"/>
<path d="M39.1776 69.6221H37.7267C37.5749 69.6221 37.4524 69.4984 37.4524 69.3451V68.8945C37.4524 68.7412 37.5749 68.6175 37.7267 68.6175H39.1776C39.3294 68.6175 39.4519 68.7412 39.4519 68.8945V69.3451C39.4519 69.4975 39.3285 69.6221 39.1776 69.6221Z" fill="#F69782"/>
<path d="M42.6565 73.9186V72.2796C42.6565 72.1264 42.779 72.0026 42.9308 72.0026H43.2983C43.4501 72.0026 43.5726 72.1264 43.5726 72.2796V73.9186C43.5726 74.0719 43.4501 74.1957 43.2983 74.1957H42.9308C42.779 74.1957 42.6565 74.071 42.6565 73.9186Z" fill="#F69782"/>
<path d="M40.2994 74.6306H37.6224C37.4707 74.6306 37.3481 74.5068 37.3481 74.3536V72.2723C37.3481 72.119 37.4707 71.9952 37.6224 71.9952H40.2994C40.4512 71.9952 40.5737 72.119 40.5737 72.2723V74.3536C40.5737 74.5059 40.4512 74.6306 40.2994 74.6306Z" fill="#F69782"/>
<path d="M40.1076 74.4357H37.8146C37.6628 74.4357 37.5403 74.312 37.5403 74.1587V72.4671C37.5403 72.3138 37.6628 72.1901 37.8146 72.1901H40.1076C40.2593 72.1901 40.3818 72.3138 40.3818 72.4671V74.1587C40.3818 74.312 40.2593 74.4357 40.1076 74.4357Z" fill="white"/>
<path d="M34.2268 73.552V73.2879C34.2268 73.1347 34.3493 73.0109 34.5011 73.0109H34.9857C35.1374 73.0109 35.2599 73.1347 35.2599 73.2879V73.552C35.2599 73.7053 35.1374 73.829 34.9857 73.829H34.5011C34.3493 73.829 34.2268 73.7053 34.2268 73.552Z" fill="#D65F48"/>
<path d="M34.2268 72.2242V71.9601C34.2268 71.8068 34.3493 71.6831 34.5011 71.6831H34.9857C35.1374 71.6831 35.2599 71.8068 35.2599 71.9601V72.2242C35.2599 72.3775 35.1374 72.5012 34.9857 72.5012H34.5011C34.3493 72.5012 34.2268 72.3775 34.2268 72.2242Z" fill="#D65F48"/>
<path d="M35.6302 67.4143V69.5252C35.6302 69.5778 35.5909 69.6212 35.5424 69.6212H34.9774C34.929 69.6212 34.8896 69.5778 34.8896 69.5252V67.4143H35.6302Z" fill="#D65F48"/>
<path d="M29.9874 64.5214V74.8697C29.9874 75.1901 29.7305 75.4496 29.4132 75.4496H17.9272C17.6099 75.4496 17.353 75.1901 17.353 74.8697V64.5214C17.353 64.2009 17.6099 63.9415 17.9272 63.9415H29.4132C29.7305 63.9415 29.9874 64.2009 29.9874 64.5214Z" fill="#F69782"/>
<path d="M34.461 64.5214V74.8697C34.461 75.1901 34.2041 75.4496 33.8869 75.4496H22.4008C22.0836 75.4496 21.8267 75.1901 21.8267 74.8697V64.5214C21.8267 64.2009 22.0836 63.9415 22.4008 63.9415H33.8869C34.2041 63.9415 34.461 64.2009 34.461 64.5214Z" fill="#FFD38E"/>
<path d="M26.4009 63.9415V68.9379C26.4009 69.0053 26.347 69.0598 26.2802 69.0598H24.9307C24.864 69.0598 24.8101 69.0053 24.8101 68.9379V63.9415H26.4009Z" fill="#F69782"/>
<path d="M32.7559 67.8382H30.1813C30.0295 67.8382 29.907 67.7144 29.907 67.5611V66.6701C29.907 66.5168 30.0295 66.3931 30.1813 66.3931H32.7559C32.9076 66.3931 33.0301 66.5168 33.0301 66.6701V67.5611C33.0301 67.7144 32.9076 67.8382 32.7559 67.8382Z" fill="#F69782"/>
<path d="M32.7558 73.4855H28.2667C28.1149 73.4855 27.9924 73.3618 27.9924 73.2085V69.9721C27.9924 69.8188 28.1149 69.6951 28.2667 69.6951H32.7558C32.9076 69.6951 33.0301 69.8188 33.0301 69.9721V73.2085C33.0301 73.3618 32.9076 73.4855 32.7558 73.4855Z" fill="#F69782"/>
<path d="M32.4571 73.2058H28.5677C28.416 73.2058 28.2935 73.082 28.2935 72.9288V70.2519C28.2935 70.0986 28.416 69.9749 28.5677 69.9749H32.4571C32.6088 69.9749 32.7313 70.0986 32.7313 70.2519V72.9288C32.7313 73.082 32.6079 73.2058 32.4571 73.2058Z" fill="white"/>
<path d="M24.1919 72.8447H23.0079C22.8562 72.8447 22.7336 72.721 22.7336 72.5677V72.3073C22.7336 72.154 22.8562 72.0303 23.0079 72.0303H24.1919C24.3437 72.0303 24.4662 72.154 24.4662 72.3073V72.5677C24.4662 72.721 24.3437 72.8447 24.1919 72.8447Z" fill="#F69782"/>
<path d="M24.1919 74.3664H23.0079C22.8562 74.3664 22.7336 74.2427 22.7336 74.0894V73.829C22.7336 73.6757 22.8562 73.552 23.0079 73.552H24.1919C24.3437 73.552 24.4662 73.6757 24.4662 73.829V74.0894C24.4662 74.2418 24.3437 74.3664 24.1919 74.3664Z" fill="#F69782"/>
<path d="M18.2097 72.8909V71.0921C18.2097 70.9389 18.3322 70.8151 18.484 70.8151H19.3663C19.518 70.8151 19.6406 70.9389 19.6406 71.0921V72.8909C19.6406 73.0442 19.518 73.1679 19.3663 73.1679H18.484C18.3322 73.1679 18.2097 73.0433 18.2097 72.8909Z" fill="#D65F48"/>
<path d="M63.5889 64.5214V74.8697C63.5889 75.1901 63.8458 75.4496 64.163 75.4496H75.6491C75.9663 75.4496 76.2232 75.1901 76.2232 74.8697V64.5214C76.2232 64.2009 75.9663 63.9415 75.6491 63.9415H64.1639C63.8467 63.9415 63.5889 64.2009 63.5889 64.5214Z" fill="#FFD38E"/>
<path d="M59.1152 64.5214V74.8697C59.1152 75.1901 59.3721 75.4496 59.6894 75.4496H71.1763C71.4936 75.4496 71.7505 75.1901 71.7505 74.8697V64.5214C71.7505 64.2009 71.4936 63.9415 71.1763 63.9415H59.6903C59.3731 63.9415 59.1152 64.2009 59.1152 64.5214Z" fill="#F69782"/>
<path d="M67.1765 63.9415V68.9379C67.1765 69.0053 67.2305 69.0598 67.2972 69.0598H68.6467C68.7134 69.0598 68.7674 69.0053 68.7674 68.9379V63.9415H67.1765Z" fill="#D65F48"/>
<path d="M60.8204 67.8382H63.395C63.5468 67.8382 63.6693 67.7144 63.6693 67.5611V66.6701C63.6693 66.5168 63.5468 66.3931 63.395 66.3931H60.8204C60.6687 66.3931 60.5461 66.5168 60.5461 66.6701V67.5611C60.5461 67.7144 60.6696 67.8382 60.8204 67.8382Z" fill="#D65F48"/>
<path d="M60.8204 73.4855H65.3095C65.4613 73.4855 65.5838 73.3618 65.5838 73.2085V69.9721C65.5838 69.8188 65.4613 69.6951 65.3095 69.6951H60.8204C60.6687 69.6951 60.5461 69.8188 60.5461 69.9721V73.2085C60.5461 73.3618 60.6696 73.4855 60.8204 73.4855Z" fill="#D65F48"/>
<path d="M61.1202 73.2058H65.0096C65.1613 73.2058 65.2838 73.082 65.2838 72.9288V70.2519C65.2838 70.0986 65.1613 69.9749 65.0096 69.9749H61.1202C60.9685 69.9749 60.8459 70.0986 60.8459 70.2519V72.9288C60.8459 73.082 60.9685 73.2058 61.1202 73.2058Z" fill="white"/>
<path d="M69.3844 72.8447H70.5684C70.7201 72.8447 70.8427 72.721 70.8427 72.5677V72.3073C70.8427 72.154 70.7201 72.0303 70.5684 72.0303H69.3844C69.2326 72.0303 69.1101 72.154 69.1101 72.3073V72.5677C69.1101 72.721 69.2335 72.8447 69.3844 72.8447Z" fill="#D65F48"/>
<path d="M69.3844 74.3664H70.5684C70.7201 74.3664 70.8427 74.2427 70.8427 74.0894V73.829C70.8427 73.6757 70.7201 73.552 70.5684 73.552H69.3844C69.2326 73.552 69.1101 73.6757 69.1101 73.829V74.0894C69.1101 74.2418 69.2335 74.3664 69.3844 74.3664Z" fill="#F69782"/>
<path d="M75.3674 72.8909V71.0921C75.3674 70.9389 75.2449 70.8151 75.0931 70.8151H74.2108C74.059 70.8151 73.9365 70.9389 73.9365 71.0921V72.8909C73.9365 73.0442 74.059 73.1679 74.2108 73.1679H75.0931C75.2449 73.1679 75.3674 73.0433 75.3674 72.8909Z" fill="#F69782"/>
<path d="M54.7347 67.3728C54.7347 67.3728 54.4183 66.0985 55.1534 64.4964C55.8885 62.8944 58.4941 62.8565 58.5691 63.562C58.645 64.2674 56.8128 65.8695 55.9635 66.5177C55.1132 67.1669 54.7347 67.3728 54.7347 67.3728Z" fill="#6FC390"/>
<path d="M55.4278 69.2768C55.4278 69.2768 54.8984 68.225 56.1528 66.7467C57.4072 65.2683 58.2529 64.6866 58.572 65.6026C58.8901 66.5177 56.3265 68.4706 55.4278 69.2768Z" fill="#45BC9A"/>
<path d="M54.4595 67.841C54.4595 67.841 51.1865 67.033 51.9983 64.8021C52.8102 62.5703 54.4595 67.841 54.4595 67.841Z" fill="#45BC9A"/>
<path d="M54.3691 69.9527C54.3206 69.8659 54.5657 69.0542 53.6212 68.1004C52.6768 67.1465 51.0905 67.6618 50.7888 68.1004C50.4871 68.539 51.8466 69.117 52.8852 69.2758C53.9239 69.4356 54.3691 69.9527 54.3691 69.9527Z" fill="#6FC390"/>
<path d="M55.8942 69.9527C55.8942 69.9527 55.6611 69.4162 56.8506 68.6351C58.04 67.853 60.0231 67.9675 59.7205 68.6351C59.4188 69.3027 57.336 69.9629 55.8942 69.9527Z" fill="#6FC390"/>
<path d="M57.7977 68.9859C57.7904 68.9878 57.0306 69.1688 56.429 69.4984C55.939 69.7671 55.3127 70.6665 55.0731 71.0284C55.1371 70.6609 55.3145 69.7653 55.6766 68.7828C56.1456 67.5104 57.2391 66.6461 57.25 66.6378L57.2034 66.5777C57.1924 66.586 56.0816 67.4642 55.6052 68.7569C55.4663 69.1337 55.3547 69.4975 55.2661 69.8243C55.2395 69.4393 55.1161 68.7108 54.5995 68.0247C54.6553 67.8391 55.1353 66.2684 55.6958 65.538C56.2864 64.767 57.0827 64.4087 57.0909 64.405L57.0608 64.3348C57.0525 64.3385 56.2388 64.7042 55.6363 65.4909C55.1042 66.1853 54.6462 67.6165 54.5438 67.9499C53.806 66.9905 52.9575 66.1244 52.9493 66.116L52.8953 66.1696C52.9045 66.1788 53.784 67.0764 54.5291 68.0542C55.2624 69.0164 55.1984 70.07 55.1966 70.0921C55.0859 70.5335 55.0219 70.8816 54.9918 71.0608C54.8062 70.6194 54.1552 69.1558 53.5225 68.7375C52.7902 68.2528 52.2636 68.2721 52.2407 68.2731L52.2444 68.3497C52.2499 68.3488 52.771 68.3312 53.4805 68.8022C54.1927 69.274 54.9643 71.1956 54.9726 71.215L55.0256 71.3479L55.0439 71.214C55.1079 71.1134 55.8978 69.8761 56.4656 69.5658C57.058 69.2417 57.8086 69.0626 57.816 69.0607L57.7977 68.9859Z" fill="#294A71"/>
<path d="M56.2104 71.2002H54.4733H52.7956C52.4829 71.2002 52.2498 71.4911 52.3156 71.7995L53.037 75.204C53.0854 75.433 53.2857 75.5964 53.517 75.5964H54.4742H56.2113H57.1686C57.3999 75.5964 57.6001 75.433 57.6486 75.204L58.3699 71.7995C58.4349 71.4911 58.2026 71.2002 57.8899 71.2002H56.2104Z" fill="#D65F48"/>
<path d="M79.6425 76.3517H10.9933C10.7464 76.3517 10.5471 76.1495 10.5471 75.9011C10.5471 75.6518 10.7473 75.4505 10.9933 75.4505H79.6425C79.8893 75.4505 80.0886 75.6527 80.0886 75.9011C80.0886 76.1495 79.8884 76.3517 79.6425 76.3517Z" fill="#CDDDF1"/>
<path d="M47.1473 79H19.9376C19.6908 79 19.4915 78.7978 19.4915 78.5494C19.4915 78.3001 19.6917 78.0988 19.9376 78.0988H47.1473C47.3942 78.0988 47.5935 78.301 47.5935 78.5494C47.5944 78.7978 47.3942 79 47.1473 79Z" fill="#CDDDF1"/>
<path d="M66.3937 79H52.4327C52.1859 79 51.9866 78.7978 51.9866 78.5494C51.9866 78.3001 52.1868 78.0988 52.4327 78.0988H66.3946C66.6415 78.0988 66.8408 78.301 66.8408 78.5494C66.8399 78.7978 66.6406 79 66.3937 79Z" fill="#CDDDF1"/>
<path d="M52.9402 16.6624C52.5361 16.0437 51.8979 15.6799 51.2195 15.6799H46.7122V15.6845C46.6674 15.6799 46.6418 15.6799 46.6418 15.6799H42.1344C41.4569 15.6799 40.8188 16.0447 40.4137 16.6624L37.3665 21.32H46.6408H46.7112H46.9654H55.9856L52.9402 16.6624Z" fill="#92B2DD"/>
<path d="M33.6654 24.61L31.1484 47.6032C31.088 48.1692 31.5269 48.6632 32.0901 48.6632H33.8272V47.4046H33.0921C32.5271 47.4046 32.0873 46.9078 32.1504 46.34L34.5669 24.61H33.6654Z" fill="#92B2DD"/>
<path d="M58.2512 24.5906L60.7399 47.6031C60.8002 48.1692 60.3614 48.6632 59.7982 48.6632H58.061V47.4046H58.7961C59.3611 47.4046 59.8009 46.9078 59.7378 46.3399L57.2976 24.6294L58.2512 24.5906Z" fill="#92B2DD"/>
<path d="M32.8691 22.7475L32.7914 24.0162C32.7594 24.5453 33.1022 24.9959 33.5374 24.9959H34.8522C35.2343 24.9959 35.5543 24.6451 35.5955 24.1824L35.7225 22.7475H32.8691Z" fill="#51759F"/>
<path d="M59.02 22.7475L59.0977 24.0162C59.1297 24.5453 58.7868 24.9959 58.3516 24.9959H57.0369C56.6547 24.9959 56.3347 24.6451 56.2936 24.1824L56.1665 22.7475H59.02Z" fill="#51759F"/>
<path d="M55.6957 60.7023H36.176C35.2672 60.7023 34.5303 59.958 34.5303 59.0402V42.9521C34.5303 42.0342 35.2672 41.29 36.176 41.29H55.6957C56.6045 41.29 57.3414 42.0342 57.3414 42.9521V59.0402C57.3414 59.958 56.6054 60.7023 55.6957 60.7023Z" fill="#FFD38E"/>
<path d="M43.1848 47.7057H42.3208C41.8161 47.7057 41.4065 47.292 41.4065 46.7823V41.29H44.099V46.7823C44.099 47.2929 43.6903 47.7057 43.1848 47.7057Z" fill="#F69782"/>
<path d="M39.7034 56.5184H36.7284C36.476 56.5184 36.2712 56.3116 36.2712 56.0567V53.052C36.2712 52.7972 36.476 52.5903 36.7284 52.5903H39.7034C39.9558 52.5903 40.1606 52.7972 40.1606 53.052V56.0567C40.1606 56.3125 39.9558 56.5184 39.7034 56.5184Z" fill="#F69782"/>
<path d="M54.3462 59.0623H48.3879C48.0853 59.0623 47.8394 58.8139 47.8394 58.5083V52.4906C47.8394 52.185 48.0853 51.9366 48.3879 51.9366H54.3462C54.6489 51.9366 54.8948 52.185 54.8948 52.4906V58.5083C54.8948 58.8139 54.6489 59.0623 54.3462 59.0623Z" fill="#F69782"/>
<path d="M53.698 58.4076H49.0361C48.7335 58.4076 48.4875 58.1592 48.4875 57.8536V53.1453C48.4875 52.8396 48.7335 52.5912 49.0361 52.5912H53.698C54.0006 52.5912 54.2466 52.8396 54.2466 53.1453V57.8536C54.2466 58.1592 54.0006 58.4076 53.698 58.4076Z" fill="#FDFEFF"/>
<path d="M46.2687 53.3466H41.7814C41.5748 53.3466 41.4075 53.1776 41.4075 52.9689C41.4075 52.7602 41.5748 52.5912 41.7814 52.5912H46.2687C46.4753 52.5912 46.6426 52.7602 46.6426 52.9689C46.6426 53.1767 46.4753 53.3466 46.2687 53.3466Z" fill="#F69782"/>
<path d="M43.7251 55.3106H41.7804C41.5738 55.3106 41.4065 55.1416 41.4065 54.933C41.4065 54.7243 41.5738 54.5553 41.7804 54.5553H43.7251C43.9317 54.5553 44.099 54.7243 44.099 54.933C44.099 55.1407 43.9317 55.3106 43.7251 55.3106Z" fill="#F69782"/>
<path d="M41.9349 21.127V22.7438C41.9349 22.9895 41.7375 23.1889 41.4943 23.1889H33.4093C33.2676 23.1889 33.1351 23.1206 33.0528 23.0052L28.2309 16.2728C28.1477 16.1573 28.0151 16.089 27.8743 16.089H27.6421C27.3989 16.089 27.2014 15.8896 27.2014 15.6439V15.4759C27.2014 15.2303 27.3989 15.0308 27.6421 15.0308H31.1739C31.4171 15.0308 31.6146 15.2303 31.6146 15.4759V15.7954C31.6146 16.041 31.4171 16.2405 31.1739 16.2405H31.173C30.8201 16.2405 30.6107 16.6394 30.8082 16.9348L33.2027 20.5019C33.285 20.6238 33.4212 20.6976 33.5675 20.6967L41.4933 20.6838C41.7375 20.6819 41.9349 20.8814 41.9349 21.127Z" fill="#2D4D9D"/>
<path d="M51.3494 21.127V22.7438C51.3494 22.9895 51.5468 23.1889 51.79 23.1889H59.875C60.0158 23.1889 60.1493 23.1206 60.2315 23.0052L65.0534 16.2728C65.1366 16.1573 65.2692 16.089 65.41 16.089H65.6422C65.8854 16.089 66.0829 15.8896 66.0829 15.6439V15.4759C66.0829 15.2303 65.8854 15.0308 65.6422 15.0308H62.1104C61.8672 15.0308 61.6697 15.2303 61.6697 15.4759V15.7954C61.6697 16.041 61.8672 16.2405 62.1104 16.2405H62.1113C62.4642 16.2405 62.6736 16.6394 62.4761 16.9348L60.0816 20.5019C59.9993 20.6238 59.8631 20.6976 59.7168 20.6967L51.791 20.6838C51.5468 20.6819 51.3494 20.8814 51.3494 21.127Z" fill="#2D4D9D"/>
<path d="M46.6427 21.3199H41.9351V22.5961L42.4955 23.3616C42.7305 23.6829 43.1026 23.8722 43.4976 23.8722H46.6417H49.7859C50.1809 23.8722 50.553 23.6829 50.788 23.3616L51.3484 22.5961V21.3199H46.6427Z" fill="#2D4D9D"/>
<path d="M47.6627 22.2455C47.7955 21.6772 47.4471 21.1078 46.8845 20.9736C46.3218 20.8394 45.758 21.1913 45.6251 21.7596C45.4922 22.3278 45.8407 22.8973 46.4033 23.0315C46.966 23.1657 47.5298 22.8138 47.6627 22.2455Z" fill="#92B2DD"/>
<path d="M47.3645 22.1745C47.4585 21.7724 47.212 21.3696 46.814 21.2747C46.416 21.1798 46.0171 21.4287 45.9231 21.8307C45.8291 22.2327 46.0756 22.6355 46.4736 22.7305C46.8717 22.8254 47.2705 22.5765 47.3645 22.1745Z" fill="white"/>
<path d="M53.2866 20.1612H40.1284C39.5689 20.1612 39.2361 19.5296 39.5497 19.0614L39.9428 18.4741L40.0104 18.3735L40.8644 17.0965L40.932 16.9958L41.1003 16.7446C41.2301 16.5507 41.4468 16.4344 41.679 16.4344H51.6446C51.8695 16.4344 52.0807 16.5443 52.2123 16.7289L52.4016 16.9958L52.4729 17.0965L53.378 18.3735L53.4494 18.4741L53.8544 19.0457C54.1853 19.512 53.8553 20.1612 53.2866 20.1612Z" fill="#23375C"/>
<g opacity="0.36">
<path opacity="0.36" d="M53.4485 18.4741L53.3771 18.3735H51.1034C50.8373 17.9284 50.5776 17.4935 50.339 17.0965H52.472L52.4007 16.9958H50.2787C50.1589 16.7964 50.0455 16.608 49.9404 16.4344H49.8243C49.9285 16.6071 50.0419 16.7945 50.1626 16.9958H48.0076C47.9454 16.7991 47.886 16.6108 47.8293 16.4344H47.7251C47.7809 16.6098 47.8412 16.7973 47.9025 16.9958H45.2611C45.3233 16.7973 45.3827 16.6098 45.4385 16.4344H45.3334C45.2767 16.6108 45.2163 16.7991 45.1551 16.9958H43.0001C43.1208 16.7945 43.2342 16.6061 43.3384 16.4344H43.2214C43.1163 16.608 43.0029 16.7964 42.8831 16.9958H40.9321L40.8644 17.0965H42.8237C42.5851 17.4926 42.3245 17.9284 42.0594 18.3735H40.0095L39.9419 18.4741H41.9981C41.6571 19.0448 41.3096 19.6284 40.9933 20.1612H41.1103C41.4349 19.6154 41.7796 19.0356 42.1151 18.4741H44.7016C44.5288 19.0476 44.3569 19.6274 44.1997 20.1612H44.3048C44.4721 19.5933 44.6422 19.0208 44.8067 18.4741H48.3541C48.5196 19.0208 48.6897 19.5933 48.857 20.1612H48.9612C48.804 19.6274 48.6321 19.0476 48.4593 18.4741H51.0458C51.3804 19.0356 51.726 19.6154 52.0505 20.1612H52.1667C51.8503 19.6284 51.5029 19.0448 51.1619 18.4741H53.4485ZM44.7327 18.3735H42.1764C42.4443 17.9247 42.7048 17.4889 42.9407 17.0965H45.1249C44.9978 17.5 44.8662 17.933 44.7327 18.3735ZM44.8378 18.3735C44.9741 17.922 45.1066 17.4907 45.2291 17.0965H47.9336C48.0561 17.4898 48.1886 17.922 48.3249 18.3735H44.8378ZM48.43 18.3735C48.2974 17.933 48.1649 17.5 48.0387 17.0965H50.222C50.4579 17.4889 50.7175 17.9238 50.9863 18.3735H48.43Z" fill="#92B2DD"/>
</g>
<path d="M44.7419 19.2718C44.6889 19.2718 44.6404 19.2377 44.623 19.1841C44.6166 19.1656 44.4466 18.6947 43.6356 18.6947C42.8173 18.6947 42.6692 19.1758 42.6683 19.1804C42.6491 19.2469 42.5805 19.2857 42.5138 19.2663C42.448 19.2469 42.4096 19.1767 42.4288 19.1102C42.437 19.0825 42.6327 18.4426 43.6356 18.4426C44.6358 18.4426 44.8516 19.0798 44.8598 19.1065C44.8809 19.173 44.8452 19.2441 44.7794 19.2654C44.7675 19.27 44.7547 19.2718 44.7419 19.2718Z" fill="#92B2DD"/>
<path d="M42.7012 17.7114C42.8292 17.4574 43.077 17.3004 43.3595 17.2977C43.4555 17.2968 43.4555 17.1462 43.3595 17.1462C43.0258 17.149 42.7241 17.3337 42.5714 17.6347C42.5284 17.7215 42.6573 17.7982 42.7012 17.7114Z" fill="#92B2DD"/>
<path d="M50.7359 19.2719C50.682 19.2719 50.6326 19.2368 50.6162 19.1823C50.6088 19.1601 50.4534 18.6948 49.648 18.6948C48.8379 18.6948 48.6679 19.1657 48.6606 19.186C48.6386 19.2516 48.5682 19.2867 48.5033 19.2654C48.4384 19.2433 48.4027 19.174 48.4238 19.1075C48.432 19.0807 48.6478 18.4436 49.648 18.4436C50.6518 18.4436 50.8475 19.0844 50.8548 19.1112C50.874 19.1777 50.8356 19.2479 50.7698 19.2673C50.7588 19.27 50.7478 19.2719 50.7359 19.2719Z" fill="#92B2DD"/>
<path d="M50.7132 17.6356C50.5614 17.3355 50.2588 17.1499 49.925 17.1472C49.829 17.1462 49.829 17.2977 49.925 17.2986C50.2075 17.3004 50.4553 17.4583 50.5833 17.7123C50.6272 17.7981 50.757 17.7215 50.7132 17.6356Z" fill="#92B2DD"/>
<path d="M34.5312 49.8968C34.0604 49.8968 33.6782 49.5108 33.6782 49.0353V46.8303C33.6782 46.3547 34.0604 45.9688 34.5312 45.9688V49.8968Z" fill="#2D4D9D"/>
<path d="M57.3579 49.8968C57.8288 49.8968 58.2109 49.5108 58.2109 49.0353V46.8303C58.2109 46.3547 57.8288 45.9688 57.3579 45.9688V49.8968Z" fill="#2D4D9D"/>
<path d="M29.1406 12.4056C28.838 12.4056 28.592 12.654 28.592 12.9597V15.0308H29.6892V12.9597C29.6892 12.654 29.4432 12.4056 29.1406 12.4056Z" fill="#92B2DD"/>
<path d="M63.8987 12.4056C63.596 12.4056 63.3501 12.654 63.3501 12.9597V15.0308H64.4472V12.9597C64.4472 12.654 64.2013 12.4056 63.8987 12.4056Z" fill="#92B2DD"/>
<path d="M37.5786 12.1785C35.3249 12.0215 32.3279 11.9356 29.1407 11.9356C25.9536 11.9356 22.9566 12.0215 20.7029 12.1785C17.1628 12.425 17.1628 12.7196 17.1628 12.8165C17.1628 12.9135 17.1628 13.2071 20.7029 13.4536C22.9566 13.6106 25.9536 13.6974 29.1407 13.6974C32.3279 13.6974 35.3249 13.6106 37.5786 13.4536C41.1186 13.2071 41.1186 12.9125 41.1186 12.8165C41.1177 12.7196 41.1177 12.4259 37.5786 12.1785ZM37.5713 13.3539C35.3194 13.5109 32.3252 13.5968 29.1407 13.5968C25.9563 13.5968 22.9621 13.51 20.7102 13.3539C17.3603 13.1203 17.2634 12.847 17.2634 12.8165C17.2634 12.786 17.3603 12.5127 20.7102 12.2791C22.9621 12.1221 25.9563 12.0363 29.1407 12.0363C32.3252 12.0363 35.3194 12.1221 37.5713 12.2791C40.9212 12.5127 41.0181 12.786 41.0181 12.8165C41.0181 12.847 40.9221 13.1203 37.5713 13.3539Z" fill="#92B2DD"/>
<path d="M37.5713 12.2792C35.3194 12.1222 32.3252 12.0363 29.1408 12.0363C25.9563 12.0363 22.9621 12.1222 20.7102 12.2792C17.3603 12.5128 17.2634 12.7861 17.2634 12.8166C17.2634 12.847 17.3603 13.1204 20.7102 13.354C22.9621 13.511 25.9563 13.5968 29.1408 13.5968C32.3252 13.5968 35.3194 13.51 37.5713 13.354C40.9212 13.1204 41.0181 12.847 41.0181 12.8166C41.0181 12.7861 40.9221 12.5128 37.5713 12.2792ZM34.9601 13.0419C33.4059 13.088 31.3387 13.1139 29.1408 13.1139C26.9428 13.1139 24.8757 13.088 23.3214 13.0419C20.8629 12.968 20.8629 12.8877 20.8629 12.8175C20.8629 12.7464 20.8629 12.6661 23.3214 12.5922C24.8757 12.546 26.9428 12.5202 29.1408 12.5202C31.3387 12.5202 33.4059 12.546 34.9601 12.5922C37.4186 12.6661 37.4186 12.7464 37.4186 12.8175C37.4177 12.8877 37.4177 12.9671 34.9601 13.0419Z" fill="#CDDDF1"/>
<path d="M34.96 12.5922C33.4057 12.546 31.3385 12.5201 29.1406 12.5201C26.9427 12.5201 24.8755 12.546 23.3213 12.5922C20.8628 12.666 20.8628 12.7464 20.8628 12.8175C20.8628 12.8876 20.8628 12.968 23.3213 13.0419C24.8755 13.088 26.9427 13.1139 29.1406 13.1139C31.3385 13.1139 33.4057 13.088 34.96 13.0419C37.4185 12.968 37.4185 12.8876 37.4185 12.8175C37.4175 12.7454 37.4176 12.666 34.96 12.5922ZM29.1406 13.0132C24.7585 13.0132 21.7341 12.9163 21.0767 12.8175C21.735 12.7177 24.7585 12.6208 29.1406 12.6208C33.5227 12.6208 36.5472 12.7177 37.2045 12.8175C36.5462 12.9163 33.5227 13.0132 29.1406 13.0132Z" fill="#92B2DD"/>
<path d="M37.2047 12.8166C36.5464 12.9154 33.5229 13.0123 29.1408 13.0123C24.7587 13.0123 21.7343 12.9154 21.0769 12.8166C21.7352 12.7168 24.7587 12.6199 29.1408 12.6199C33.5229 12.6208 36.5464 12.7168 37.2047 12.8166Z" fill="#CDDDF1"/>
<path d="M31.8844 14.6291C31.8578 14.6291 31.835 14.607 31.835 14.5802C31.8341 14.5525 31.856 14.5294 31.8834 14.5285C34.7159 14.4592 37.3435 14.2773 39.2818 14.0178C39.3092 14.0142 39.3339 14.0335 39.3375 14.0612C39.3412 14.0889 39.322 14.1139 39.2946 14.1176C37.3526 14.378 34.7214 14.5589 31.8853 14.6291C31.8844 14.6291 31.8844 14.6291 31.8844 14.6291Z" fill="#92B2DD"/>
<path d="M40.677 12.1637C40.6742 12.1637 40.6706 12.1637 40.6678 12.1628C39.9437 12.0242 39.0523 11.9005 38.0192 11.7934C37.9917 11.7906 37.9716 11.7657 37.9744 11.738C37.9771 11.7103 38.0018 11.69 38.0292 11.6928C39.0651 11.7999 39.9593 11.9245 40.6861 12.063C40.7135 12.0686 40.7309 12.0944 40.7254 12.1221C40.7218 12.1471 40.7007 12.1637 40.677 12.1637Z" fill="#92B2DD"/>
<path d="M31.5589 11.4241H31.558C30.0156 11.3908 28.3955 11.3899 26.8476 11.4213C26.8202 11.4213 26.7973 11.4001 26.7964 11.3724C26.7955 11.3447 26.8174 11.3216 26.8449 11.3207C28.3937 11.2893 30.0156 11.2902 31.5598 11.3234C31.5872 11.3244 31.6092 11.3474 31.6082 11.3751C31.6073 11.4028 31.5854 11.4241 31.5589 11.4241Z" fill="#92B2DD"/>
<path d="M23.3543 14.5082C23.3533 14.5082 23.3524 14.5082 23.3515 14.5082C21.5047 14.4039 15.4778 13.9865 15.4778 12.98C15.4778 12.2247 18.9621 11.8027 21.0393 11.618C21.0667 11.6162 21.0905 11.6365 21.0933 11.6642C21.096 11.6919 21.075 11.7159 21.0475 11.7187C17.0147 12.077 15.5774 12.6051 15.5774 12.981C15.5774 13.4731 17.9829 14.1056 23.357 14.4085C23.3844 14.4104 23.4055 14.4334 23.4036 14.4611C23.4027 14.4879 23.3808 14.5082 23.3543 14.5082Z" fill="#92B2DD"/>
<path d="M51.5322 12.8165C51.5322 12.9135 51.5322 13.2071 55.0723 13.4536C57.326 13.6106 60.323 13.6974 63.5101 13.6974C66.6973 13.6974 69.6943 13.6106 71.948 13.4536C75.488 13.2071 75.488 12.9125 75.488 12.8165C75.488 12.7196 75.488 12.425 71.948 12.1785C69.6943 12.0215 66.6973 11.9356 63.5101 11.9356C60.323 11.9356 57.326 12.0215 55.0723 12.1785C51.5322 12.4259 51.5322 12.7196 51.5322 12.8165ZM51.6319 12.8165C51.6319 12.786 51.7288 12.5127 55.0787 12.2791C57.3306 12.1221 60.3248 12.0363 63.5092 12.0363C66.6936 12.0363 69.6879 12.1221 71.9397 12.2791C75.2896 12.5127 75.3866 12.786 75.3866 12.8165C75.3866 12.847 75.2896 13.1203 71.9397 13.3539C69.6879 13.5109 66.6936 13.5968 63.5092 13.5968C60.3248 13.5968 57.3306 13.51 55.0787 13.3539C51.7288 13.1203 51.6319 12.847 51.6319 12.8165Z" fill="#92B2DD"/>
<path d="M51.6318 12.8166C51.6318 12.847 51.7288 13.1204 55.0787 13.354C57.3305 13.511 60.3248 13.5968 63.5092 13.5968C66.6936 13.5968 69.6878 13.51 71.9397 13.354C75.2896 13.1204 75.3865 12.847 75.3865 12.8166C75.3865 12.7861 75.2896 12.5128 71.9397 12.2792C69.6878 12.1222 66.6936 12.0363 63.5092 12.0363C60.3248 12.0363 57.3305 12.1222 55.0787 12.2792C51.7288 12.5128 51.6318 12.7861 51.6318 12.8166ZM55.2322 12.8166C55.2322 12.7455 55.2322 12.6651 57.6907 12.5913C59.245 12.5451 61.3122 12.5192 63.5101 12.5192C65.708 12.5192 67.7752 12.5451 69.3294 12.5913C71.7879 12.6651 71.7879 12.7455 71.7879 12.8166C71.7879 12.8868 71.7879 12.9671 69.3294 13.041C67.7752 13.0871 65.708 13.113 63.5101 13.113C61.3122 13.113 59.245 13.0871 57.6907 13.041C55.2322 12.9671 55.2322 12.8877 55.2322 12.8166Z" fill="#CDDDF1"/>
<path d="M55.2324 12.8166C55.2324 12.8867 55.2324 12.9671 57.6909 13.0409C59.2452 13.0871 61.3123 13.113 63.5103 13.113C65.7082 13.113 67.7753 13.0871 69.3296 13.0409C71.7881 12.9671 71.7881 12.8867 71.7881 12.8166C71.7881 12.7455 71.7881 12.6651 69.3296 12.5912C67.7753 12.5451 65.7082 12.5192 63.5103 12.5192C61.3123 12.5192 59.2452 12.5451 57.6909 12.5912C55.2324 12.666 55.2324 12.7455 55.2324 12.8166ZM55.4454 12.8166C56.1037 12.7168 59.1272 12.6199 63.5093 12.6199C67.8915 12.6199 70.9159 12.7168 71.5732 12.8166C70.915 12.9154 67.8915 13.0123 63.5093 13.0123C59.1272 13.0132 56.1037 12.9163 55.4454 12.8166Z" fill="#92B2DD"/>
<path d="M55.4453 12.8166C56.1036 12.9154 59.1271 13.0123 63.5092 13.0123C67.8913 13.0123 70.9157 12.9154 71.5731 12.8166C70.9148 12.7168 67.8913 12.6199 63.5092 12.6199C59.1271 12.6208 56.1036 12.7168 55.4453 12.8166Z" fill="#CDDDF1"/>
<path d="M60.7664 14.6291C60.7938 14.6291 60.8157 14.607 60.8157 14.5802C60.8166 14.5525 60.7947 14.5294 60.7673 14.5285C57.9349 14.4592 55.3072 14.2773 53.369 14.0178C53.3415 14.0142 53.3168 14.0335 53.3132 14.0612C53.3095 14.0889 53.3287 14.1139 53.3562 14.1176C55.2981 14.378 57.9294 14.5589 60.7654 14.6291C60.7654 14.6291 60.7654 14.6291 60.7664 14.6291Z" fill="#92B2DD"/>
<path d="M51.9731 12.1637C51.9758 12.1637 51.9795 12.1637 51.9822 12.1628C52.7063 12.0242 53.5977 11.9005 54.6309 11.7934C54.6583 11.7906 54.6784 11.7657 54.6756 11.738C54.6729 11.7103 54.6482 11.69 54.6208 11.6928C53.5849 11.7999 52.6908 11.9245 51.9639 12.063C51.9365 12.0686 51.9191 12.0944 51.9246 12.1221C51.9283 12.1471 51.9493 12.1637 51.9731 12.1637Z" fill="#92B2DD"/>
<path d="M61.0921 11.4241H61.093C62.6354 11.3908 64.2555 11.3899 65.8034 11.4213C65.8308 11.4213 65.8537 11.4001 65.8546 11.3724C65.8555 11.3447 65.8335 11.3216 65.8061 11.3207C64.2573 11.2893 62.6354 11.2902 61.0912 11.3234C61.0638 11.3244 61.0418 11.3474 61.0428 11.3751C61.0428 11.4028 61.0647 11.4241 61.0921 11.4241Z" fill="#92B2DD"/>
<path d="M69.2958 14.5082C69.2967 14.5082 69.2976 14.5082 69.2986 14.5082C71.1454 14.4039 77.1723 13.9865 77.1723 12.98C77.1723 12.2247 73.688 11.8027 71.6108 11.618C71.5833 11.6162 71.5596 11.6365 71.5568 11.6642C71.5541 11.6919 71.5751 11.7159 71.6025 11.7187C75.6354 12.077 77.0726 12.6051 77.0726 12.981C77.0726 13.4731 74.6672 14.1056 69.2931 14.4085C69.2656 14.4104 69.2446 14.4334 69.2464 14.4611C69.2474 14.4879 69.2693 14.5082 69.2958 14.5082Z" fill="#92B2DD"/>
<path d="M45.0691 28.1429C45.0691 28.1429 45.0828 29.2057 45.2117 29.4966C45.3406 29.7874 45.8636 30.0774 45.8636 30.0774C45.8636 30.0774 46.2677 29.7089 46.2503 29.0339C46.233 28.359 45.0691 28.1429 45.0691 28.1429Z" fill="#23375C"/>
<path d="M48.1751 27.7901C48.1751 27.7901 48.25 29.0339 48.1751 29.4439C48.1001 29.8539 47.9629 30.0921 47.8322 30.1447C47.7015 30.1974 47.5607 30.4993 47.5561 30.9167C47.5515 31.334 47.7097 31.6859 47.5561 31.6757C47.4025 31.6655 46.0512 31.54 46.0512 31.54C46.0512 31.54 46.0978 30.5676 45.9433 30.3691C45.7897 30.1706 45.4569 29.8271 45.4322 29.6415C45.4075 29.4559 45.4322 29.2047 45.4322 29.0995C45.4322 28.9933 45.2082 29.02 45.1076 28.7947C45.008 28.5694 45.0208 28.2924 45.1076 28.0671C45.1945 27.8418 45.3572 27.6442 45.5437 27.7892C45.7312 27.9351 45.7239 28.0542 45.8647 27.9748C46.0055 27.8954 45.8308 27.7698 46.2797 27.7402C46.7287 27.7107 48.1751 27.7901 48.1751 27.7901Z" fill="#F79E86"/>
<path d="M45.0691 28.1428C45.0691 28.1428 45.1578 26.2028 46.5667 26.2028C47.9756 26.2028 48.1246 26.5463 48.2745 26.9969C48.4245 27.4475 48.3495 27.9628 48.4985 27.9628C48.6476 27.9628 49.8526 28.1216 49.6551 28.201C49.4585 28.2795 45.0691 28.1428 45.0691 28.1428Z" fill="#6FC390"/>
<path d="M45.8189 28.165C45.8189 28.165 45.7604 29.1613 45.7357 29.021C45.711 28.8797 45.5117 28.1567 45.5117 28.1567L45.8189 28.165Z" fill="#23375C"/>
<path d="M47.7215 30.2472C47.7215 30.2472 47.3146 30.4495 47.1153 30.3562C46.916 30.2639 46.3674 29.9194 46.3674 29.9194C46.3674 29.9194 47.1025 30.8539 47.1775 30.7837C47.2525 30.7135 47.7215 30.2472 47.7215 30.2472Z" fill="#C43F52"/>
<path d="M47.014 28.6369C47.014 28.7468 46.9673 28.8354 46.9107 28.8354C46.854 28.8354 46.8074 28.7468 46.8074 28.6369C46.8074 28.527 46.854 28.4384 46.9107 28.4384C46.9683 28.4384 47.014 28.527 47.014 28.6369Z" fill="#23375C"/>
<path d="M47.9347 28.6987C47.9347 28.8086 47.888 28.8972 47.8313 28.8972C47.7747 28.8972 47.728 28.8086 47.728 28.6987C47.728 28.5888 47.7747 28.5002 47.8313 28.5002C47.8889 28.5002 47.9347 28.5888 47.9347 28.6987Z" fill="#23375C"/>
<path d="M47.3565 29.6027C47.3355 29.6027 47.3163 29.5889 47.309 29.5667C47.2998 29.539 47.3145 29.5095 47.3401 29.4993C47.4196 29.4707 47.4864 29.4236 47.4882 29.4024C47.4909 29.3784 47.4635 29.3294 47.4333 29.2786C47.3995 29.2195 47.3574 29.1457 47.3245 29.0524C47.2605 28.8696 47.3702 28.7431 47.437 28.7015C47.4608 28.6868 47.4909 28.6951 47.5056 28.72C47.5193 28.7449 47.512 28.7772 47.4882 28.792C47.4754 28.8003 47.3693 28.8733 47.4187 29.0155C47.448 29.0995 47.4854 29.1651 47.5193 29.2232C47.5613 29.2962 47.5942 29.3534 47.5878 29.4135C47.5769 29.5187 47.4196 29.5815 47.3721 29.599C47.3675 29.6018 47.362 29.6027 47.3565 29.6027Z" fill="#C43F52"/>
<path d="M47.4188 29.9795C47.3959 29.9795 47.3722 29.9776 47.3475 29.9721C47.1408 29.9296 47.0622 29.8188 47.0202 29.7588C47.0147 29.7514 47.0101 29.7449 47.0055 29.7394C46.9882 29.7172 46.9909 29.684 47.0119 29.6646C47.033 29.6461 47.0641 29.6489 47.0823 29.6711C47.0878 29.6775 47.0933 29.6858 47.0997 29.6951C47.1363 29.7468 47.1975 29.8336 47.3658 29.8677C47.5486 29.9056 47.6803 29.7302 47.6821 29.7283C47.6985 29.7052 47.7305 29.7015 47.7525 29.7191C47.7744 29.7366 47.7781 29.7699 47.7607 29.793C47.7543 29.8022 47.6217 29.9795 47.4188 29.9795Z" fill="#C43F52"/>
<path d="M48.8762 48.7888C48.8762 48.7888 48.5526 49.6826 48.7519 49.9467C48.9512 50.2108 49.113 50.3244 49.2255 50.727C49.3379 51.1296 49.7612 51.7972 49.9861 51.9357C50.2101 52.0742 50.6591 52.137 50.7715 51.9865C50.884 51.835 51.1583 51.5331 50.9461 51.281C50.734 51.0289 50.5475 50.1609 50.4223 49.9209C50.2979 49.6817 50.2723 49.4121 50.2979 49.1526C50.3235 48.8931 50.3976 48.3973 50.3976 48.3973L48.8762 48.7888Z" fill="#2E738F"/>
<path d="M44.2838 38.0766C44.2838 38.0766 43.5524 41.29 45.647 41.29C47.7416 41.29 48.8716 41.29 48.8716 41.29C48.8716 41.29 48.6385 43.4756 48.6056 45.5237C48.5727 47.5718 48.6056 48.9485 48.8716 49.015C49.1377 49.0824 50.2677 49.1831 50.4671 48.6623C50.6664 48.1415 51.7964 40.0841 51.3649 39.1441C50.9324 38.2041 50.2677 38.1828 49.4705 38.0757C48.6714 37.9695 44.9814 37.7802 44.2838 38.0766Z" fill="#23375C"/>
<path d="M47.2151 48.7888C47.2151 48.7888 46.8914 49.6826 47.0907 49.9467C47.29 50.2108 47.4519 50.3244 47.5643 50.727C47.6768 51.1296 48.1001 51.7972 48.325 51.9357C48.549 52.0742 48.9979 52.137 49.1104 51.9865C49.2228 51.835 49.4971 51.5331 49.285 51.281C49.0729 51.0289 48.8864 50.1609 48.7611 49.9209C48.6368 49.6817 48.6112 49.4121 48.6368 49.1526C48.6624 48.8931 48.7364 48.3973 48.7364 48.3973L47.2151 48.7888Z" fill="#2E738F"/>
<path d="M42.6774 38.0766C42.6774 38.0766 41.946 41.29 44.0406 41.29C46.1352 41.29 47.2652 41.29 47.2652 41.29C47.2652 41.29 47.0321 43.4756 46.9992 45.5237C46.9662 47.5718 46.9992 48.9485 47.2652 49.015C47.5313 49.0824 48.6613 49.1831 48.8606 48.6623C49.0599 48.1415 50.19 40.0841 49.7584 39.1441C49.326 38.2041 48.6613 38.1828 47.8641 38.0757C47.065 37.9695 43.375 37.7802 42.6774 38.0766Z" fill="#2D4D9D"/>
<path d="M44.772 30.1807C44.772 30.1807 43.7755 30.1142 42.7533 31.7754C41.7312 33.4375 41.7558 35.8983 42.2047 37.1818C42.6537 38.4662 42.6774 38.0756 42.6774 38.0756H49.0353C49.0353 38.0756 49.0106 36.6767 49.0353 36.2732C49.06 35.8706 48.7857 35.2409 49.0353 35.3664C49.2849 35.492 50.382 35.7192 50.4067 35.6435C50.4314 35.5677 49.8334 31.9924 49.5345 31.7662C49.2355 31.5399 47.6145 30.8853 47.6145 30.8853C47.6145 30.8853 47.2406 31.3386 47.0659 31.3636C46.8913 31.3885 44.772 30.1807 44.772 30.1807Z" fill="#6FC390"/>
<path d="M47.8111 30.7652C47.8111 30.7652 47.8587 31.1632 47.8111 31.214C47.7636 31.2648 47.4646 31.214 47.4646 31.214V30.7652C47.4646 30.7652 47.7928 30.5556 47.8111 30.7652Z" fill="#B0D9AC"/>
<path d="M47.017 31.3636L46.9146 37.9984L47.0142 37.9999L47.1167 31.3652L47.017 31.3636Z" fill="#45BC9A"/>
<path d="M43.2928 32.9001C43.2928 32.9001 42.9773 33.9112 43.4089 34.6813C43.8413 35.4514 45.7193 35.7367 45.7357 36.2067C45.7522 36.6767 45.4532 37.6333 45.1707 37.6841C44.8882 37.7349 43.6914 37.5669 42.927 36.9962C42.1627 36.4256 41.9515 34.3359 41.9515 34.3359C41.9515 34.3359 41.8647 36.2409 42.554 36.8789C43.2425 37.517 45.0226 37.9067 45.2045 37.9177C45.3855 37.9288 45.7458 37.0969 45.8655 36.6767C45.9853 36.2575 46.0777 35.9048 45.8655 35.7533C45.6534 35.6019 43.8578 34.8974 43.6256 34.5613C43.3924 34.2261 43.2928 32.9001 43.2928 32.9001Z" fill="#45BC9A"/>
<path d="M46.0565 36.8411L46.8858 34.8023C46.9599 34.6204 47.1537 34.5188 47.3429 34.5622L50.5118 35.2908C50.7706 35.3499 50.9004 35.6435 50.7724 35.878L49.7923 37.6703C49.7109 37.819 49.5463 37.9003 49.3809 37.8735L46.3628 37.3915C46.1087 37.3518 45.9587 37.0821 46.0565 36.8411Z" fill="#23375C"/>
<path d="M45.7357 36.2076C45.7357 36.2076 45.8856 36.107 46.1343 36.0396C46.3839 35.9722 46.8859 35.8715 46.9133 36.0396C46.9407 36.2076 46.5951 36.2409 46.7661 36.3415C46.9371 36.4422 47.2314 36.3748 47.2314 36.7275C47.2314 37.0802 46.8657 37.3822 46.5997 37.2982C46.3336 37.2141 46.2148 37.1283 45.9917 37.0461C45.7686 36.9639 45.594 37.0156 45.594 37.0156C45.594 37.0156 45.7942 36.3443 45.7357 36.2076Z" fill="#F79E86"/>
<path d="M49.5602 31.2217L48.3772 34.7965L48.4717 34.8284L49.6548 31.2537L49.5602 31.2217Z" fill="#2D4D9D"/>
<path d="M51.057 31.7764L49.9058 35.1457L50 35.1785L51.1512 31.8092L51.057 31.7764Z" fill="#2D4D9D"/>
<path d="M49.9551 31.1291C49.9551 31.2962 49.8207 31.431 49.6561 31.431C49.4907 31.431 49.3572 31.2962 49.3572 31.1291C49.3572 30.962 49.4916 30.8271 49.6561 30.8271C49.8207 30.8271 49.9551 30.9629 49.9551 31.1291Z" fill="#2D4D9D"/>
<path d="M51.4087 31.6757C51.4087 31.8429 51.2743 31.9777 51.1098 31.9777C50.9443 31.9777 50.8108 31.8419 50.8108 31.6757C50.8108 31.5086 50.9443 31.3738 51.1098 31.3738C51.2752 31.3738 51.4087 31.5095 51.4087 31.6757Z" fill="#2D4D9D"/>
<path d="M45.3947 29.8539C45.3947 29.8539 44.5472 30.2315 44.8215 30.5335C45.0958 30.8354 46.2907 31.9435 46.5668 31.6166C46.8429 31.2897 47.0907 31.214 46.8914 30.937C46.6912 30.6591 45.3947 29.8539 45.3947 29.8539Z" fill="#B0D9AC"/>
</svg>
