<svg width="82" height="76" viewBox="0 0 82 76" fill="none" xmlns="http://www.w3.org/2000/svg">
<path d="M79.8102 71.2614H32.1047V2.6438H76.2929C78.2355 2.6438 79.8102 4.22806 79.8102 6.18235V71.2614Z" fill="#E9EEF8"/>
<path d="M40.908 71.2614H32.1047V23.2917H39.8026C40.4136 23.2917 40.908 23.7892 40.908 24.4039V71.2614Z" fill="white"/>
<path d="M39.1936 71.2614H32.1047V0H35.6763C37.6188 0 39.1936 1.58426 39.1936 3.53855V71.2614Z" fill="#51759F"/>
<path d="M74.4459 71.5637H46.3066V10.9139C46.3066 10.188 46.8915 9.59961 47.6131 9.59961H73.1395C73.8611 9.59961 74.4459 10.188 74.4459 10.9139V71.5637Z" fill="#92B2DD"/>
<path d="M73.1315 11.7228V71.5637H47.6201V11.7228C47.6201 11.3274 47.9387 11.007 48.3316 11.007H72.42C72.8129 11.007 73.1315 11.3274 73.1315 11.7228Z" fill="#E9EEF8"/>
<path d="M73.1313 16.9618H61.8669V42.8771H73.1313V16.9618Z" fill="white"/>
<path d="M61.8671 11.007V71.5637H47.6201V11.7228C47.6201 11.3274 47.9387 11.007 48.3316 11.007H61.8671Z" fill="white"/>
<path d="M61.8671 11.007V71.5637H47.6201V11.7228C47.6201 11.3274 47.9387 11.007 48.3316 11.007H61.8671Z" fill="white"/>
<path d="M76.8536 11.007H73.1313V71.7174H76.8536V11.007Z" fill="#92B2DD"/>
<path d="M78.0587 71.6133H76.8547V11.007H77.3552C77.7441 11.007 78.0587 11.3234 78.0587 11.7147V71.6133Z" fill="white"/>
<path d="M73.1313 16.3279H61.8669V16.9608H73.1313V16.3279Z" fill="#92B2DD"/>
<path d="M71.2432 44.2218H71.0251C70.8583 44.2218 70.7236 44.0863 70.7236 43.9185V16.1115C70.7236 15.9437 70.8583 15.8082 71.0251 15.8082H71.2432C71.41 15.8082 71.5447 15.9437 71.5447 16.1115V43.9185C71.5447 44.0853 71.41 44.2218 71.2432 44.2218Z" fill="#CDDDF1"/>
<path d="M69.0454 44.2218H68.8274C68.6605 44.2218 68.5259 44.0863 68.5259 43.9185V16.1115C68.5259 15.9437 68.6605 15.8082 68.8274 15.8082H69.0454C69.2123 15.8082 69.3469 15.9437 69.3469 16.1115V43.9185C69.3469 44.0853 69.2123 44.2218 69.0454 44.2218Z" fill="#CDDDF1"/>
<path d="M66.8486 44.2218H66.6306C66.4638 44.2218 66.3291 44.0863 66.3291 43.9185V16.1115C66.3291 15.9437 66.4638 15.8082 66.6306 15.8082H66.8486C67.0155 15.8082 67.1501 15.9437 67.1501 16.1115V43.9185C67.1501 44.0853 67.0145 44.2218 66.8486 44.2218Z" fill="#CDDDF1"/>
<path d="M64.6509 44.2218H64.4328C64.266 44.2218 64.1313 44.0863 64.1313 43.9185V16.1115C64.1313 15.9437 64.266 15.8082 64.4328 15.8082H64.6509C64.8177 15.8082 64.9524 15.9437 64.9524 16.1115V43.9185C64.9524 44.0853 64.8177 44.2218 64.6509 44.2218Z" fill="#CDDDF1"/>
<path d="M73.1315 62.8174H64.493C64.1041 62.8174 63.7896 62.501 63.7896 62.1097V61.5425C63.7896 61.1513 64.1041 60.8348 64.493 60.8348H73.1315V62.8174Z" fill="#FFD38E"/>
<path d="M73.1325 62.8174H64.5564V71.6142H73.1325V62.8174Z" fill="#F69782"/>
<path d="M70.7779 64.7262H68.6615C68.3289 64.7262 68.0596 64.4553 68.0596 64.1206C68.0596 63.786 68.3289 63.515 68.6615 63.515H70.7779C71.1106 63.515 71.3799 63.786 71.3799 64.1206C71.3799 64.4553 71.1106 64.7262 70.7779 64.7262Z" fill="#D65F48"/>
<path d="M73.1324 53.0439H65.1401V60.8348H73.1324V53.0439Z" fill="#F69782"/>
<path d="M68.8442 53.9326H66.563V55.5482H68.8442V53.9326Z" fill="#D65F48"/>
<path d="M69.9928 57.8604H66.563V58.5944H69.9928V57.8604Z" fill="#D65F48"/>
<path d="M69.9928 59.0352H66.563V59.7692H69.9928V59.0352Z" fill="#D65F48"/>
<path d="M69.2433 49.9209H68.8695H67.4455C67.1993 49.9209 67.0174 50.1504 67.0716 50.392L67.6716 53.0439H68.8695H69.2433H70.4412L71.0412 50.392C71.0954 50.1504 70.9135 49.9209 70.6673 49.9209H69.2433Z" fill="#92B2DD"/>
<path d="M68.8061 48.1981C68.8061 48.1981 69.4241 46.6867 68.1237 46.0669C66.8233 45.4472 66.345 47.1821 66.8645 48.091C67.3841 48.9988 68.585 48.7319 68.8061 48.1981Z" fill="#45BC9A"/>
<path d="M69.3469 48.6865C69.3469 48.6865 68.6565 47.0577 70.176 46.7686C71.6955 46.4794 71.8181 47.8291 71.3257 48.5995C70.8332 49.3709 69.572 49.1182 69.3469 48.6865Z" fill="#6FC390"/>
<path d="M70.5216 48.1203C70.5015 48.1132 70.0332 47.9646 69.4825 48.462C69.3709 48.5631 69.2765 48.6824 69.1981 48.8088C68.978 47.727 67.5942 47.0112 67.5319 46.9799C67.5047 46.9657 67.4716 46.9768 67.4585 47.0041C67.4444 47.0314 67.4555 47.0648 67.4826 47.0779C67.4977 47.086 68.9971 47.8604 69.1116 48.9614C68.8805 49.4103 68.8182 49.8855 68.8152 49.9138C68.8112 49.9441 68.8323 49.9714 68.8624 49.9755C68.8644 49.9755 68.8674 49.9755 68.8695 49.9755C68.8966 49.9755 68.9207 49.9553 68.9237 49.9269C68.9247 49.9178 69.0443 49.0049 69.5558 48.5429C70.0573 48.091 70.4703 48.2183 70.4874 48.2234C70.5165 48.2335 70.5467 48.2173 70.5567 48.189C70.5658 48.1617 70.5507 48.1304 70.5216 48.1203Z" fill="#2D4D9D"/>
<path d="M61.8671 11.007H60.4973V71.5637H61.8671V11.007Z" fill="#92B2DD"/>
<path d="M33.4322 71.2614H6.85664C4.9141 71.2614 3.33936 69.6771 3.33936 67.7228V3.53855C3.33936 1.58426 4.9141 0 6.85664 0H33.4322C35.3748 0 36.9495 1.58426 36.9495 3.53855V67.7228C36.9495 69.6771 35.3748 71.2614 33.4322 71.2614Z" fill="#51759F"/>
<path d="M35.0189 71.2614H8.44331C6.50076 71.2614 4.92603 69.6771 4.92603 67.7228V3.53855C4.92603 1.58426 6.50076 0 8.44331 0H35.0189C36.9615 0 38.5362 1.58426 38.5362 3.53855V67.7228C38.5362 69.6771 36.9615 71.2614 35.0189 71.2614Z" fill="#92B2DD"/>
<path d="M37.2229 3.35961V66.9009C37.2229 67.9655 36.3647 68.8279 35.3075 68.8279H8.70374C7.64554 68.8279 6.78833 67.9645 6.78833 66.9009V3.35961C6.78833 2.29501 7.64655 1.43262 8.70374 1.43262H15.7102V1.92802C15.7102 2.62764 16.2739 3.19482 16.9694 3.19482H27.8599C28.5553 3.19482 29.1191 2.62764 29.1191 1.92802V1.43262H35.3065C36.3647 1.43161 37.2229 2.29501 37.2229 3.35961Z" fill="white"/>
<path d="M11.1529 9.88468C10.5268 9.88468 10.0173 9.3721 10.0173 8.74224C10.0173 8.11238 10.5268 7.59979 11.1529 7.59979C11.779 7.59979 12.2885 8.11238 12.2885 8.74224C12.2885 9.3721 11.78 9.88468 11.1529 9.88468ZM11.1529 7.82019C10.6474 7.82019 10.2364 8.2337 10.2364 8.74224C10.2364 9.25078 10.6474 9.66428 11.1529 9.66428C11.6584 9.66428 12.0694 9.25078 12.0694 8.74224C12.0694 8.2337 11.6584 7.82019 11.1529 7.82019Z" fill="#6FC390"/>
<path d="M11.1526 9.362C11.4929 9.362 11.7687 9.08453 11.7687 8.74225C11.7687 8.39997 11.4929 8.1225 11.1526 8.1225C10.8124 8.1225 10.5366 8.39997 10.5366 8.74225C10.5366 9.08453 10.8124 9.362 11.1526 9.362Z" fill="#6FC390"/>
<path d="M11.1529 19.4074C10.5268 19.4074 10.0173 18.8949 10.0173 18.265C10.0173 17.6351 10.5268 17.1226 11.1529 17.1226C11.779 17.1226 12.2885 17.6351 12.2885 18.265C12.2895 18.8949 11.78 19.4074 11.1529 19.4074ZM11.1529 17.343C10.6474 17.343 10.2364 17.7565 10.2364 18.265C10.2364 18.7735 10.6474 19.187 11.1529 19.187C11.6584 19.187 12.0694 18.7735 12.0694 18.265C12.0704 17.7565 11.6584 17.343 11.1529 17.343Z" fill="#6FC390"/>
<path d="M11.7687 18.265C11.7687 18.6067 11.4933 18.8848 11.1526 18.8848C10.812 18.8848 10.5366 18.6078 10.5366 18.265C10.5366 17.9233 10.812 17.6453 11.1526 17.6453C11.4933 17.6453 11.7687 17.9233 11.7687 18.265Z" fill="#6FC390"/>
<path d="M11.5327 30.0787C11.401 30.0787 11.2754 30.0241 11.192 29.9291L9.969 28.5399C9.87353 28.4318 9.89162 28.273 10.0092 28.1851C10.1268 28.0971 10.2986 28.1143 10.3941 28.2225L11.3026 29.2547C11.4191 29.3872 11.6081 29.373 11.7085 29.2234L13.3968 26.7272C13.4772 26.6089 13.6451 26.5725 13.7737 26.6463C13.9023 26.7201 13.9415 26.8758 13.8611 26.9931L11.9025 29.8886C11.8281 29.9988 11.6985 30.0696 11.5578 30.0777C11.5508 30.0787 11.5417 30.0787 11.5327 30.0787Z" fill="#6FC390"/>
<path d="M11.2082 10.6834H11.0986V16.1035H11.2082V10.6834Z" fill="#CDDDF1"/>
<path d="M11.2082 21.1787H11.0986V26.5988H11.2082V21.1787Z" fill="#CDDDF1"/>
<path d="M24.9711 9.0314H15.8674C15.7006 9.0314 15.5659 8.89592 15.5659 8.7281V8.4258C15.5659 8.25797 15.7006 8.1225 15.8674 8.1225H24.9711C25.138 8.1225 25.2726 8.25797 25.2726 8.4258V8.7281C25.2726 8.89592 25.138 9.0314 24.9711 9.0314Z" fill="#CDDDF1"/>
<path d="M20.1158 11.1383H15.865C15.6981 11.1383 15.5635 11.0029 15.5635 10.835V10.5327C15.5635 10.3649 15.6981 10.2294 15.865 10.2294H20.1158C20.2827 10.2294 20.4173 10.3649 20.4173 10.5327V10.835C20.4173 11.0018 20.2827 11.1383 20.1158 11.1383Z" fill="#CDDDF1"/>
<path d="M30.9179 9.0314H26.667C26.5001 9.0314 26.3655 8.89592 26.3655 8.7281V8.4258C26.3655 8.25797 26.5001 8.1225 26.667 8.1225H30.9179C31.0847 8.1225 31.2193 8.25797 31.2193 8.4258V8.7281C31.2193 8.89592 31.0847 9.0314 30.9179 9.0314Z" fill="#CDDDF1"/>
<path d="M24.9711 17.9415H15.8674C15.7006 17.9415 15.5659 17.806 15.5659 17.6382V17.3359C15.5659 17.1681 15.7006 17.0326 15.8674 17.0326H24.9711C25.138 17.0326 25.2726 17.1681 25.2726 17.3359V17.6382C25.2726 17.806 25.138 17.9415 24.9711 17.9415Z" fill="#CDDDF1"/>
<path d="M20.1158 20.0485H15.865C15.6981 20.0485 15.5635 19.913 15.5635 19.7452V19.4429C15.5635 19.2751 15.6981 19.1396 15.865 19.1396H20.1158C20.2827 19.1396 20.4173 19.2751 20.4173 19.4429V19.7452C20.4173 19.912 20.2827 20.0485 20.1158 20.0485Z" fill="#CDDDF1"/>
<path d="M30.9179 17.9415H26.667C26.5001 17.9415 26.3655 17.806 26.3655 17.6382V17.3359C26.3655 17.1681 26.5001 17.0326 26.667 17.0326H30.9179C31.0847 17.0326 31.2193 17.1681 31.2193 17.3359V17.6382C31.2193 17.806 31.0847 17.9415 30.9179 17.9415Z" fill="#CDDDF1"/>
<path d="M24.9711 26.8516H15.8674C15.7006 26.8516 15.5659 26.7161 15.5659 26.5483V26.246C15.5659 26.0782 15.7006 25.9427 15.8674 25.9427H24.9711C25.138 25.9427 25.2726 26.0782 25.2726 26.246V26.5483C25.2726 26.7161 25.138 26.8516 24.9711 26.8516Z" fill="#CDDDF1"/>
<path d="M20.1158 28.9575H15.865C15.6981 28.9575 15.5635 28.8221 15.5635 28.6542V28.3519C15.5635 28.1841 15.6981 28.0486 15.865 28.0486H20.1158C20.2827 28.0486 20.4173 28.1841 20.4173 28.3519V28.6542C20.4173 28.8221 20.2827 28.9575 20.1158 28.9575Z" fill="#CDDDF1"/>
<path d="M30.9179 26.8516H26.667C26.5001 26.8516 26.3655 26.7161 26.3655 26.5483V26.246C26.3655 26.0782 26.5001 25.9427 26.667 25.9427H30.9179C31.0847 25.9427 31.2193 26.0782 31.2193 26.246V26.5483C31.2193 26.7161 31.0847 26.8516 30.9179 26.8516Z" fill="#CDDDF1"/>
<path d="M10.4834 55.8434C10.7185 55.4471 10.9235 54.7788 10.4633 54.247C10.003 53.7152 10.5276 53.4948 10.5949 52.8164C10.6633 52.137 9.77892 52.0794 9.82917 51.2038C9.84927 50.848 9.60205 50.2656 9.19405 50.2262C8.68555 50.1777 8.3921 50.7823 8.41622 51.2038C8.46647 52.0794 7.58212 52.137 7.65046 52.8164C7.71879 53.4958 8.24237 53.7152 7.78211 54.247C7.32184 54.7788 7.52685 55.4461 7.76201 55.8434C7.99716 56.2407 7.48364 56.9191 7.71779 57.5085C7.95094 58.0959 8.46044 58.9593 9.1227 58.9401C9.78495 58.9593 10.2935 58.0959 10.5276 57.5085C10.7628 56.9191 10.2492 56.2397 10.4834 55.8434Z" fill="#E9EEF8"/>
<path d="M9.15579 51.6588V61.1835H9.11157V51.6588C9.11157 51.6426 9.12162 51.6295 9.13368 51.6295C9.14574 51.6295 9.15579 51.6426 9.15579 51.6588Z" fill="#92B2DD"/>
<path d="M9.13369 53.7466C9.12766 53.7466 9.12063 53.7435 9.11661 53.7385L8.39908 52.8366C8.39104 52.8275 8.39305 52.8134 8.40209 52.8053C8.41114 52.7972 8.42521 52.7992 8.43325 52.8083L9.15077 53.7102C9.15881 53.7193 9.1568 53.7334 9.14776 53.7415C9.14374 53.7445 9.13872 53.7466 9.13369 53.7466Z" fill="#92B2DD"/>
<path d="M9.13359 58.387C9.12756 58.387 9.12153 58.385 9.11751 58.38C9.10947 58.3709 9.11048 58.3567 9.11952 58.3486L9.96668 57.5803C9.97573 57.5722 9.9898 57.5732 9.99784 57.5823C10.0059 57.5914 10.0049 57.6055 9.99583 57.6136L9.14866 58.382C9.14465 58.385 9.13862 58.387 9.13359 58.387Z" fill="#92B2DD"/>
<path d="M9.13364 52.2866C9.12761 52.2866 9.12158 52.2846 9.11756 52.2795L8.81206 51.9499C8.80402 51.9408 8.80402 51.9267 8.81307 51.9186C8.82211 51.9105 8.83618 51.9105 8.84422 51.9196L9.14972 52.2492C9.15776 52.2583 9.15776 52.2725 9.14872 52.2805C9.1447 52.2846 9.13967 52.2866 9.13364 52.2866Z" fill="#92B2DD"/>
<path d="M9.13362 54.71C9.12759 54.71 9.12156 54.7069 9.11654 54.7019C9.1085 54.6928 9.1095 54.6786 9.11855 54.6705L9.91044 53.98C9.91948 53.9719 9.93355 53.973 9.94159 53.9821C9.94963 53.9912 9.94863 54.0053 9.93958 54.0134L9.14769 54.7039C9.14367 54.709 9.13864 54.71 9.13362 54.71Z" fill="#92B2DD"/>
<path d="M9.13366 55.997C9.12763 55.997 9.12261 55.995 9.11758 55.9899L8.13274 54.9688C8.1247 54.9597 8.1247 54.9456 8.13274 54.9375C8.14178 54.9294 8.15585 54.9294 8.16389 54.9375L9.14873 55.9586C9.15677 55.9677 9.15677 55.9818 9.14873 55.9899C9.14471 55.995 9.13969 55.997 9.13366 55.997Z" fill="#92B2DD"/>
<path d="M14.2803 56.5562C14.5315 56.1305 14.7516 55.4147 14.2592 54.8445C13.7657 54.2743 14.3275 54.0387 14.4009 53.3098C14.4732 52.5819 13.5256 52.5192 13.5798 51.581C13.6019 51.1988 13.3356 50.575 12.8995 50.5325C12.3548 50.48 12.0392 51.128 12.0654 51.581C12.1186 52.5192 11.171 52.5819 11.2443 53.3098C11.3167 54.0377 11.8795 54.2743 11.386 54.8445C10.8926 55.4147 11.1127 56.1305 11.3649 56.5562C11.6162 56.9818 11.0665 57.7087 11.3177 58.3416C11.5679 58.9715 12.1136 59.8976 12.8241 59.8763C13.5336 59.8976 14.0803 58.9705 14.3305 58.3416C14.5787 57.7097 14.028 56.9818 14.2803 56.5562Z" fill="#E9EEF8"/>
<path d="M12.8563 52.0693V62.2826H12.8091V52.0693C12.8091 52.0521 12.8191 52.038 12.8332 52.038C12.8463 52.038 12.8563 52.0511 12.8563 52.0693Z" fill="#92B2DD"/>
<path d="M12.8331 54.3077C12.8261 54.3077 12.819 54.3046 12.815 54.2986L12.0462 53.3321C12.0382 53.3219 12.0402 53.3068 12.0502 53.2987C12.0603 53.2906 12.0754 53.2926 12.0834 53.3027L12.8522 54.2693C12.8602 54.2794 12.8582 54.2945 12.8482 54.3026C12.8431 54.3057 12.8381 54.3077 12.8331 54.3077Z" fill="#92B2DD"/>
<path d="M12.8331 59.2839C12.8271 59.2839 12.82 59.2809 12.816 59.2758C12.807 59.2657 12.808 59.2515 12.818 59.2424L13.7265 58.4185C13.7365 58.4094 13.7506 58.4104 13.7597 58.4205C13.7687 58.4306 13.7677 58.4448 13.7576 58.4539L12.8492 59.2778C12.8442 59.2819 12.8381 59.2839 12.8331 59.2839Z" fill="#92B2DD"/>
<path d="M12.8332 52.7416C12.8271 52.7416 12.8201 52.7386 12.8161 52.7346L12.4885 52.3807C12.4794 52.3716 12.4804 52.3564 12.4895 52.3473C12.4985 52.3382 12.5136 52.3393 12.5226 52.3484L12.8503 52.7022C12.8593 52.7113 12.8583 52.7265 12.8493 52.7356C12.8442 52.7396 12.8382 52.7416 12.8332 52.7416Z" fill="#92B2DD"/>
<path d="M12.8331 55.341C12.8261 55.341 12.82 55.3379 12.815 55.3329C12.807 55.3228 12.808 55.3076 12.817 55.2995L13.6662 54.5584C13.6763 54.5494 13.6913 54.5514 13.6994 54.5605C13.7084 54.5706 13.7064 54.5857 13.6974 54.5938L12.8482 55.3349C12.8442 55.34 12.8381 55.341 12.8331 55.341Z" fill="#92B2DD"/>
<path d="M12.8331 56.721C12.8271 56.721 12.821 56.719 12.816 56.7139L11.7608 55.619C11.7518 55.6099 11.7518 55.5947 11.7618 55.5856C11.7709 55.5765 11.7859 55.5765 11.795 55.5856L12.8502 56.6806C12.8592 56.6897 12.8592 56.7048 12.8492 56.7139C12.8441 56.719 12.8391 56.721 12.8331 56.721Z" fill="#92B2DD"/>
<path d="M37.2229 60.2474V66.9009C37.2229 67.9655 36.3647 68.8279 35.3075 68.8279H8.70374C7.64554 68.8279 6.78833 67.9645 6.78833 66.9009V60.2474H37.2229Z" fill="#E9EEF8"/>
<path d="M14.9253 64.9466H9.52478C9.30269 64.9466 9.1228 64.7656 9.1228 64.5422V64.1762C9.1228 63.9528 9.30269 63.7718 9.52478 63.7718H14.9243C15.1464 63.7718 15.3263 63.9528 15.3263 64.1762V64.5422C15.3273 64.7656 15.1474 64.9466 14.9253 64.9466Z" fill="white"/>
<path d="M17.48 66.8847H14.3627C14.1406 66.8847 13.9607 66.7037 13.9607 66.4803V66.1143C13.9607 65.8909 14.1406 65.7099 14.3627 65.7099H17.48C17.7021 65.7099 17.882 65.8909 17.882 66.1143V66.4803C17.882 66.7037 17.7021 66.8847 17.48 66.8847Z" fill="white"/>
<path d="M30.3279 66.8847H27.2106C26.9885 66.8847 26.8086 66.7037 26.8086 66.4803V66.1143C26.8086 65.8909 26.9885 65.7099 27.2106 65.7099H30.3279C30.55 65.7099 30.7299 65.8909 30.7299 66.1143V66.4803C30.7299 66.7037 30.55 66.8847 30.3279 66.8847Z" fill="white"/>
<path d="M23.2905 64.9466H20.1732C19.9511 64.9466 19.7712 64.7656 19.7712 64.5422V64.1762C19.7712 63.9528 19.9511 63.7718 20.1732 63.7718H23.2905C23.5126 63.7718 23.6925 63.9528 23.6925 64.1762V64.5422C23.6925 64.7656 23.5116 64.9466 23.2905 64.9466Z" fill="white"/>
<path d="M37.2229 53.4696C32.7841 53.4696 31.4867 47.8746 31.2194 46.3804V44.1672C31.2194 43.9539 31.0475 43.782 30.8365 43.782H23.1658C23.1186 43.782 23.0743 43.7911 23.0321 43.8063C22.9507 43.7901 22.8673 43.782 22.7819 43.782H12.9184C12.1929 43.782 11.605 44.3735 11.605 45.1034V51.0512C11.605 51.7812 12.1929 52.3726 12.9184 52.3726H22.7819V55.0528C22.7819 55.2662 22.9538 55.438 23.1648 55.438H30.8355C31.0475 55.438 31.2184 55.2652 31.2184 55.0528V53.4696H37.2229Z" fill="#45BC9A"/>
<path d="M23.6241 42.588H14.247C13.9144 42.588 13.644 42.316 13.644 41.9814V33.3099C13.644 32.9753 13.9144 32.7033 14.247 32.7033H23.6241C23.9567 32.7033 24.2271 32.9753 24.2271 33.3099V41.9814C24.2271 42.316 23.9577 42.588 23.6241 42.588Z" fill="#FFD38E"/>
<path d="M18.0598 34.327H14.7756V35.6302H18.0598V34.327Z" fill="#F69782"/>
<path d="M15.9986 38.182H14.7756V39.4114H15.9986V38.182Z" fill="#F69782"/>
<path d="M23.3116 38.3599H20.6997V41.2605H23.3116V38.3599Z" fill="#F69782"/>
<path d="M15.9986 40.2657H14.7756V41.4961H15.9986V40.2657Z" fill="#F69782"/>
<path d="M20.0676 32.7033H18.936V42.588H20.0676V32.7033Z" fill="#F69782"/>
<path d="M30.8094 42.588H11.6503C11.3227 42.588 11.0574 42.8549 11.0574 43.1845C11.0574 43.514 11.3227 43.781 11.6503 43.781H30.8094C31.1371 43.781 31.4024 43.514 31.4024 43.1845C31.4024 42.8549 31.1371 42.588 30.8094 42.588Z" fill="#B0D9AC"/>
<path d="M15.5454 54.0236H10.5107C10.178 54.0236 9.90771 53.7516 9.90771 53.417V51.7528C9.90771 51.4182 10.178 51.1462 10.5107 51.1462H15.5454C15.8781 51.1462 16.1484 51.4182 16.1484 51.7528V53.417C16.1484 53.7526 15.8781 54.0236 15.5454 54.0236Z" fill="#CDDDF1"/>
<path d="M23.8974 55.9526L19.6947 55.2894L21.7318 54.9669L21.6946 54.6838L19.2827 55.0639L19.1762 54.8203L20.3761 52.0663L20.1399 51.9429L19.0315 54.4866L17.923 51.9429L17.6869 52.0663L18.8868 54.8203L18.7471 55.1398L16.1775 54.7333L16.1403 55.0174L17.8617 55.2894L13.9736 55.9031L14.0108 56.1872L18.6074 55.4602L16.7834 59.6479L17.0206 59.7712L18.9008 55.4532L19.1812 55.4977L21.0424 59.7712L21.2795 59.6479L19.4928 55.5462L23.8602 56.2367L23.8974 55.9526Z" fill="#CDDDF1"/>
<path d="M23.2936 57.8038L19.3753 55.1013L21.7942 53.4331L21.5359 52.9852L19.2547 54.5594V51.7114H18.7713V54.6848L16.6951 53.2522L16.4369 53.7L18.4689 55.1013L14.9375 57.5368L15.1948 57.9847L18.7713 55.5178V60.2474H19.2547V55.6432L23.0353 58.2516L23.2936 57.8038Z" fill="#CDDDF1"/>
<path d="M19.0126 48.8654C15.7676 48.8654 13.1377 51.5123 13.1377 54.7758C13.1377 58.0394 15.7686 60.6862 19.0126 60.6862C22.2575 60.6862 24.8874 58.0394 24.8874 54.7758C24.8874 51.5123 22.2575 48.8654 19.0126 48.8654ZM19.0126 59.5124C16.4128 59.5124 14.3054 57.3923 14.3054 54.7768C14.3054 52.1613 16.4128 50.0412 19.0126 50.0412C21.6123 50.0412 23.7197 52.1613 23.7197 54.7768C23.7197 57.3923 21.6133 59.5124 19.0126 59.5124Z" fill="#294A71"/>
<path d="M20.2174 55.438L17.5894 62.1926H16.8599L19.1813 55.4976L20.2174 55.438Z" fill="#92B2DD"/>
<path d="M17.9149 62.3867H15.1373C15.0267 62.3867 14.9363 62.2958 14.9363 62.1845V62.0652C14.9363 61.954 15.0267 61.863 15.1373 61.863H17.9149C18.0255 61.863 18.1159 61.954 18.1159 62.0652V62.1845C18.1159 62.2958 18.0265 62.3867 17.9149 62.3867Z" fill="#294A71"/>
<path d="M11.0574 49.8936C11.0574 49.8936 11.2212 54.6848 12.4804 55.1802C13.7396 55.6756 24.7969 56.3368 25.5084 55.1802C26.2199 54.0236 24.402 48.4246 24.402 48.4246L11.0574 49.8936Z" fill="#F69782"/>
<path d="M14.7797 45.6534C14.7797 45.6534 12.0423 45.2682 11.0574 46.9202C10.0726 48.5722 10.6193 50.7752 11.0574 50.9956C11.4956 51.216 25.7275 51.7114 25.7275 50.0048C25.7275 48.2982 25.3446 45.5766 24.7427 45.615C24.1397 45.6534 14.7797 45.6534 14.7797 45.6534Z" fill="#FFD38E"/>
<path d="M18.6096 51.7114H17.6247C17.3152 51.7114 17.064 51.4587 17.064 51.1473C17.064 50.8359 17.3152 50.5831 17.6247 50.5831H18.6096C18.9191 50.5831 19.1703 50.8359 19.1703 51.1473C19.1703 51.4587 18.9191 51.7114 18.6096 51.7114Z" fill="white"/>
<path d="M14.1376 46.993C13.9486 46.993 13.8019 46.8282 13.821 46.6391C13.8954 45.9233 13.9738 44.3259 14.232 43.5606C14.4501 42.9145 14.6893 42.592 14.8259 42.4484C14.8862 42.3847 14.9697 42.3494 15.0561 42.3494C15.3053 42.3494 15.458 42.6234 15.3264 42.8367C15.1365 43.146 14.9033 43.6061 14.7194 44.2218C14.4491 45.1246 14.4411 46.1498 14.4591 46.6634C14.4652 46.8443 14.3215 46.994 14.1416 46.994H14.1376V46.993Z" fill="white"/>
<path d="M21.0514 46.993C21.2403 46.993 21.3871 46.8282 21.368 46.6391C21.2936 45.9233 21.2152 44.3259 20.9569 43.5606C20.7389 42.9145 20.4997 42.592 20.363 42.4484C20.3027 42.3847 20.2193 42.3494 20.1329 42.3494C19.8837 42.3494 19.7309 42.6234 19.8626 42.8367C20.0525 43.146 20.2856 43.6061 20.4695 44.2218C20.7399 45.1246 20.7469 46.1498 20.7298 46.6634C20.7238 46.8443 20.8675 46.994 21.0474 46.994H21.0514V46.993Z" fill="white"/>
<path d="M37.2229 55.438H28.2388C27.6981 55.438 27.261 54.9972 27.261 54.4543C27.261 53.9104 27.6991 53.4706 28.2388 53.4706H37.2229V55.438Z" fill="#B0D9AC"/>
<path d="M27.6367 17.6866C27.6367 17.6866 26.7493 17.9404 26.3473 16.9415C25.9464 15.9426 25.6901 14.14 25.9273 13.9307C26.1644 13.7214 26.9493 13.685 27.5151 13.5374C28.0809 13.3908 28.7381 13.3352 28.7381 13.3352C28.7381 13.3352 29.34 15.5382 29.0305 16.4926C28.72 17.448 27.6367 17.6866 27.6367 17.6866Z" fill="#481F54"/>
<path d="M28.2456 15.4847C28.2456 15.4847 28.3371 14.6587 27.8989 14.4201C27.4608 14.1815 26.6217 14.6951 26.7312 15.3745C26.8407 16.0539 27.2789 16.1459 27.3693 16.5675C27.4608 16.9901 27.5201 17.3571 27.6366 17.5401C27.7522 17.7241 27.71 18.1679 27.4869 18.5308C27.2638 18.8948 27.0045 19.1182 27.0045 19.1182C27.0045 19.1182 26.6739 20.7136 28.2537 21.0826C29.8334 21.4507 30.2716 22.0037 30.9831 21.2677C31.6946 20.5316 31.4212 20.0726 31.366 19.9078C31.3117 19.7431 31.2564 19.1 31.2383 18.8978C31.2203 18.6956 31.2203 18.6956 31.2203 18.6956C31.2203 18.6956 31.7127 18.7876 31.9137 18.3468C32.1147 17.906 32.8442 16.2904 32.5156 15.52C32.187 14.7486 32.3468 14.3634 32.4131 14.0702C32.4794 13.7771 32.2965 12.9693 32.2242 12.7852C32.1508 12.6012 31.8956 12.2524 31.8956 12.2524L28.7391 13.3352C28.7391 13.3352 28.6215 14.8224 28.6346 15.2622C28.6466 15.704 28.315 16.1893 28.2456 15.4847Z" fill="#C43F52"/>
<path d="M30.982 16.622C30.9649 16.622 30.9468 16.614 30.9368 16.5978C30.9197 16.5725 30.9257 16.5381 30.9508 16.5209C31.1086 16.4128 31.3367 16.2166 31.3468 16.1196C31.3508 16.0872 31.3367 16.0741 31.2473 16.0255C31.1478 15.972 30.9971 15.8901 30.8785 15.6747C30.6644 15.2824 31.0965 14.6354 31.1146 14.6071C31.1317 14.5818 31.1659 14.5757 31.191 14.5929C31.2161 14.6101 31.2222 14.6445 31.2051 14.6698C31.2011 14.6758 30.792 15.2885 30.9739 15.6221C31.0764 15.8092 31.2051 15.8789 31.2985 15.9295C31.3819 15.974 31.4674 16.0205 31.4553 16.1327C31.4352 16.3137 31.0825 16.5644 31.0121 16.6129C31.0041 16.619 30.993 16.622 30.982 16.622Z" fill="#802038"/>
<path d="M30.9821 17.6866C30.5228 17.6866 30.2043 17.2792 30.1902 17.261C30.1721 17.2367 30.1761 17.2024 30.2002 17.1842C30.2244 17.166 30.2585 17.17 30.2766 17.1943C30.2796 17.1983 30.5761 17.5764 30.9811 17.5764C31.372 17.5764 31.4604 17.4076 31.4604 17.4056C31.4735 17.3783 31.5067 17.3672 31.5328 17.3803C31.5599 17.3934 31.572 17.4248 31.5589 17.4521C31.5569 17.4622 31.4504 17.6866 30.9821 17.6866Z" fill="#802038"/>
<path d="M29.7621 15.338C29.8942 15.338 30.0013 15.1407 30.0013 14.8972C30.0013 14.6538 29.8942 14.4564 29.7621 14.4564C29.63 14.4564 29.5229 14.6538 29.5229 14.8972C29.5229 15.1407 29.63 15.338 29.7621 15.338Z" fill="#481F54"/>
<path d="M31.9711 14.8356C31.9711 15.0448 31.8807 15.2147 31.7691 15.2147C31.6576 15.2147 31.5671 15.0448 31.5671 14.8356C31.5671 14.6263 31.6576 14.4564 31.7691 14.4564C31.8807 14.4564 31.9711 14.6263 31.9711 14.8356Z" fill="#481F54"/>
<path d="M29.4817 14.1461C29.5088 14.052 29.6294 13.955 29.7078 13.8994C29.7982 13.8347 29.8977 13.8023 30.0052 13.8428C30.1047 13.8802 30.1469 13.7204 30.0485 13.683C29.9027 13.6284 29.749 13.6689 29.6244 13.7558C29.5048 13.8397 29.3651 13.957 29.3229 14.1016C29.2937 14.2047 29.4525 14.2482 29.4817 14.1461Z" fill="#481F54"/>
<path d="M31.592 13.8994C31.6834 13.8822 31.7688 13.9216 31.8271 13.9914C31.8955 14.0723 32.011 13.955 31.9437 13.8741C31.8462 13.7578 31.6955 13.7123 31.5488 13.7396C31.4443 13.7588 31.4885 13.9186 31.592 13.8994Z" fill="#481F54"/>
<path d="M31.2194 18.6967C31.2194 18.6967 29.5773 18.4581 28.902 18.2559C28.2267 18.0537 28.1353 17.9617 28.1353 17.9617C28.1353 17.9617 29.9049 19.7603 30.1793 19.6319C30.4536 19.5045 31.2194 18.6967 31.2194 18.6967Z" fill="#802038"/>
<path d="M34.1939 11.3355C33.999 11.5316 31.8524 12.576 29.5873 13.3484C28.2537 13.8033 26.878 14.1653 25.8368 14.2037C25.8368 14.2037 24.8339 10.1971 27.1141 9.49946C29.3953 8.80186 30.3983 8.93026 31.0002 9.49946C31.6022 10.0687 31.971 11.8855 31.971 11.8855C31.971 11.8855 31.972 11.8855 31.972 11.8844C32.0373 11.8632 34.5004 11.0271 34.1939 11.3355Z" fill="#6FC390"/>
<path d="M34.1939 11.3355C33.9989 11.5316 31.8524 12.576 29.5873 13.3484C29.4114 13.2331 31.971 11.8855 31.971 11.8855C31.971 11.8855 31.972 11.8855 31.972 11.8844C32.0373 11.8632 34.5004 11.0271 34.1939 11.3355Z" fill="#B0D9AC"/>
<path d="M24.8148 67.4155C24.8148 67.4155 24.5957 68.8471 24.3767 69.3981C24.1576 69.9491 24.5957 71.2341 25.3253 71.3806C26.0549 71.5272 29.2667 71.8214 29.2667 71.3806C29.2667 70.9398 29.1099 70.3161 28.7682 70.132C28.4266 69.948 27.6236 69.8874 27.1865 69.5143C26.7483 69.1413 26.7935 67.9665 26.7935 67.9665L24.8148 67.4155Z" fill="#481F54"/>
<path d="M31.8305 66.9302C31.8305 66.9302 31.6576 68.5529 31.4567 69.1807C31.2557 69.8085 31.735 71.2472 32.4686 71.3918C33.2032 71.5363 36.4221 71.7749 36.408 71.2775C36.3939 70.7801 36.217 70.0805 35.8703 69.8823C35.5236 69.6852 34.7187 69.6397 34.2695 69.2302C33.8203 68.8208 33.4042 66.8837 33.4042 66.8837L31.8305 66.9302Z" fill="#481F54"/>
<path d="M23.3186 36.9799C23.3186 36.9799 22.3699 40.6145 23.3186 47.2599C24.2673 53.9053 24.1215 56.1811 24.1215 57.3559C24.1215 58.5306 24.1949 67.746 24.6321 67.9665C25.0702 68.1869 27.1504 68.3698 27.2961 68.1505C27.4419 67.9301 29.2668 54.1631 29.2668 54.1631C29.2668 54.1631 30.2517 60.9187 30.8355 63.6717C31.4194 66.4257 31.6023 67.2699 32.0395 67.4165C32.4776 67.5631 33.6082 67.4529 33.6454 67.2325C33.6815 67.0121 34.5578 49.5003 34.6302 48.8391C34.7036 48.1779 34.3327 38.4398 34.3327 38.4398L23.3186 36.9799Z" fill="#2D4D9D"/>
<path d="M25.7273 19.3942C25.7273 19.3942 23.1366 20.4952 22.1507 22.4414C21.1659 24.3876 20.2896 26.5896 20.6906 30.5548C21.0915 34.52 23.0622 35.0336 23.026 35.3096C22.9899 35.5846 22.6341 36.7594 23.1587 37.4944C23.6833 38.2284 24.4862 38.2284 24.9605 38.4488C25.4349 38.6692 29.522 39.1828 31.164 39.293C32.8061 39.4032 34.3758 38.7056 34.4482 38.2284C34.5215 37.7512 34.4482 36.1356 34.4482 36.1356L34.4803 25.8556H36.6741C36.6741 25.8556 35.6883 22.4778 34.9959 21.9268C34.3025 21.3758 31.8946 19.7976 31.8946 19.7976C31.8946 19.7976 30.3621 20.936 29.9601 20.936C29.5581 20.936 28.099 20.2384 27.7342 19.9816C27.3694 19.7248 26.6297 18.9251 25.7273 19.3942Z" fill="#6FC390"/>
<path d="M27.0961 18.7886C27.0961 18.7886 29.2758 20.1474 29.1763 20.4042C29.0768 20.661 28.3221 21.4506 28.1382 21.2302C27.9543 21.0098 25.8922 19.652 26.1112 19.3578C26.3293 19.0636 26.6821 18.5237 27.0961 18.7886Z" fill="#B0D9AC"/>
<path d="M31.5299 19.1193C31.6575 19.2295 32.5941 19.8159 32.3811 20.1192C32.168 20.4225 30.5089 21.6185 30.2888 21.2687C30.0687 20.9189 29.7964 20.6247 29.9602 20.3861C30.124 20.1475 31.5299 19.1193 31.5299 19.1193Z" fill="#B0D9AC"/>
<path d="M30.2907 39.2324L30.0224 39.1808C30.0244 39.1677 30.2696 37.822 30.1892 33.8993C30.1078 29.9553 29.529 20.9765 29.5229 20.8855L29.7963 20.8673C29.8023 20.9573 30.3822 29.9432 30.4626 33.8932C30.544 37.8544 30.3008 39.1778 30.2907 39.2324Z" fill="#37AD88"/>
<path d="M25.7273 29.1596V31.6306C25.5635 31.5891 25.3977 31.5305 25.2349 31.4445C24.2883 30.9471 24.0943 28.5348 24.0571 27.3691C24.0622 27.4146 24.3646 30.0716 24.9616 30.5912C25.5635 31.1149 25.7273 29.1596 25.7273 29.1596Z" fill="#37AD88"/>
<path d="M23.0271 35.3097L22.9739 35.5847C22.9739 35.5847 25.4259 36.3005 25.5907 36.6129C25.7545 36.9253 26.3666 37.2832 26.6761 37.2832C26.9866 37.2832 30.7632 37.0082 32.1048 37.0628C33.4464 37.1174 34.4704 36.7312 34.4704 36.7312L23.0271 35.3097Z" fill="#37AD88"/>
<path d="M40.9079 26.2423V36.2281C40.9079 36.4414 40.7371 36.6133 40.525 36.6133H26.1102C25.8981 36.6133 25.7273 36.4414 25.7273 36.2281V26.2423C25.7273 26.029 25.8991 25.8571 26.1102 25.8571H40.525C40.7371 25.8571 40.9079 26.03 40.9079 26.2423Z" fill="#F69782"/>
<path d="M40.9081 26.2409V36.2267C40.9081 36.44 40.7372 36.6119 40.5252 36.6119H31.8948V25.8547H40.5252C40.7372 25.8557 40.9081 26.0286 40.9081 26.2409Z" fill="#FFD38E"/>
<path d="M28.0719 28.8109H26.9775C26.8107 28.8109 26.676 28.6754 26.676 28.5076V27.4066C26.676 27.2387 26.8107 27.1033 26.9775 27.1033H28.0719C28.2387 27.1033 28.3734 27.2387 28.3734 27.4066V28.5076C28.3734 28.6754 28.2387 28.8109 28.0719 28.8109Z" fill="#D65F48"/>
<path d="M38.1122 27.9576H35.238C35.0039 27.9576 34.814 27.7665 34.814 27.531C34.814 27.2954 35.0039 27.1043 35.238 27.1043H38.1122C38.3463 27.1043 38.5363 27.2954 38.5363 27.531C38.5363 27.7665 38.3463 27.9576 38.1122 27.9576Z" fill="#F69782"/>
<path d="M36.1727 35.5846H33.8201C33.5427 35.5846 33.3176 35.3582 33.3176 35.0791V32.7124C33.3176 32.4333 33.5427 32.2068 33.8201 32.2068H36.1727C36.45 32.2068 36.6751 32.4333 36.6751 32.7124V35.0791C36.6751 35.3582 36.45 35.5846 36.1727 35.5846Z" fill="#F69782"/>
<path d="M35.8994 35.3097H34.0945C33.8171 35.3097 33.592 35.0832 33.592 34.8042V32.9884C33.592 32.7094 33.8171 32.4829 34.0945 32.4829H35.8994C36.1767 32.4829 36.4018 32.7094 36.4018 32.9884V34.8042C36.4018 35.0832 36.1767 35.3097 35.8994 35.3097Z" fill="white"/>
<path d="M27.4658 32.6982C27.4658 32.6982 27.8215 32.6385 28.1642 32.4828C28.5059 32.3271 29.4234 31.9642 29.3269 32.2078C29.2315 32.4515 28.7792 32.685 29.0666 32.6992C29.3541 32.7133 30.3399 31.9561 30.4283 32.6992C30.5168 33.4423 30.147 34.062 29.8877 34.1995C29.6274 34.337 28.6104 34.0347 28.3732 34.0347C28.1361 34.0347 27.2598 34.0893 27.2598 34.0893L27.4658 32.6982Z" fill="#C43F52"/>
<path d="M27.698 33.0976C27.4789 35.0246 27.3151 35.7687 26.8498 35.8233C26.3845 35.8778 24.9827 36.1913 22.9597 35.1944C20.9378 34.1986 20.5267 26.7909 21.8412 24.2027C23.1547 21.6145 24.8068 23.5698 24.0491 26.7363C24.0491 26.7363 24.045 26.985 24.0571 27.3692C24.0571 27.3692 24.0571 27.3692 24.0571 27.3702C24.0953 28.5359 24.2882 30.9481 25.2349 31.4456C25.3977 31.5305 25.5635 31.5901 25.7273 31.6316C26.8338 31.9116 27.8889 31.4193 27.698 33.0976Z" fill="#6FC390"/>
<path d="M28.0718 25.5625H26.0288C25.862 25.5625 25.7273 25.427 25.7273 25.2592V25.1682C25.7273 25.0003 25.862 24.8649 26.0288 24.8649H28.0718C28.2386 24.8649 28.3733 25.0003 28.3733 25.1682V25.2592C28.3733 25.426 28.2386 25.5625 28.0718 25.5625Z" fill="#B0D9AC"/>
<path d="M34.2483 25.8556L33.9207 24.3876L34.9236 25.8556H34.2483Z" fill="#37AD88"/>
<path d="M29.2678 54.162L29.7783 43.9741L30.4818 61.8083L29.2678 54.162Z" fill="#23375C"/>
<path d="M54.6205 69.7853C54.6787 70.4141 54.5793 71.1208 54.4456 71.2877C54.2476 71.5354 52.4407 71.0127 51.5102 71.2877C50.5796 71.5627 48.3074 71.4525 48.1989 71.0673C48.0894 70.6821 48.3627 70.5446 48.828 70.5992C49.244 70.6477 49.7264 70.4334 50.2339 70.1311C50.2942 70.0957 50.3545 70.0593 50.4148 70.0209C50.9896 69.663 51.7011 69.7176 52.0026 69.3597C52.3041 69.0018 52.7694 68.5883 52.7694 68.0929C52.7694 67.5975 51.7021 57.7117 51.7021 57.7117L54.7953 56.8301C54.7953 56.8301 54.932 59.4739 54.4124 63.2187C53.8929 66.9635 54.0567 68.3951 54.4124 69.0007C54.527 69.1999 54.5923 69.484 54.6205 69.7853Z" fill="#F79E86"/>
<path d="M54.4456 71.2887C54.2476 71.5364 52.4408 71.0137 51.5102 71.2887C50.5796 71.5637 48.3074 71.4535 48.1989 71.0683C48.0894 70.6831 48.3627 70.5456 48.828 70.6002C49.244 70.6487 49.7264 70.4344 50.2339 70.1321C50.2781 70.1827 50.3394 70.2292 50.4228 70.2696C51.4278 70.765 52.2488 70.4071 52.7141 69.939C53.0427 69.6084 54.0105 69.6347 54.6205 69.7853C54.6788 70.4142 54.5793 71.1209 54.4456 71.2887Z" fill="#51759F"/>
<path d="M59.3829 69.7853C59.4412 70.4141 59.3417 71.1208 59.2081 71.2877C59.0101 71.5354 57.2032 71.0127 56.2726 71.2877C55.3421 71.5627 53.0699 71.4525 52.9614 71.0673C52.8518 70.6821 53.1252 70.5446 53.5904 70.5992C54.0065 70.6477 54.4889 70.4334 54.9964 70.1311C55.0567 70.0957 55.1169 70.0593 55.1772 70.0209C55.7521 69.663 56.4636 69.7176 56.765 69.3597C57.0665 69.0018 57.5318 68.5883 57.5318 68.0929C57.5318 67.5975 56.4646 57.7117 56.4646 57.7117L59.5578 56.8301C59.5578 56.8301 59.6945 59.4739 59.1749 63.2187C58.6553 66.9635 58.8192 68.3951 59.1749 69.0007C59.2885 69.1999 59.3538 69.484 59.3829 69.7853Z" fill="#F79E86"/>
<path d="M59.2071 71.2887C59.0091 71.5364 57.2022 71.0137 56.2717 71.2887C55.3411 71.5637 53.0689 71.4535 52.9604 71.0683C52.8508 70.6831 53.1242 70.5456 53.5895 70.6002C54.0055 70.6487 54.4879 70.4344 54.9954 70.1321C55.0396 70.1827 55.1009 70.2292 55.1843 70.2696C56.1892 70.765 57.0103 70.4071 57.4756 69.939C57.8042 69.6084 58.7719 69.6347 59.3819 69.7853C59.4412 70.4142 59.3417 71.1209 59.2071 71.2887Z" fill="#51759F"/>
<path d="M53.7331 17.9324C53.7331 17.9324 52.8236 16.4937 53.1241 14.7861C53.4256 13.0785 53.7462 11.8127 54.6667 11.3446C55.5872 10.8765 56.0314 11.1242 56.0314 11.1242C56.0314 11.1242 58.0232 10.188 59.2281 11.2071C60.432 12.2262 61.7184 13.5476 60.9797 15.8608C60.2411 18.174 61.034 18.8898 61.6641 18.6967C62.2932 18.5036 63.0057 20.8401 62.2118 21.8753C61.4179 22.9096 61.9927 26.0215 63.2519 26.5169C64.5111 27.0123 64.502 26.1034 64.502 26.1034C64.502 26.1034 64.894 26.1954 64.6749 26.8192C64.4558 27.443 63.7443 27.4521 63.7624 27.4804C63.7805 27.5077 63.9543 27.7746 64.1182 27.7928C64.282 27.811 64.3644 27.7382 64.3644 27.7382C64.3644 27.7382 63.479 28.7937 62.9414 28.7017C62.4027 28.6097 62.1384 27.7655 62.1384 27.7655C62.1384 27.7655 62.257 28.4651 61.9555 28.7078C61.654 28.9504 61.5817 28.9868 61.5817 28.9868C61.5817 28.9868 61.7274 28.9777 61.6731 28.7118C61.6189 28.4459 61.5546 28.3357 61.5546 28.3357C61.5546 28.3357 61.1536 28.9504 61.3536 29.5196C61.5546 30.0888 61.6822 30.2172 61.6822 30.2172C61.6822 30.2172 61.1918 30.1303 61.0038 29.8431C60.8159 29.554 55.9751 16.9021 53.7331 17.9324Z" fill="#23375C"/>
<path d="M53.8637 14.6213C53.8637 14.6213 53.4527 16.2187 53.5623 16.7141C53.6718 17.2095 53.7904 17.7878 53.704 18.449C53.6175 19.1102 54.6024 20.7066 54.8496 20.8168C55.0958 20.927 55.7802 20.8168 55.7802 20.8168C55.7802 20.8168 55.8897 21.8268 55.3973 22.0098C54.9049 22.1938 55.0958 23.7356 56.5469 23.5698C57.9971 23.405 57.9971 24.0834 58.4624 23.3312C58.9276 22.579 58.7638 21.7398 58.7638 21.7398C58.7638 21.7398 58.381 21.1474 58.4081 20.7612C58.4352 20.376 59.01 20.0181 58.9276 19.6875C58.8452 19.3569 58.8181 19.1092 58.7638 18.8059C58.7096 18.5026 58.9357 18.3378 58.9357 18.3378C58.9357 18.3378 59.4472 17.9799 59.4472 17.5118C59.4472 17.0437 59.2281 16.521 58.9276 16.5483C58.6262 16.5756 58.189 17.071 58.189 17.071C58.189 17.071 57.4845 16.6302 56.8243 16.0519C56.1641 15.4736 55.534 14.5374 55.534 14.6203C55.534 14.7032 56.8293 16.3279 56.4967 16.1894C56.1641 16.0519 54.7953 15.0884 54.6587 14.7305C54.522 14.3726 54.522 14.3726 54.522 14.3726C54.522 14.3726 54.3582 15.1986 54.2486 15.0611C54.1371 14.9236 53.8637 14.6213 53.8637 14.6213Z" fill="#F79E86"/>
<path d="M55.7793 20.8168C55.7793 20.8168 56.6275 20.9543 57.2294 20.376C57.8314 19.7977 57.8314 19.7977 57.8314 19.7977C57.8314 19.7977 56.9099 22.0553 56.4948 21.8632C56.0808 21.6701 55.7793 20.8168 55.7793 20.8168Z" fill="#C43F52"/>
<path d="M53.7488 18.4102C53.3619 18.4102 53.0474 17.8612 53.0474 17.1879C53.0474 16.5135 53.3619 15.9656 53.7488 15.9656C54.0382 15.9656 54.3025 16.2861 54.405 16.7622L54.4191 16.8259L54.4292 16.8967C54.4432 16.9928 54.4503 17.0908 54.4503 17.1879C54.4493 17.8622 54.1347 18.4102 53.7488 18.4102ZM53.7488 15.9737C53.3669 15.9737 53.0564 16.5186 53.0564 17.1869C53.0564 17.8562 53.3669 18.4001 53.7488 18.4001C54.1307 18.4001 54.4412 17.8552 54.4412 17.1869C54.4402 16.5186 54.1297 15.9737 53.7488 15.9737ZM55.831 18.3465C55.3597 18.3465 54.9758 17.7268 54.9758 16.9655C54.9758 16.922 54.9768 16.8785 54.9799 16.835L54.9819 16.8037L54.9537 16.7885C54.8532 16.7329 54.7638 16.7046 54.6874 16.7046C54.6522 16.7046 54.6191 16.7107 54.5899 16.7228C54.5256 16.7491 54.4895 16.7976 54.4694 16.835L54.4543 16.831L54.4925 16.7845C54.5186 16.7531 54.5508 16.7289 54.5859 16.7147C54.6171 16.7016 54.6512 16.6955 54.6874 16.6955C54.7548 16.6955 54.8321 16.7167 54.9176 16.7592L54.9819 16.7906L54.9899 16.7188C55.0643 16.0616 55.418 15.5844 55.831 15.5844C56.2431 15.5844 56.6059 16.0798 56.6742 16.738L56.6792 16.7855L58.5504 16.6975V16.7066L56.6792 16.7936L56.6822 16.8441C56.6842 16.8836 56.6852 16.924 56.6852 16.9644C56.6862 17.7268 56.3024 18.3465 55.831 18.3465ZM55.831 15.5935C55.3648 15.5935 54.9849 16.2092 54.9849 16.9655C54.9849 17.7217 55.3648 18.3374 55.831 18.3374C56.2973 18.3374 56.6772 17.7217 56.6772 16.9655C56.6772 16.2092 56.2973 15.5935 55.831 15.5935Z" fill="white"/>
<path d="M55.8305 15.5333C55.3863 15.5333 55.0155 16.0428 54.9401 16.7121C54.8477 16.6666 54.7633 16.6434 54.6879 16.6434C54.6447 16.6434 54.6045 16.6514 54.5673 16.6666C54.5171 16.6868 54.4809 16.7192 54.4537 16.7505C54.3482 16.2632 54.0719 15.9134 53.7483 15.9134C53.3342 15.9134 52.9966 16.4846 52.9966 17.1863C52.9966 17.8879 53.3332 18.4591 53.7483 18.4591C54.1623 18.4591 54.5 17.8879 54.5 17.1863C54.5 17.0831 54.4929 16.9831 54.4789 16.887L54.498 16.8921C54.498 16.8911 54.5241 16.8021 54.6095 16.7667C54.6326 16.7566 54.6598 16.7525 54.6879 16.7525C54.7562 16.7525 54.8376 16.7788 54.9301 16.8304C54.9271 16.8739 54.9261 16.9184 54.9261 16.9638C54.9261 17.7535 55.3321 18.3954 55.8315 18.3954C56.331 18.3954 56.737 17.7535 56.737 16.9638C56.737 16.9224 56.736 16.8809 56.7329 16.8405L58.6031 16.7525L58.5981 16.6423L56.7249 16.7303C56.6526 16.0519 56.2797 15.5333 55.8305 15.5333ZM55.8305 18.2863C55.3914 18.2863 55.0346 17.6938 55.0346 16.9649C55.0346 16.2359 55.3914 15.6435 55.8305 15.6435C56.2697 15.6435 56.6264 16.2359 56.6264 16.9649C56.6264 17.6938 56.2697 18.2863 55.8305 18.2863ZM53.7483 18.35C53.3945 18.35 53.1061 17.8283 53.1061 17.1873C53.1061 16.5463 53.3935 16.0246 53.7483 16.0246C54.102 16.0246 54.3904 16.5463 54.3904 17.1873C54.3894 17.8283 54.102 18.35 53.7483 18.35Z" fill="#010101"/>
<path d="M54.7671 18.6967C54.7551 18.6967 54.742 18.6927 54.7319 18.6836C54.7239 18.6765 54.535 18.5137 54.3832 18.3327C54.341 18.2822 54.3219 18.2347 54.327 18.1861C54.335 18.1063 54.4023 18.0517 54.4737 17.993C54.5289 17.9486 54.5862 17.902 54.6254 17.8404C54.7129 17.7029 54.5933 17.3642 54.54 17.2459C54.5279 17.2186 54.54 17.1852 54.5671 17.1731C54.5943 17.161 54.6274 17.1731 54.6395 17.2004C54.6616 17.2499 54.8535 17.6877 54.7179 17.9C54.6696 17.9758 54.6023 18.0304 54.543 18.079C54.4898 18.1224 54.4395 18.1629 54.4365 18.1962C54.4345 18.2134 54.4455 18.2357 54.4676 18.262C54.6134 18.4349 54.8013 18.5986 54.8033 18.5996C54.8264 18.6199 54.8284 18.6542 54.8093 18.6775C54.7973 18.6896 54.7822 18.6967 54.7671 18.6967Z" fill="#C43F52"/>
<path d="M56.0314 19.6895C55.956 19.7967 55.8525 19.8816 55.7158 19.918C55.5691 19.9575 55.4133 19.9443 55.2656 19.8988C54.8104 19.7613 54.4315 19.3246 54.6255 19.2133C54.6305 19.2103 54.6446 19.2113 54.6667 19.2133C54.7913 19.2224 55.1581 19.2872 55.4606 19.2133C55.7761 19.1365 56.0635 18.8555 56.167 18.8797C56.1801 18.8827 56.1902 18.8908 56.1972 18.904C56.2424 18.994 56.2283 19.4135 56.0314 19.6895Z" fill="#C43F52"/>
<path d="M56.1681 18.8807C56.1249 18.9798 55.937 19.1284 55.7159 19.278C55.4466 19.46 54.9451 19.4337 54.8306 19.4115C54.7562 19.3973 54.6979 19.2881 54.6667 19.2143C54.7914 19.2234 55.1582 19.2881 55.4607 19.2143C55.7772 19.1375 56.0646 18.8564 56.1681 18.8807Z" fill="white"/>
<g opacity="0.51">
<path opacity="0.51" d="M56.0314 19.6895C55.956 19.7967 55.8525 19.8816 55.7158 19.918C55.5691 19.9574 55.4134 19.9443 55.2656 19.8988C55.3832 19.7512 55.5812 19.6541 55.8053 19.6541C55.8847 19.6551 55.961 19.6673 56.0314 19.6895Z" fill="#F79E86"/>
</g>
<path d="M61.819 57.2183C61.5647 57.3609 60.5226 57.6571 59.5739 57.7825C59.2976 57.8189 59.0293 57.8421 58.7911 57.8421C58.6464 57.8421 58.4715 57.8502 58.2745 57.8624C57.4816 57.9129 56.326 58.0453 55.2658 58.0929C54.6678 58.1191 54.1 58.1191 53.6458 58.0625C53.1383 57.9988 52.3796 57.8199 51.5987 57.5884C51.0812 57.4357 50.5546 57.2598 50.0833 57.0798C49.218 56.7482 48.5417 56.4014 48.4643 56.1537C48.4291 56.0385 48.4965 55.5219 48.6301 54.7565C48.7146 54.2743 48.8251 53.6929 48.9517 53.0519C49.6522 49.5174 50.8581 44.1621 50.9827 43.4877C51.1656 42.497 52.4479 35.9992 52.9705 36.0709C53.493 36.1437 59.7779 35.6119 59.7779 35.6119C59.7779 35.6119 60.5447 35.6665 60.6904 37.1355C60.8361 38.6045 61.0552 46.6815 61.3105 49.3243C61.4311 50.5739 61.626 52.3645 61.7617 53.9255C61.8039 54.4158 61.8421 54.8829 61.8692 55.3035C61.9375 56.3782 61.9436 57.1486 61.819 57.2183Z" fill="#CDDDF1"/>
<path d="M52.9684 34.5666C52.9684 34.5666 52.5111 35.8779 52.9684 36.071C53.4256 36.2641 60.0773 36.3187 60.2682 36.071C60.4602 35.8233 60.6039 35.4229 60.3948 35.1408C60.1858 34.8598 52.9684 34.5666 52.9684 34.5666Z" fill="#51759F"/>
<path d="M52.9684 29.5793C52.9684 29.5793 51.273 30.196 50.2691 30.7834C49.2652 31.3708 48.3899 31.7014 48.1346 31.5356C47.8794 31.3708 46.6383 30.93 46.8573 31.297C47.0764 31.664 47.5869 31.7004 47.2583 31.8106C46.9297 31.9208 45.6896 31.2596 45.5429 31.2596C45.3972 31.2596 45.1047 31.9936 46.0906 32.5082C47.0754 33.0218 47.8955 32.8914 48.1708 32.7832C48.4462 32.676 48.8341 32.5446 49.1778 32.5082C49.5214 32.4718 53.3894 31.7742 53.3894 31.7742L52.9684 29.5793Z" fill="#F79E86"/>
<g opacity="0.68">
<path opacity="0.68" d="M52.9684 29.5793C52.9684 29.5793 51.273 30.196 50.2691 30.7834C49.2652 31.3708 48.3899 31.7014 48.1346 31.5356C47.8794 31.3708 46.6383 30.93 46.8573 31.297C47.0764 31.664 47.5869 31.7004 47.2583 31.8106C46.9297 31.9208 45.6896 31.2596 45.5429 31.2596C45.3972 31.2596 45.1047 31.9936 46.0906 32.5082C47.0754 33.0218 47.8955 32.8914 48.1708 32.7832C48.4462 32.676 48.8341 32.5446 49.1778 32.5082C49.5214 32.4718 53.3894 31.7742 53.3894 31.7742L52.9684 29.5793Z" fill="#C43F52"/>
</g>
<path d="M60.6882 34.8548C60.4752 35.4937 58.408 35.427 57.0715 35.3775C56.8062 35.3674 56.569 35.3583 56.3821 35.3552C55.2505 35.337 52.915 35.0802 52.7321 34.5838C52.5502 34.0884 52.6959 34.051 52.9683 33.3544C53.0427 33.1654 53.0808 32.9146 53.0969 32.6326C53.1401 31.8733 53.0195 30.8926 52.9683 30.3072C52.8989 29.5045 52.2216 27.2236 52.6959 26.159C53.1703 25.0944 55.3962 22.0108 55.3962 22.0108C55.6153 21.7045 55.761 22.7448 56.4544 22.7084C57.1478 22.672 58.2432 21.8642 58.4251 21.7914C58.608 21.7176 59.2281 21.6812 59.629 22.0118C60.031 22.3425 60.8329 23.223 61.0158 24.0308C61.1977 24.8386 61.1616 30.7126 60.6872 31.9976C60.2129 33.2806 60.9435 34.0884 60.6882 34.8548Z" fill="#CDDDF1"/>
<path d="M61.867 55.3046C61.1696 55.6513 60.5747 55.6695 59.5014 55.162C58.2975 54.5928 58.0784 56.2266 56.983 55.8758C55.8886 55.526 54.739 55.5108 53.5893 55.8414C52.4397 56.172 52.9321 54.0236 50.5785 54.8506C49.7585 55.1377 49.1184 55.0316 48.627 54.7566C48.7114 54.2743 48.8219 53.693 48.9485 53.052C49.1586 53.1825 49.3656 53.2502 49.5384 53.1946C50.1977 52.9813 51.5634 52.5384 52.1111 52.9186C52.6588 53.2987 53.8084 54.0802 54.2456 54.423C54.6837 54.7657 55.2857 54.0256 55.8876 54.423C56.4896 54.8203 57.6945 54.246 58.4603 53.7496C59.227 53.2542 60.2119 53.695 60.5405 54.1793C60.6942 54.4058 61.2309 54.2056 61.7585 53.9276C61.8027 54.4159 61.8399 54.884 61.867 55.3046Z" fill="#51759F"/>
<path d="M59.9606 24.9155C59.9606 24.9155 59.7747 29.83 58.2974 31.7388C56.8192 33.6476 53.4677 33.8306 54.4495 34.5676C55.4323 35.3036 57.1166 35.3552 57.1166 35.3552C57.1166 35.3552 57.1005 35.3633 57.0714 35.3774C56.8061 35.3673 56.5689 35.3582 56.382 35.3552C55.2504 35.337 52.915 35.0802 52.7321 34.5838C52.5502 34.0884 52.6959 34.051 52.9682 33.3544C53.0426 33.1653 53.0808 32.9146 53.0969 32.6325C54.0958 31.9663 55.4826 31.1918 55.7801 30.931C56.1991 30.564 59.9606 24.9155 59.9606 24.9155Z" fill="#92B2DD"/>
<path d="M58.8995 23.3312C58.8995 23.3312 57.987 23.3312 57.4031 24.5424C56.8193 25.7536 56.0897 29.095 55.1038 29.829C54.119 30.563 50.2138 32.766 49.4842 32.7842C48.7546 32.8024 48.0974 32.5092 48.1708 32.7842C48.2441 33.0592 48.7908 33.2432 48.6451 33.3534C48.4994 33.4636 47.806 33.7568 47.0392 33.6476C46.2724 33.5374 45.9448 33.2189 45.9448 33.6718C45.9448 34.1248 46.6744 34.6283 47.405 34.8537C48.1346 35.0792 48.828 34.9326 49.1928 34.5838C49.5576 34.235 49.7405 34.1612 50.1415 34.0146C50.5424 33.868 57.2212 31.848 58.1699 30.6732C59.1186 29.4984 59.4834 27.5158 59.6301 26.4876C59.7758 25.4614 60.6883 23.5152 58.8995 23.3312Z" fill="#F79E86"/>
<path d="M50.5384 32.2848C50.5384 32.2848 50.7253 32.1978 50.8901 32.6568C51.0539 33.1158 50.9815 33.9418 50.8901 33.9782C50.7986 34.0146 50.5615 34.0904 50.5796 33.9782C50.5977 33.866 50.7052 33.226 50.5796 32.8398C50.4539 32.4536 50.269 32.5345 50.269 32.5345C50.269 32.5345 50.4469 32.2484 50.5384 32.2848Z" fill="#2D4D9D"/>
<g opacity="0.42">
<g opacity="0.56">
<path opacity="0.56" d="M56.3269 56.8322C56.3269 56.5572 57.4766 50.7196 58.0243 46.534C58.572 42.3484 58.0785 38.9342 58.3529 39.1C58.6262 39.2648 58.8453 43.6162 58.3529 46.5896C57.8594 49.563 56.3269 56.8322 56.3269 56.8322Z" fill="#51759F"/>
</g>
<g opacity="0.56">
<path opacity="0.56" d="M58.2974 56.8322C58.2974 56.8322 59.1184 50.9946 59.0641 48.6268C59.0099 46.259 59.5566 43.6708 59.5566 44.6616C59.5566 45.6534 59.4309 55.712 58.2974 56.8322Z" fill="#51759F"/>
</g>
<g opacity="0.56">
<path opacity="0.56" d="M51.9472 56.5027C51.9472 56.5027 53.3159 50.4446 53.8626 46.0396C54.4103 41.6336 54.5741 38.9787 54.355 39.095C54.1359 39.2112 53.3893 45.342 52.527 50.0049C51.6658 54.6667 51.0166 58.4853 51.9472 56.5027Z" fill="#51759F"/>
</g>
<path opacity="0.4" d="M58.5508 55.4997C58.4473 56.3965 58.3518 57.2083 58.2744 57.8624C57.4815 57.913 56.3258 58.0454 55.2656 58.0929C55.7862 55.0589 58.603 37.8989 58.9035 39.7168C59.1628 41.2939 58.4653 50.8713 58.5508 55.4997Z" fill="#51759F"/>
<path opacity="0.4" d="M51.5975 57.5884C51.0799 57.4358 50.5533 57.2599 50.082 57.0799C51.3875 51.6285 54.1048 40.2718 54.3571 39.095C54.6596 37.6745 52.1633 53.7688 51.5975 57.5884Z" fill="#51759F"/>
<path opacity="0.4" d="M59.5735 57.7826C59.2972 57.819 59.0289 57.8422 58.7907 57.8422C58.643 57.5066 58.5726 56.6583 58.5505 55.4997C58.9686 51.8965 59.5193 46.9314 59.5735 45.3784C59.6549 42.9935 59.5816 56.1225 59.5735 57.7826Z" fill="#51759F"/>
</g>
<path d="M55.779 16.9163C55.779 17.0983 55.6976 17.2469 55.5981 17.2469C55.4986 17.2469 55.4172 17.0993 55.4172 16.9163C55.4172 16.7333 55.4986 16.5857 55.5981 16.5857C55.6976 16.5857 55.779 16.7333 55.779 16.9163Z" fill="#23375C"/>
<path d="M54.2375 17.1681C54.2375 17.3511 54.1561 17.4987 54.0566 17.4987C53.9571 17.4987 53.8757 17.3511 53.8757 17.1681C53.8757 16.9861 53.9571 16.8375 54.0566 16.8375C54.1571 16.8375 54.2375 16.9861 54.2375 17.1681Z" fill="#23375C"/>
<path d="M51.5242 5.50195H40.3653C40.1292 5.50195 39.9382 5.69405 39.9382 5.93163V12.3243C39.9382 12.5619 40.1292 12.754 40.3653 12.754H47.5938L48.9023 14.8559C48.9465 14.9256 49.0138 14.957 49.0812 14.957C49.1927 14.957 49.3032 14.87 49.2972 14.7325L49.2188 12.753H51.5262C51.7623 12.753 51.9533 12.5598 51.9533 12.3233V5.93062C51.9513 5.69405 51.7603 5.50195 51.5242 5.50195ZM51.6779 12.3233C51.6779 12.4082 51.6086 12.478 51.5242 12.478H48.9314L48.9425 12.7641L49.0128 14.5162L47.825 12.6074L47.7446 12.478H40.3643C40.2799 12.478 40.2106 12.4082 40.2106 12.3233V5.93062C40.2106 5.8457 40.2799 5.77594 40.3643 5.77594H51.5242C51.6086 5.77594 51.6779 5.8457 51.6779 5.93062V12.3233Z" fill="#92B2DD"/>
<path d="M51.6781 5.93063V12.3233C51.6781 12.4082 51.6087 12.478 51.5243 12.478H48.9316L48.9426 12.7641L49.013 14.5162L47.8251 12.6074L47.7447 12.478H40.3644C40.28 12.478 40.2107 12.4082 40.2107 12.3233V5.93063C40.2107 5.8457 40.28 5.77594 40.3644 5.77594H51.5243C51.6087 5.77695 51.6781 5.84671 51.6781 5.93063Z" fill="white"/>
<path d="M45.7388 11.6206C47.0858 11.6206 48.1778 10.522 48.1778 9.16687C48.1778 7.81171 47.0858 6.71313 45.7388 6.71313C44.3918 6.71313 43.2998 7.81171 43.2998 9.16687C43.2998 10.522 44.3918 11.6206 45.7388 11.6206Z" fill="#FFD38E"/>
<path d="M45.7387 10.731C45.2091 10.731 44.766 10.363 44.6464 9.86756C44.6132 9.73107 44.7167 9.60065 44.8564 9.60065H46.6221C46.7608 9.60065 46.8643 9.73208 46.8321 9.86756C46.7115 10.363 46.2683 10.731 45.7387 10.731Z" fill="#F69782"/>
<path d="M46.3066 8.40558C46.3066 8.56936 46.4393 8.70281 46.6021 8.70281C46.7649 8.70281 46.8975 8.56936 46.8975 8.40558C46.8975 8.24179 46.7649 8.10834 46.6021 8.10834C46.4393 8.10834 46.3066 8.24078 46.3066 8.40558Z" fill="#F69782"/>
<path d="M44.6404 8.40558C44.6404 8.56936 44.773 8.70281 44.9358 8.70281C45.0986 8.70281 45.2313 8.56936 45.2313 8.40558C45.2313 8.24179 45.0986 8.10834 44.9358 8.10834C44.773 8.10834 44.6404 8.24078 44.6404 8.40558Z" fill="#F69782"/>
<path d="M79.2073 73.0236H0.602963C0.270329 73.0236 0 72.7516 0 72.4169V71.868C0 71.5333 0.270329 71.2614 0.602963 71.2614H79.2073C79.5399 71.2614 79.8102 71.5333 79.8102 71.868V72.4169C79.8102 72.7516 79.5399 73.0236 79.2073 73.0236Z" fill="#CDDDF1"/>
<path d="M38.034 76H11.5598C11.2825 76 11.0574 75.7735 11.0574 75.4945V75.3489C11.0574 75.0699 11.2825 74.8434 11.5598 74.8434H38.034C38.3113 74.8434 38.5364 75.0699 38.5364 75.3489V75.4945C38.5364 75.7735 38.3113 76 38.034 76Z" fill="#CDDDF1"/>
<path d="M57.7949 76H42.7429C42.4656 76 42.2405 75.7735 42.2405 75.4945V75.3489C42.2405 75.0699 42.4656 74.8434 42.7429 74.8434H57.7949C58.0723 74.8434 58.2974 75.0699 58.2974 75.3489V75.4945C58.2974 75.7735 58.0723 76 57.7949 76Z" fill="#CDDDF1"/>
<path d="M43.3993 18.8352H40.2117V19.7866H43.3993V18.8352Z" fill="white"/>
<path opacity="0.53" d="M44.7773 19.8412H41.5896V20.7925H44.7773V19.8412Z" fill="white"/>
<path d="M41.5894 42.8771H44.7771V41.9258H41.5894V42.8771Z" fill="white"/>
<path opacity="0.53" d="M40.2115 41.871H43.3992V40.9196H40.2115V41.871Z" fill="white"/>
<path d="M41.3353 55.0018H44.5229V54.0505H41.3353V55.0018Z" fill="white"/>
<path d="M81.5066 64.7262C81.2342 64.7262 81.0142 64.5048 81.0142 64.2308V49.1828C81.0142 48.9089 81.2342 48.6874 81.5066 48.6874C81.7789 48.6874 81.999 48.9089 81.999 49.1828V64.2308C82 64.5038 81.7789 64.7262 81.5066 64.7262Z" fill="#E9EEF8"/>
<path d="M1.51854 64.7262C1.2462 64.7262 1.02612 64.5048 1.02612 64.2308V49.1828C1.02612 48.9089 1.2462 48.6874 1.51854 48.6874C1.79088 48.6874 2.01096 48.9089 2.01096 49.1828V64.2308C2.01096 64.5038 1.79088 64.7262 1.51854 64.7262Z" fill="#E9EEF8"/>
<path d="M81.5066 46.0194C81.2342 46.0194 81.0142 45.7979 81.0142 45.524V40.3051C81.0142 40.0311 81.2342 39.8097 81.5066 39.8097C81.7789 39.8097 81.999 40.0311 81.999 40.3051V45.524C82 45.7979 81.7789 46.0194 81.5066 46.0194Z" fill="#E9EEF8"/>
<path d="M81.5066 31.7924C81.2342 31.7924 81.0142 31.5709 81.0142 31.297V6.96689C81.0142 6.69291 81.2342 6.4715 81.5066 6.4715C81.7789 6.4715 81.999 6.69291 81.999 6.96689V31.296C82 31.5709 81.7789 31.7924 81.5066 31.7924Z" fill="#E9EEF8"/>
<path d="M1.51854 31.7924C1.2462 31.7924 1.02612 31.5709 1.02612 31.297V6.96689C1.02612 6.69291 1.2462 6.4715 1.51854 6.4715C1.79088 6.4715 2.01096 6.69291 2.01096 6.96689V31.296C2.01096 31.5709 1.79088 31.7924 1.51854 31.7924Z" fill="#E9EEF8"/>
<path d="M73.0771 1.21119H42.8606C42.5882 1.21119 42.3682 0.989781 42.3682 0.715795C42.3682 0.44181 42.5882 0.220398 42.8606 0.220398H73.0771C73.3494 0.220398 73.5695 0.44181 73.5695 0.715795C73.5695 0.989781 73.3494 1.21119 73.0771 1.21119Z" fill="#E9EEF8"/>
</svg>
